G04*
G04 #@! TF.GenerationSoftware,Altium Limited,Altium Designer,20.0.2 (26)*
G04*
G04 Layer_Physical_Order=1*
G04 Layer_Color=255*
%FSLAX25Y25*%
%MOIN*%
G70*
G01*
G75*
%ADD20R,0.02756X0.03937*%
%ADD21O,0.03150X0.00984*%
%ADD22O,0.00984X0.03150*%
%ADD23R,0.02559X0.03937*%
%ADD24R,0.01354X0.02000*%
%ADD25R,0.03740X0.03740*%
%ADD26R,0.03937X0.03150*%
%ADD27R,0.03740X0.03740*%
%ADD28R,0.02047X0.02047*%
%ADD29R,0.02047X0.02047*%
%ADD30O,0.02362X0.06693*%
%ADD31R,0.04724X0.07874*%
%ADD32R,0.06890X0.12598*%
%ADD33R,0.06890X0.03543*%
%ADD34R,0.03150X0.03150*%
%ADD35R,0.06693X0.07087*%
%ADD36O,0.05709X0.01378*%
%ADD37O,0.01378X0.05709*%
%ADD38R,0.05512X0.04528*%
%ADD39R,0.02362X0.02362*%
%ADD40R,0.02362X0.02756*%
%ADD41R,0.02756X0.02362*%
%ADD42R,0.04724X0.09843*%
%ADD75O,0.05118X0.12598*%
%ADD76C,0.01000*%
%ADD77C,0.02362*%
%ADD78C,0.02000*%
%ADD79R,0.13386X0.13386*%
%ADD80O,0.04535X0.04429*%
%ADD81R,0.07874X0.06299*%
%ADD82C,0.01772*%
%ADD83C,0.01968*%
%ADD84O,0.07874X0.06299*%
%ADD85R,0.06693X0.06693*%
%ADD86C,0.06693*%
%ADD87C,0.02362*%
G36*
X300770Y565688D02*
X301417Y565603D01*
X302462Y565170D01*
X303359Y564481D01*
X304048Y563584D01*
X304481Y562539D01*
X304611Y561551D01*
Y469563D01*
X304111Y469412D01*
X304089Y469444D01*
X301321Y472212D01*
Y493470D01*
X301251Y493818D01*
X301054Y494114D01*
X297862Y497306D01*
X297621Y497467D01*
X294451Y500636D01*
X294156Y500834D01*
X293807Y500903D01*
X293391D01*
X293124Y501403D01*
X293157Y501452D01*
X293279Y502067D01*
Y506398D01*
X293157Y507012D01*
X292809Y507533D01*
X292555Y507703D01*
Y508264D01*
X292485Y508613D01*
X292288Y508908D01*
X285977Y515219D01*
X285682Y515417D01*
X285333Y515486D01*
X280715D01*
X280524Y515948D01*
X292318Y527741D01*
X292515Y528037D01*
X292584Y528386D01*
Y528734D01*
X292809Y528884D01*
X293157Y529405D01*
X293279Y530020D01*
Y534350D01*
X293157Y534965D01*
X292888Y535367D01*
X293276Y535686D01*
X295068Y533895D01*
Y530020D01*
X295190Y529405D01*
X295538Y528884D01*
X296059Y528536D01*
X296673Y528414D01*
X297288Y528536D01*
X297809Y528884D01*
X298157Y529405D01*
X298279Y530020D01*
Y534350D01*
X298157Y534965D01*
X297809Y535486D01*
X297288Y535834D01*
X296673Y535956D01*
X296059Y535834D01*
X295847Y535692D01*
X293986Y537554D01*
X293690Y537751D01*
X293341Y537821D01*
X290650D01*
X290301Y537751D01*
X290005Y537554D01*
X289878Y537426D01*
X289378Y537634D01*
Y539165D01*
X287508D01*
Y537295D01*
X289040D01*
X289247Y536795D01*
X288431Y535979D01*
X288233Y535683D01*
X288229Y535682D01*
X287699Y535559D01*
X287288Y535834D01*
X286673Y535956D01*
X286059Y535834D01*
X285538Y535486D01*
X285190Y534965D01*
X285068Y534350D01*
Y530020D01*
X285141Y529651D01*
X281176Y525686D01*
X281004Y525720D01*
X280389Y525598D01*
X279869Y525249D01*
X279521Y524729D01*
X279398Y524114D01*
X279521Y523500D01*
X279751Y523155D01*
X279521Y522655D01*
X278222D01*
X278070Y523155D01*
X278407Y523380D01*
X278755Y523901D01*
X278877Y524516D01*
X278755Y525130D01*
X278407Y525651D01*
X277886Y525999D01*
X277272Y526121D01*
X276657Y525999D01*
X276136Y525651D01*
X275788Y525130D01*
X275743Y524903D01*
X275502Y524743D01*
X275412Y524652D01*
X275214Y524357D01*
X275145Y524008D01*
Y522890D01*
X275123Y522868D01*
X272554D01*
X272515Y522860D01*
X272047D01*
X272007Y522852D01*
X270965D01*
X270619Y522783D01*
X270516Y522714D01*
X270155Y523075D01*
X270224Y523178D01*
X270293Y523524D01*
Y524566D01*
X270301Y524606D01*
Y527186D01*
X270353Y527238D01*
X276895D01*
X277244Y527308D01*
X277295Y527342D01*
X277313Y527330D01*
X277928Y527208D01*
X278542Y527330D01*
X279063Y527678D01*
X279411Y528199D01*
X279533Y528814D01*
X279411Y529428D01*
X279063Y529949D01*
X278542Y530297D01*
X277928Y530419D01*
X277605Y530355D01*
X277440Y530583D01*
X277357Y530816D01*
X277664Y531275D01*
X277787Y531890D01*
X277664Y532504D01*
X277316Y533025D01*
X276796Y533373D01*
X276230Y533486D01*
X276120Y533662D01*
X276007Y533971D01*
X277727Y535690D01*
X277924Y535986D01*
X277994Y536335D01*
Y541715D01*
X278456Y541906D01*
X279003Y541359D01*
Y537795D01*
X279035Y537717D01*
Y537402D01*
X279220D01*
X280086Y536536D01*
Y534441D01*
X280068Y534350D01*
Y530020D01*
X280190Y529405D01*
X280538Y528884D01*
X281059Y528536D01*
X281673Y528414D01*
X282288Y528536D01*
X282809Y528884D01*
X283157Y529405D01*
X283279Y530020D01*
Y531937D01*
X283300Y531988D01*
Y537402D01*
X283563D01*
Y537815D01*
X283595Y537894D01*
Y541359D01*
X284138Y541901D01*
X284638Y541694D01*
Y540165D01*
X286508D01*
Y542035D01*
X284979D01*
X284772Y542535D01*
X285413Y543176D01*
X297539D01*
X297618Y543209D01*
X297933D01*
Y543524D01*
X297966Y543602D01*
Y547342D01*
X297933Y547421D01*
Y547736D01*
X297618D01*
X297539Y547769D01*
X284159D01*
X283968Y548231D01*
X285130Y549393D01*
X285630Y549185D01*
Y548917D01*
X290158D01*
Y552156D01*
X291294Y553293D01*
X291492Y553588D01*
X291561Y553937D01*
Y560335D01*
X291492Y560683D01*
X291294Y560979D01*
X290105Y562168D01*
X289862Y562330D01*
Y564567D01*
X285925D01*
Y560630D01*
X288880D01*
X288968Y560612D01*
X289083D01*
X289738Y559957D01*
Y558661D01*
X285925D01*
Y556111D01*
X284198Y554385D01*
X284001Y554089D01*
X283931Y553740D01*
Y550771D01*
X282685Y549525D01*
X282185Y549732D01*
Y552375D01*
X282338Y552604D01*
X282407Y552953D01*
Y559646D01*
X282338Y559994D01*
X282140Y560290D01*
X280413Y562017D01*
Y564665D01*
X276476D01*
Y560728D01*
X279125D01*
X280585Y559268D01*
Y559189D01*
X280413Y558760D01*
X276476D01*
Y555521D01*
X275045Y554089D01*
X274847Y553794D01*
X274778Y553445D01*
Y544201D01*
X273728D01*
Y542520D01*
Y540839D01*
X274778D01*
Y540158D01*
X271457D01*
Y539592D01*
X270571D01*
Y540256D01*
X264395D01*
Y540748D01*
X264828Y541134D01*
X266921D01*
Y543398D01*
X264165D01*
Y542063D01*
X263665Y541856D01*
X262743Y542778D01*
X262447Y542976D01*
X262098Y543045D01*
X261909D01*
Y546555D01*
X255610D01*
Y543045D01*
X254424D01*
X254076Y542976D01*
X253861Y542833D01*
X253535D01*
X253447Y542815D01*
X250886D01*
Y539665D01*
X254429D01*
Y541053D01*
X254560Y541079D01*
X254775Y541223D01*
X257193D01*
X257281Y541240D01*
X260632D01*
X260720Y541223D01*
X261721D01*
X262128Y540816D01*
X261874Y540362D01*
X261574Y540362D01*
X259260D01*
Y538098D01*
X262016D01*
Y539707D01*
X262364Y539960D01*
X262516Y539993D01*
X262573Y539959D01*
Y527794D01*
X262412Y527685D01*
X262073Y527601D01*
X261199Y528476D01*
X261251Y528740D01*
X261129Y529355D01*
X260781Y529876D01*
X260260Y530224D01*
X259864Y530302D01*
X258268Y531899D01*
Y533957D01*
X255118D01*
Y531362D01*
X254641Y531004D01*
X254437Y531068D01*
Y531685D01*
X252756D01*
X251075D01*
Y530825D01*
X250090D01*
X247860Y533055D01*
Y535728D01*
X248524D01*
Y538878D01*
X245374D01*
Y535728D01*
X246038D01*
Y532677D01*
X246107Y532328D01*
X246304Y532033D01*
X247220Y531117D01*
X246974Y530656D01*
X246555Y530739D01*
X245941Y530617D01*
X245420Y530269D01*
X245072Y529748D01*
X244950Y529134D01*
X245072Y528519D01*
X245420Y527998D01*
X245941Y527650D01*
X246555Y527528D01*
X247047Y527626D01*
X247062Y527612D01*
X247358Y527414D01*
X247706Y527345D01*
X248971D01*
X249238Y526845D01*
X249205Y526796D01*
X249083Y526181D01*
X249144Y525879D01*
X248501Y525236D01*
X248079Y525047D01*
X247055D01*
Y523524D01*
X246555D01*
Y523024D01*
X245031D01*
Y522917D01*
X237226D01*
X237205Y565379D01*
X237559Y565733D01*
X240241D01*
Y552165D01*
X240302Y551858D01*
X240476Y551598D01*
X240736Y551424D01*
X241043Y551363D01*
X241351Y551424D01*
X241406Y551461D01*
X271783D01*
X271838Y551424D01*
X272146Y551363D01*
X272453Y551424D01*
X272713Y551598D01*
X272887Y551858D01*
X272949Y552165D01*
Y565733D01*
X299801Y565733D01*
X299902Y565733D01*
X300295Y565748D01*
X300770Y565688D01*
D02*
G37*
G36*
X297539Y543602D02*
X285236D01*
X283169Y541535D01*
Y537894D01*
X282874Y537598D01*
Y531988D01*
X280512D01*
Y536713D01*
X279429Y537795D01*
Y541535D01*
X278051Y542913D01*
Y547318D01*
X278058Y547325D01*
X282685D01*
X282773Y547342D01*
X297539D01*
Y543602D01*
D02*
G37*
G36*
X211205Y547980D02*
X226205D01*
Y541480D01*
X211205D01*
Y538980D01*
X226205D01*
Y532480D01*
X211205D01*
Y529980D01*
X226205D01*
Y523480D01*
X211205D01*
Y520980D01*
X232205D01*
Y548280D01*
X234205D01*
Y520980D01*
X237205D01*
Y518980D01*
X209205D01*
Y525480D01*
X224205D01*
Y527980D01*
X209205D01*
Y534480D01*
X224205D01*
Y536980D01*
X209205D01*
Y543480D01*
X224205D01*
Y545980D01*
X209205D01*
Y562480D01*
X211205D01*
Y547980D01*
D02*
G37*
G36*
X258144Y493389D02*
Y484220D01*
X256238Y482314D01*
X256040Y482018D01*
X255971Y481669D01*
Y480705D01*
X255709Y480247D01*
X255094Y480125D01*
X254839Y479954D01*
X254339Y480222D01*
Y481701D01*
X252468D01*
Y479331D01*
X251468D01*
Y481701D01*
X249829D01*
Y483776D01*
X251325Y485273D01*
X251523Y485569D01*
X251592Y485917D01*
Y487689D01*
X252945D01*
Y490059D01*
Y492429D01*
X251592D01*
Y493504D01*
X255709D01*
X255709Y493504D01*
X256204Y493492D01*
X256791Y493375D01*
X257406Y493497D01*
X257644Y493656D01*
X258144Y493389D01*
D02*
G37*
G36*
X248885Y516512D02*
X247727Y515354D01*
X244193D01*
Y514010D01*
X243905D01*
X243557Y513940D01*
X243261Y513743D01*
X241580Y512062D01*
X241383Y511766D01*
X241313Y511417D01*
Y509061D01*
X241089Y508911D01*
X240741Y508390D01*
X240619Y507776D01*
Y505499D01*
X240446Y505240D01*
X240323Y504626D01*
X240327Y504606D01*
X235282Y499561D01*
X234934Y499040D01*
X234812Y498425D01*
X234812Y498425D01*
Y489051D01*
X232800Y487039D01*
X227437D01*
X227120Y487356D01*
X226599Y487704D01*
X225984Y487826D01*
X225370Y487704D01*
X224849Y487356D01*
X224849Y487356D01*
X223373Y485880D01*
X223024Y485359D01*
X222902Y484744D01*
X222902Y484744D01*
Y483661D01*
X223024Y483047D01*
X223373Y482526D01*
X223893Y482178D01*
X224508Y482056D01*
X237303D01*
X237303Y482056D01*
X237918Y482178D01*
X238439Y482526D01*
X240801Y484888D01*
X240880Y485006D01*
X240998Y485085D01*
X241346Y485606D01*
X241396Y485859D01*
X241896Y485809D01*
Y469594D01*
X241965Y469246D01*
X242163Y468950D01*
X246801Y464312D01*
X246594Y463812D01*
X245058D01*
X242028Y466843D01*
Y467028D01*
X241712D01*
X241634Y467060D01*
X234744D01*
X234666Y467028D01*
X234350D01*
Y466712D01*
X234318Y466634D01*
Y463183D01*
X234318Y463091D01*
X234318Y463091D01*
X234350Y462697D01*
X234535D01*
X236866Y460366D01*
X237054Y460085D01*
X237335Y459897D01*
X237888Y459344D01*
X238189Y459220D01*
X246949D01*
X247120Y458758D01*
Y458177D01*
X245579D01*
Y455807D01*
Y453437D01*
X247120D01*
Y451657D01*
X245890Y450427D01*
X245284D01*
X244935Y450358D01*
X244639Y450160D01*
X243450Y448971D01*
X243253Y448675D01*
X243183Y448327D01*
Y446260D01*
X243253Y445911D01*
X243450Y445615D01*
X244206Y444860D01*
X244015Y444398D01*
X242709D01*
Y442528D01*
X245079D01*
Y442028D01*
X245579D01*
Y439657D01*
X247120D01*
Y439077D01*
X246949Y438615D01*
X234646D01*
X234344Y438490D01*
X234342Y438484D01*
X234252D01*
Y438267D01*
X234220Y438189D01*
Y432776D01*
X234344Y432474D01*
X234344Y432474D01*
X235919Y430899D01*
X236221Y430775D01*
X243602D01*
X243602Y430775D01*
X243799Y430856D01*
X244133Y430672D01*
X244258Y430547D01*
Y426995D01*
X244327Y426646D01*
X244525Y426351D01*
X246358Y424518D01*
X246111Y424057D01*
X245669Y424145D01*
X245055Y424023D01*
X244534Y423675D01*
X244186Y423154D01*
X244064Y422539D01*
X244116Y422275D01*
X242663Y420822D01*
X242497Y420573D01*
X242080Y420489D01*
X241985Y420480D01*
X241946Y420480D01*
X238591D01*
Y418209D01*
Y415937D01*
X241896D01*
X242035Y415937D01*
X242396Y415600D01*
Y406184D01*
X236630Y400419D01*
X231201D01*
X230852Y400350D01*
X230557Y400152D01*
X229456Y399052D01*
X229035Y399107D01*
X228059Y398978D01*
X227149Y398602D01*
X226368Y398002D01*
X225768Y397221D01*
X225392Y396311D01*
X225263Y395335D01*
X225376Y394479D01*
X224060Y393164D01*
X223863Y392868D01*
X223794Y392520D01*
Y388515D01*
X223332Y388324D01*
X220561Y391094D01*
X220768Y391595D01*
X222776D01*
Y399075D01*
X215295D01*
Y391595D01*
X218381D01*
Y391074D01*
X218451Y390725D01*
X218648Y390430D01*
X219532Y389546D01*
X219298Y389072D01*
X219035Y389107D01*
X218059Y388979D01*
X217149Y388602D01*
X216368Y388002D01*
X215768Y387221D01*
X215392Y386311D01*
X215263Y385335D01*
X215353Y384653D01*
X213714Y383015D01*
X213214Y383222D01*
Y397851D01*
X215929Y400565D01*
X226566D01*
X226914Y400634D01*
X227210Y400832D01*
X228597Y402219D01*
X228795Y402515D01*
X228864Y402864D01*
Y410266D01*
X229778Y411180D01*
X229945Y411213D01*
X230102Y411318D01*
X230602Y411051D01*
X230602Y410982D01*
X230602D01*
X230602Y410954D01*
Y407783D01*
X233949D01*
Y411327D01*
X230988Y411327D01*
X230974D01*
X230974D01*
X230911Y411327D01*
X230816Y411504D01*
X230643Y411827D01*
X230814Y412082D01*
X230936Y412697D01*
X230814Y413311D01*
X230466Y413832D01*
X229945Y414180D01*
X229331Y414302D01*
X228716Y414180D01*
X228195Y413832D01*
X227847Y413311D01*
X227725Y412697D01*
X227847Y412082D01*
X227950Y411929D01*
X227308Y411288D01*
X227111Y410992D01*
X227042Y410644D01*
Y403241D01*
X226188Y402388D01*
X215551D01*
X215202Y402318D01*
X214907Y402121D01*
X211659Y398873D01*
X211461Y398577D01*
X211392Y398228D01*
Y371850D01*
X211461Y371502D01*
X211659Y371206D01*
X216116Y366748D01*
Y358971D01*
X215315Y358865D01*
X214453Y358508D01*
X213713Y357941D01*
X213145Y357200D01*
X212788Y356338D01*
X212666Y355413D01*
X212788Y354488D01*
X213145Y353626D01*
X213713Y352886D01*
X214453Y352318D01*
X215315Y351961D01*
X216240Y351839D01*
X217815D01*
X218740Y351961D01*
X219602Y352318D01*
X220342Y352886D01*
X220910Y353626D01*
X221267Y354488D01*
X221389Y355413D01*
X221267Y356338D01*
X220910Y357200D01*
X220342Y357941D01*
X219602Y358508D01*
X218740Y358865D01*
X217939Y358971D01*
Y367126D01*
X217869Y367475D01*
X217672Y367770D01*
X217142Y368300D01*
X217276Y368651D01*
X217375Y368774D01*
X221670D01*
X224679Y365764D01*
Y357776D01*
Y354945D01*
X224749Y354596D01*
X224946Y354301D01*
X225532Y353715D01*
X225828Y353517D01*
X226176Y353448D01*
X226673D01*
Y351969D01*
X231201D01*
Y354518D01*
X232078Y355396D01*
X234547D01*
Y351083D01*
X236703D01*
X237938Y349848D01*
X238234Y349650D01*
X238583Y349581D01*
X245669D01*
X246018Y349650D01*
X246314Y349848D01*
X247102Y350636D01*
X247539Y350787D01*
X247539Y350787D01*
X249187D01*
Y348609D01*
X249257Y348261D01*
X249454Y347965D01*
X250040Y347379D01*
X250098Y347340D01*
Y340256D01*
X255610D01*
Y348917D01*
X254790D01*
X254523Y349417D01*
X254633Y349582D01*
X254755Y350197D01*
Y350397D01*
X255020Y350787D01*
X257570D01*
X258940Y349417D01*
X258733Y348917D01*
X257972D01*
Y340256D01*
X263484D01*
Y348917D01*
X261119D01*
Y349438D01*
X261050Y349786D01*
X260852Y350082D01*
X258609Y352325D01*
X258563Y352356D01*
Y354357D01*
X259025Y354549D01*
X259563Y354010D01*
X259859Y353813D01*
X260208Y353743D01*
X260728D01*
Y351575D01*
X265256D01*
Y354637D01*
X265718Y354828D01*
X267611Y352935D01*
X267717Y352865D01*
Y350984D01*
X271063D01*
Y354243D01*
X271525Y354435D01*
X273115Y352845D01*
X273410Y352647D01*
X273759Y352578D01*
X274803D01*
Y350984D01*
X278042D01*
X278762Y350264D01*
X278709Y350000D01*
X278832Y349385D01*
X279180Y348865D01*
X279188Y348859D01*
X279036Y348359D01*
X273503D01*
X273327Y348536D01*
Y348917D01*
X272814D01*
X272736Y348950D01*
X268012D01*
X267934Y348917D01*
X267815D01*
Y348868D01*
X267710Y348825D01*
X267586Y348524D01*
Y340650D01*
X267710Y340348D01*
X267815Y340305D01*
Y340256D01*
X267934D01*
X268012Y340224D01*
X277107D01*
X277354Y339723D01*
X277244Y339580D01*
X276946Y338861D01*
X276845Y338090D01*
Y330610D01*
X276946Y329839D01*
X277244Y329121D01*
X277717Y328504D01*
X278334Y328031D01*
X279052Y327733D01*
X279823Y327632D01*
X280594Y327733D01*
X281312Y328031D01*
X281929Y328504D01*
X282402Y329121D01*
X282700Y329839D01*
X282801Y330610D01*
Y337838D01*
X283301Y338045D01*
X285991Y335355D01*
Y329232D01*
X286024Y329154D01*
Y328839D01*
X286339D01*
X286417Y328806D01*
X294291D01*
X294370Y328839D01*
X294685D01*
Y329154D01*
X294718Y329232D01*
Y335439D01*
X294718Y335531D01*
X294718Y335531D01*
X294685Y335925D01*
X294500D01*
X287040Y343385D01*
Y347933D01*
X287008Y348011D01*
Y348346D01*
X286645D01*
X286614Y348359D01*
X281594D01*
X281442Y348859D01*
X281450Y348865D01*
X281798Y349385D01*
X281921Y350000D01*
X281798Y350615D01*
X281450Y351135D01*
X280929Y351483D01*
X280315Y351606D01*
X280050Y351553D01*
X279051Y352552D01*
X278756Y352750D01*
X278407Y352819D01*
X278150D01*
Y355709D01*
X274803D01*
Y354400D01*
X274136D01*
X268345Y360192D01*
X268050Y360389D01*
X267701Y360458D01*
X265256D01*
Y361811D01*
X263903D01*
Y365256D01*
X263834Y365605D01*
X263636Y365900D01*
X259699Y369837D01*
X259404Y370035D01*
X259055Y370104D01*
X246752D01*
X246403Y370035D01*
X246108Y369837D01*
X241875Y365605D01*
X241824Y365528D01*
X241437Y365256D01*
X240675D01*
Y366749D01*
X243656Y369730D01*
X243854Y370025D01*
X243923Y370374D01*
Y373130D01*
X243854Y373479D01*
X243656Y373774D01*
X242377Y375054D01*
X242081Y375251D01*
X241732Y375321D01*
X239944D01*
X236935Y378330D01*
Y392241D01*
X248865Y404171D01*
X249062Y404466D01*
X249132Y404815D01*
Y415248D01*
X250484D01*
Y417618D01*
Y419988D01*
X249132D01*
Y421063D01*
X253248D01*
Y424302D01*
X255369Y426423D01*
X255566Y426718D01*
X255636Y427067D01*
Y430116D01*
X256136Y430304D01*
X256172Y430279D01*
X256594Y430195D01*
X260242D01*
X260433Y429733D01*
X259957Y429258D01*
X259252D01*
X258903Y429188D01*
X258608Y428991D01*
X258040Y428423D01*
X257776Y428476D01*
X257161Y428354D01*
X256640Y428006D01*
X256292Y427485D01*
X256170Y426870D01*
X256292Y426256D01*
X256640Y425735D01*
X257161Y425387D01*
X257776Y425264D01*
X257981Y425305D01*
X258227Y424844D01*
X257321Y423939D01*
X257145Y423974D01*
X256530Y423852D01*
X256009Y423503D01*
X255661Y422983D01*
X255539Y422368D01*
X255661Y421754D01*
X256009Y421233D01*
X256530Y420885D01*
X257145Y420762D01*
X257759Y420885D01*
X258280Y421233D01*
X258628Y421754D01*
X258750Y422368D01*
X258680Y422720D01*
X260562Y424602D01*
X261024Y424410D01*
X261024Y419689D01*
X260962Y419205D01*
X260962D01*
X260962Y419205D01*
D01*
X260736Y418905D01*
X260551Y418905D01*
D01*
X260551D01*
X260551Y418905D01*
X260551Y418905D01*
X258866D01*
Y417035D01*
X260736D01*
Y418405D01*
X260736Y418418D01*
X261236Y418799D01*
X261282Y418799D01*
X261811D01*
Y414272D01*
X266339D01*
Y418799D01*
X271503Y418799D01*
X271522Y418776D01*
Y414854D01*
X269890Y413222D01*
X269890D01*
X269541Y413153D01*
X269245Y412955D01*
X267511Y411221D01*
X264272D01*
Y409646D01*
X262402Y409646D01*
Y409842D01*
X256890D01*
Y409646D01*
X253543D01*
Y379134D01*
X266634Y366043D01*
X274185D01*
X274393Y365543D01*
X274007Y365158D01*
X271260D01*
Y360433D01*
X274606D01*
Y363180D01*
X275771Y364345D01*
X290453D01*
X290802Y364414D01*
X291097Y364612D01*
X292529Y366043D01*
X297514D01*
Y361559D01*
X295616Y359660D01*
X295418Y359364D01*
X295349Y359016D01*
Y358971D01*
X294547Y358865D01*
X293686Y358508D01*
X292945Y357941D01*
X292377Y357200D01*
X292020Y356338D01*
X291899Y355413D01*
X292020Y354488D01*
X292377Y353626D01*
X292945Y352886D01*
X293686Y352318D01*
X294547Y351961D01*
X295472Y351839D01*
X297047D01*
X297972Y351961D01*
X298834Y352318D01*
X299574Y352886D01*
X300142Y353626D01*
X300499Y354488D01*
X300621Y355413D01*
X300499Y356338D01*
X300142Y357200D01*
X299574Y357941D01*
X298834Y358508D01*
X298066Y358826D01*
X297860Y359327D01*
X299069Y360537D01*
X299267Y360832D01*
X299336Y361181D01*
Y366043D01*
X304611D01*
Y332201D01*
X299114D01*
X298807Y332139D01*
X298547Y331965D01*
X298373Y331705D01*
X298311Y331398D01*
Y323933D01*
X215271D01*
Y331398D01*
X215210Y331705D01*
X215036Y331965D01*
X214776Y332139D01*
X214469Y332201D01*
X208578D01*
Y413649D01*
X218371D01*
Y411225D01*
X218371Y411224D01*
X218493Y410610D01*
X218701Y410299D01*
Y403346D01*
X226181D01*
Y411221D01*
X222251D01*
X221582Y411890D01*
Y414278D01*
X232556Y425066D01*
X239143D01*
X239219Y424953D01*
X240603Y423569D01*
X240603Y423569D01*
X241124Y423221D01*
X241738Y423099D01*
X241738Y423099D01*
X242717D01*
X243331Y423221D01*
X243852Y423569D01*
X244200Y424090D01*
X244322Y424705D01*
X244200Y425319D01*
X243852Y425840D01*
X243331Y426188D01*
X242717Y426310D01*
X242403D01*
X241962Y426752D01*
Y429035D01*
X241929Y429114D01*
Y429429D01*
X241614D01*
X241535Y429462D01*
X232558D01*
X221069Y440951D01*
X220768Y441076D01*
X208578D01*
Y442192D01*
X220866D01*
X221015Y442254D01*
X221165Y442314D01*
X232655Y453609D01*
X238847D01*
Y452067D01*
X238969Y451452D01*
X239317Y450932D01*
X239838Y450584D01*
X240453Y450461D01*
X241067Y450584D01*
X241588Y450932D01*
X241936Y451452D01*
X242058Y452067D01*
Y454032D01*
X242060Y454035D01*
Y457579D01*
X242028Y457657D01*
Y457972D01*
X241712D01*
X241634Y458005D01*
X232657D01*
X221732Y468930D01*
Y472807D01*
X222251Y473327D01*
X225787D01*
Y481201D01*
X218307D01*
Y473327D01*
X218520D01*
Y469619D01*
X208578D01*
Y489075D01*
X218701D01*
X237215Y507589D01*
X237226Y517012D01*
X248677D01*
X248885Y516512D01*
D02*
G37*
G36*
X297342Y488976D02*
Y485925D01*
X285686D01*
X285531Y485956D01*
X285377Y485925D01*
X283407D01*
X283366Y486024D01*
Y487402D01*
X283661Y487697D01*
X283858D01*
Y487894D01*
X285335Y489370D01*
Y491813D01*
X289673D01*
X290022Y491883D01*
X290092Y491929D01*
X294390D01*
X297342Y488976D01*
D02*
G37*
G36*
X273917Y490936D02*
Y487697D01*
X278445D01*
Y490918D01*
X278777Y491190D01*
X279224Y490997D01*
Y490461D01*
X281594D01*
Y489961D01*
X282095D01*
Y487136D01*
X282119Y487090D01*
X282080Y487032D01*
X281957Y486417D01*
X282080Y485803D01*
X282428Y485282D01*
X282948Y484934D01*
X283510Y484822D01*
X283667Y484746D01*
X283948Y484465D01*
X283926Y484350D01*
X284048Y483736D01*
X284350Y483284D01*
X284273Y483005D01*
X284142Y482784D01*
X283964D01*
Y480520D01*
X286720D01*
Y482784D01*
X286720Y482784D01*
X286717Y482980D01*
X287149Y483439D01*
X293813D01*
X293891Y483047D01*
X294239Y482526D01*
X294760Y482178D01*
X295374Y482056D01*
X295988Y482178D01*
X296509Y482526D01*
X296858Y483047D01*
X296980Y483661D01*
X296858Y484276D01*
X297135Y484688D01*
X297228Y484721D01*
X297719Y484394D01*
Y473417D01*
X293692Y469390D01*
X290453D01*
Y464862D01*
X291805D01*
Y463916D01*
X291680Y463832D01*
X291332Y463311D01*
X291209Y462697D01*
X291332Y462082D01*
X291680Y461561D01*
X292200Y461213D01*
X292815Y461091D01*
X293429Y461213D01*
X293950Y461561D01*
X294298Y462082D01*
X294421Y462697D01*
X294298Y463311D01*
X293950Y463832D01*
X293628Y464048D01*
Y464862D01*
X294980D01*
Y468101D01*
X295593Y468714D01*
X296055Y468523D01*
Y467626D01*
X298425D01*
X300795D01*
Y469453D01*
X301179Y469776D01*
X302534Y468422D01*
Y458571D01*
X300697D01*
Y456201D01*
Y453831D01*
X302534D01*
Y453226D01*
X302461Y452756D01*
X297933D01*
Y451403D01*
X296850D01*
X296502Y451334D01*
X296206Y451136D01*
X295745Y450676D01*
X295284Y450922D01*
X295297Y450984D01*
X295213Y451407D01*
X295063Y451631D01*
X295007Y451968D01*
X295063Y452306D01*
X295213Y452530D01*
X295297Y452953D01*
X295213Y453375D01*
X294973Y453733D01*
X294615Y453973D01*
X294193Y454057D01*
X289862D01*
X289440Y453973D01*
X289082Y453733D01*
X288842Y453375D01*
X288758Y452953D01*
X288842Y452530D01*
X288992Y452306D01*
X289048Y451968D01*
X288992Y451631D01*
X288842Y451407D01*
X288758Y450984D01*
X288842Y450562D01*
X289082Y450204D01*
Y449796D01*
X288842Y449438D01*
X288758Y449016D01*
X288842Y448593D01*
X288932Y448458D01*
X288665Y447958D01*
X286204D01*
X283223Y450940D01*
X282927Y451137D01*
X282579Y451206D01*
X282533D01*
X282326Y451707D01*
X284896Y454277D01*
X285094Y454573D01*
X285163Y454921D01*
Y455398D01*
X285663Y455665D01*
X285798Y455575D01*
X286221Y455491D01*
X286643Y455575D01*
X287001Y455814D01*
X287240Y456172D01*
X287324Y456595D01*
Y460925D01*
X287240Y461348D01*
X287291Y461846D01*
X287454Y461955D01*
X287802Y462476D01*
X287925Y463091D01*
X287802Y463705D01*
X287454Y464226D01*
X287250Y464362D01*
X287402Y464862D01*
X288386D01*
Y469390D01*
X285663D01*
Y471063D01*
X286614D01*
Y472809D01*
X287992D01*
Y471654D01*
X292520D01*
Y476181D01*
X287992D01*
Y474663D01*
X287945Y474632D01*
X286614D01*
Y476378D01*
X280315D01*
X280315Y476378D01*
X279891Y476561D01*
X279877Y476628D01*
X279680Y476924D01*
X277953Y478651D01*
Y482677D01*
X271654D01*
Y480340D01*
X269980D01*
Y481595D01*
X265453D01*
Y481595D01*
X264986Y481675D01*
Y484367D01*
X268255Y487635D01*
X268776Y487601D01*
X269042Y487197D01*
X268965Y486811D01*
X269087Y486197D01*
X269436Y485676D01*
X269956Y485328D01*
X270571Y485205D01*
X271185Y485328D01*
X271706Y485676D01*
X272054Y486197D01*
X272177Y486811D01*
X272100Y487197D01*
X272428Y487697D01*
X272835D01*
Y491365D01*
X273297Y491557D01*
X273917Y490936D01*
D02*
G37*
G36*
X271654Y477362D02*
X276664D01*
X277080Y476946D01*
X276889Y476484D01*
X275303D01*
Y473721D01*
Y470924D01*
X275414Y470735D01*
X275492Y470457D01*
X275190Y470004D01*
X275068Y469390D01*
X274597Y469193D01*
X271161D01*
Y464665D01*
X273498D01*
Y461510D01*
X273390Y461348D01*
X273306Y460925D01*
Y456595D01*
X273390Y456172D01*
X273498Y456009D01*
Y455413D01*
X273568Y455065D01*
X273765Y454769D01*
X274208Y454326D01*
X274017Y453864D01*
X262106D01*
X262106Y453864D01*
X262106Y453864D01*
X261510D01*
X261348Y453973D01*
X260925Y454057D01*
X256594D01*
X256172Y453973D01*
X255814Y453733D01*
X255575Y453375D01*
X255491Y452953D01*
X255555Y452629D01*
X255312Y452387D01*
X255150Y452298D01*
X255044Y452369D01*
X254429Y452492D01*
X253854Y452377D01*
X253736Y452388D01*
X253354Y452592D01*
Y453945D01*
X251484D01*
Y451575D01*
X250484D01*
Y453945D01*
X248943D01*
Y455020D01*
X253248D01*
Y455678D01*
X261811D01*
X261811Y455678D01*
X262425Y455800D01*
X262946Y456148D01*
X263026Y456228D01*
X263237Y456205D01*
X263599Y456094D01*
X263786Y455814D01*
X264144Y455575D01*
X264567Y455491D01*
X264989Y455575D01*
X265213Y455724D01*
X265551Y455780D01*
X265889Y455724D01*
X266113Y455575D01*
X266535Y455491D01*
X266958Y455575D01*
X267316Y455814D01*
X267555Y456172D01*
X267639Y456595D01*
Y460925D01*
X267555Y461348D01*
X267348Y461657D01*
Y462111D01*
X267279Y462460D01*
X267081Y462755D01*
X265778Y464059D01*
X265985Y464559D01*
X267216D01*
Y466429D01*
X265347D01*
Y465197D01*
X264846Y464990D01*
X263510Y466327D01*
Y476689D01*
X264719Y477899D01*
X264917Y478195D01*
X264953Y478376D01*
X265453Y478327D01*
Y477067D01*
X269980D01*
Y478518D01*
X271654D01*
Y477362D01*
D02*
G37*
G36*
X285115Y464123D02*
X284836Y463705D01*
X284713Y463091D01*
X284836Y462476D01*
X284906Y462370D01*
X284818Y462208D01*
X284576Y461965D01*
X284252Y462029D01*
X283829Y461945D01*
X283606Y461795D01*
X283268Y461739D01*
X282930Y461795D01*
X282706Y461945D01*
X282283Y462029D01*
X281861Y461945D01*
X281503Y461706D01*
X281264Y461348D01*
X281180Y460925D01*
Y456595D01*
X281264Y456172D01*
X281503Y455814D01*
X281861Y455575D01*
X282283Y455491D01*
X282452Y455524D01*
X282959Y455242D01*
X283009Y455176D01*
X283036Y454994D01*
X280914Y452872D01*
X279833D01*
X278885Y453820D01*
X278589Y454018D01*
X278240Y454087D01*
X277024D01*
X276069Y455042D01*
X276316Y455503D01*
X276378Y455491D01*
X276800Y455575D01*
X277158Y455814D01*
X277566D01*
X277924Y455575D01*
X278346Y455491D01*
X278769Y455575D01*
X279127Y455814D01*
X279366Y456172D01*
X279450Y456595D01*
Y460925D01*
X279366Y461348D01*
X279330Y461402D01*
Y461801D01*
X280286Y462757D01*
X282664D01*
X283013Y462826D01*
X283309Y463024D01*
X284726Y464442D01*
X285115Y464123D01*
D02*
G37*
G36*
X244882Y463386D02*
X246949D01*
Y459646D01*
X238189D01*
X234744Y463091D01*
Y466634D01*
X241634D01*
X244882Y463386D01*
D02*
G37*
G36*
X232480Y457579D02*
X241634D01*
Y454035D01*
X232480D01*
X220866Y442618D01*
X208578D01*
Y469193D01*
X220866D01*
X232480Y457579D01*
D02*
G37*
G36*
X275190Y451373D02*
X275156Y450749D01*
X275144Y450742D01*
X274796Y450221D01*
X274674Y449606D01*
X274796Y448992D01*
X275144Y448471D01*
X275665Y448123D01*
X276279Y448001D01*
X276894Y448123D01*
X277232Y448349D01*
X277604Y447978D01*
X277899Y447780D01*
X278248Y447711D01*
X281691D01*
X284057Y445345D01*
X283892Y444802D01*
X283834Y444791D01*
X283313Y444443D01*
X282965Y443922D01*
X282843Y443307D01*
X282965Y442693D01*
X283313Y442172D01*
X283538Y442022D01*
Y440274D01*
X283607Y439926D01*
X283804Y439630D01*
X285209Y438226D01*
X285505Y438028D01*
X285853Y437959D01*
X286246D01*
X286453Y437459D01*
X285835Y436841D01*
X285576Y436668D01*
X285379Y436372D01*
X285309Y436024D01*
X285379Y435675D01*
X285576Y435379D01*
X285872Y435182D01*
X286221Y435112D01*
X286306D01*
X286655Y435182D01*
X286951Y435379D01*
X287865Y436294D01*
X288665D01*
X288676Y436283D01*
X288778Y436132D01*
X288861Y435793D01*
X287443Y434376D01*
X281677D01*
X280045Y436007D01*
Y442908D01*
X280269Y443057D01*
X280617Y443578D01*
X280739Y444193D01*
X280617Y444807D01*
X280269Y445328D01*
X279748Y445676D01*
X279134Y445799D01*
X278519Y445676D01*
X277998Y445328D01*
X277650Y444807D01*
X277528Y444193D01*
X277650Y443578D01*
X277998Y443057D01*
X278223Y442908D01*
Y435630D01*
X278292Y435281D01*
X278489Y434986D01*
X280273Y433203D01*
X280065Y432702D01*
X278921D01*
X278400Y433223D01*
X278105Y433421D01*
X277756Y433490D01*
X272422D01*
X272074Y433421D01*
X271778Y433223D01*
X269557Y431002D01*
X269015Y431167D01*
X269003Y431225D01*
X268655Y431746D01*
X268134Y432094D01*
X268076Y432105D01*
X267912Y432648D01*
X274857Y439593D01*
X275054Y439889D01*
X275124Y440237D01*
Y440447D01*
X275348Y440597D01*
X275696Y441118D01*
X275818Y441732D01*
X275696Y442347D01*
X275348Y442868D01*
X274890Y443174D01*
X274802Y443517D01*
X274784Y443734D01*
X274922Y443890D01*
X275418Y443989D01*
X275939Y444337D01*
X276287Y444858D01*
X276409Y445472D01*
X276287Y446087D01*
X275939Y446608D01*
X275418Y446956D01*
X274803Y447078D01*
X274189Y446956D01*
X273668Y446608D01*
X273320Y446087D01*
X273198Y445472D01*
X273250Y445208D01*
X271304Y443262D01*
X271107Y442967D01*
X271038Y442618D01*
Y440338D01*
X262417Y431717D01*
X261853Y431860D01*
X261706Y432080D01*
X261348Y432319D01*
X260925Y432403D01*
X256594D01*
X256172Y432319D01*
X256136Y432295D01*
X255636Y432482D01*
Y433875D01*
X255988Y434227D01*
X256157D01*
X256172Y434216D01*
X256594Y434132D01*
X260925D01*
X261348Y434216D01*
X261706Y434456D01*
X261945Y434814D01*
X262029Y435236D01*
X261945Y435659D01*
X261855Y435793D01*
X262106Y436294D01*
X262455Y436363D01*
X262751Y436560D01*
X265711Y439521D01*
X265909Y439817D01*
X265978Y440165D01*
Y449874D01*
X265945Y450040D01*
X265915Y450206D01*
X265911Y450213D01*
X265909Y450222D01*
X265815Y450363D01*
X265724Y450505D01*
X264689Y451581D01*
X264885Y452041D01*
X274522D01*
X275190Y451373D01*
D02*
G37*
G36*
X253938Y435461D02*
X254102Y434918D01*
X254080Y434896D01*
X253883Y434601D01*
X253813Y434252D01*
Y431800D01*
X253354Y431701D01*
X253354Y431701D01*
X253354Y431701D01*
X251484D01*
Y429331D01*
Y426961D01*
X252676D01*
X252868Y426499D01*
X251959Y425591D01*
X248721D01*
Y425386D01*
X248258Y425194D01*
X246080Y427372D01*
Y430225D01*
X248341Y432485D01*
X248721Y432776D01*
X253248D01*
Y435419D01*
X253555D01*
X253851Y435478D01*
X253938Y435461D01*
D02*
G37*
G36*
X246949Y434547D02*
X243602Y431201D01*
X236221D01*
X234646Y432776D01*
Y438189D01*
X246949D01*
Y434547D01*
D02*
G37*
G36*
X265059Y425794D02*
X265059Y421063D01*
X263976Y419980D01*
X261811Y419980D01*
X261811Y425000D01*
X262604Y425794D01*
X265059Y425794D01*
D02*
G37*
G36*
X273031Y425394D02*
Y420768D01*
X272244Y419882D01*
X269882D01*
Y424902D01*
X270472Y425492D01*
X272933D01*
X273031Y425394D01*
D02*
G37*
G36*
X284941Y422539D02*
X288189Y419291D01*
Y418110D01*
X284744D01*
X283563Y420709D01*
Y424114D01*
X284941D01*
Y422539D01*
D02*
G37*
G36*
X277145Y420750D02*
X277773D01*
X278543Y419980D01*
Y418799D01*
X278543Y418799D01*
X278346D01*
Y418602D01*
X276575Y416831D01*
X273344D01*
Y418398D01*
X275054Y420108D01*
X275104Y420182D01*
X275689Y420768D01*
X277057D01*
X277145Y420750D01*
D02*
G37*
G36*
X232382Y429035D02*
X241535D01*
Y425492D01*
X232382D01*
X220768Y414075D01*
X208578D01*
Y440650D01*
X220768D01*
X232382Y429035D01*
D02*
G37*
G36*
X296850Y416831D02*
X299490D01*
Y414747D01*
X298130Y413484D01*
Y411024D01*
X297441D01*
Y411221D01*
X295768D01*
Y415945D01*
X296752Y416929D01*
X296850Y416831D01*
D02*
G37*
G36*
X273327Y347933D02*
X286614D01*
Y344882D01*
Y343209D01*
X294291Y335531D01*
Y329232D01*
X286417D01*
Y335531D01*
X282425Y339524D01*
X282402Y339580D01*
X281929Y340196D01*
X281338Y340650D01*
X281312Y340670D01*
X280594Y340967D01*
X279823Y341069D01*
X279052Y340967D01*
X278334Y340670D01*
X278308Y340650D01*
X268012D01*
Y348524D01*
X272736D01*
X273327Y347933D01*
D02*
G37*
%LPC*%
G36*
X296646Y558768D02*
X295071D01*
Y557193D01*
X296646D01*
Y558768D01*
D02*
G37*
G36*
Y556193D02*
X295071D01*
Y554618D01*
X296646D01*
Y556193D01*
D02*
G37*
G36*
X299114Y564567D02*
X295177D01*
Y560630D01*
X297826D01*
X299089Y559367D01*
Y558768D01*
X297646D01*
Y556693D01*
Y554618D01*
X298488D01*
X298696Y554118D01*
X298040Y553462D01*
X297039D01*
X296951Y553445D01*
X293406D01*
Y548917D01*
X297933D01*
Y551640D01*
X298417D01*
X298766Y551709D01*
X299062Y551907D01*
X300644Y553489D01*
X300842Y553785D01*
X300911Y554134D01*
Y559744D01*
X300842Y560093D01*
X300644Y560388D01*
X299114Y561919D01*
Y564567D01*
D02*
G37*
G36*
X270677Y546661D02*
X267921D01*
Y544398D01*
X270677D01*
Y546661D01*
D02*
G37*
G36*
X266921D02*
X264165D01*
Y544398D01*
X266921D01*
Y546661D01*
D02*
G37*
G36*
X272728Y544201D02*
X271350D01*
Y543020D01*
X272728D01*
Y544201D01*
D02*
G37*
G36*
X248630Y542921D02*
X247449D01*
Y541740D01*
X248630D01*
Y542921D01*
D02*
G37*
G36*
X246449D02*
X245268D01*
Y541740D01*
X246449D01*
Y542921D01*
D02*
G37*
G36*
X270677Y543398D02*
X267921D01*
Y541134D01*
X270677D01*
Y543398D01*
D02*
G37*
G36*
X272728Y542020D02*
X271350D01*
Y540839D01*
X272728D01*
Y542020D01*
D02*
G37*
G36*
X289378Y542035D02*
X287508D01*
Y540165D01*
X289378D01*
Y542035D01*
D02*
G37*
G36*
X248630Y540740D02*
X247449D01*
Y539559D01*
X248630D01*
Y540740D01*
D02*
G37*
G36*
X246449D02*
X245268D01*
Y539559D01*
X246449D01*
Y540740D01*
D02*
G37*
G36*
X258260Y540362D02*
X255504D01*
Y538098D01*
X258260D01*
Y540362D01*
D02*
G37*
G36*
X254535Y538984D02*
X253157D01*
Y537803D01*
X254535D01*
Y538984D01*
D02*
G37*
G36*
X252157D02*
X250780D01*
Y537803D01*
X252157D01*
Y538984D01*
D02*
G37*
G36*
X286508Y539165D02*
X284638D01*
Y537295D01*
X286508D01*
Y539165D01*
D02*
G37*
G36*
X254535Y536803D02*
X253157D01*
Y535622D01*
X254535D01*
Y536803D01*
D02*
G37*
G36*
X252157D02*
X250780D01*
Y535622D01*
X252157D01*
Y536803D01*
D02*
G37*
G36*
X262016Y537098D02*
X259260D01*
Y534835D01*
X262016D01*
Y537098D01*
D02*
G37*
G36*
X258260D02*
X255504D01*
Y534835D01*
X258260D01*
Y537098D01*
D02*
G37*
G36*
X254437Y534063D02*
X253256D01*
Y532685D01*
X254437D01*
Y534063D01*
D02*
G37*
G36*
X252256D02*
X251075D01*
Y532685D01*
X252256D01*
Y534063D01*
D02*
G37*
G36*
X246055Y525047D02*
X245031D01*
Y524024D01*
X246055D01*
Y525047D01*
D02*
G37*
G36*
X297173Y508012D02*
Y504732D01*
X298387D01*
Y506398D01*
X298257Y507054D01*
X297885Y507610D01*
X297329Y507981D01*
X297173Y508012D01*
D02*
G37*
G36*
X296173Y508012D02*
X296017Y507981D01*
X295461Y507610D01*
X295090Y507054D01*
X294959Y506398D01*
Y504732D01*
X296173D01*
Y508012D01*
D02*
G37*
G36*
X298387Y503732D02*
X297173D01*
Y500452D01*
X297329Y500483D01*
X297885Y500855D01*
X298257Y501411D01*
X298387Y502067D01*
Y503732D01*
D02*
G37*
G36*
X296173D02*
X294959D01*
Y502067D01*
X295090Y501411D01*
X295461Y500855D01*
X296017Y500483D01*
X296173Y500452D01*
Y503732D01*
D02*
G37*
G36*
X255815Y492429D02*
X253945D01*
Y490559D01*
X255815D01*
Y492429D01*
D02*
G37*
G36*
Y489559D02*
X253945D01*
Y487689D01*
X255815D01*
Y489559D01*
D02*
G37*
G36*
X237902Y481307D02*
X234555D01*
Y477764D01*
X237902D01*
Y481307D01*
D02*
G37*
G36*
X233555D02*
X230209D01*
Y477764D01*
X233555D01*
Y481307D01*
D02*
G37*
G36*
X237902Y476764D02*
X234555D01*
Y473220D01*
X237902D01*
Y476764D01*
D02*
G37*
G36*
X233555D02*
X230209D01*
Y473220D01*
X233555D01*
Y476764D01*
D02*
G37*
G36*
X244579Y458177D02*
X242709D01*
Y456307D01*
X244579D01*
Y458177D01*
D02*
G37*
G36*
Y455307D02*
X242709D01*
Y453437D01*
X244579D01*
Y455307D01*
D02*
G37*
G36*
X242134Y449024D02*
X238689D01*
Y447252D01*
X242134D01*
Y449024D01*
D02*
G37*
G36*
X237689D02*
X234244D01*
Y447252D01*
X237689D01*
Y449024D01*
D02*
G37*
G36*
X242134Y446252D02*
X238689D01*
Y444480D01*
X242134D01*
Y446252D01*
D02*
G37*
G36*
X237689D02*
X234244D01*
Y444480D01*
X237689D01*
Y446252D01*
D02*
G37*
G36*
X244579Y441528D02*
X242709D01*
Y439657D01*
X244579D01*
Y441528D01*
D02*
G37*
G36*
X237591Y420480D02*
X234146D01*
Y418709D01*
X237591D01*
Y420480D01*
D02*
G37*
G36*
X253354Y419988D02*
X251484D01*
Y418118D01*
X253354D01*
Y419988D01*
D02*
G37*
G36*
X257866Y418905D02*
X255996D01*
Y417035D01*
X257866D01*
Y418905D01*
D02*
G37*
G36*
X237591Y417709D02*
X234146D01*
Y415937D01*
X237591D01*
Y417709D01*
D02*
G37*
G36*
X253354Y417118D02*
X251484D01*
Y415248D01*
X253354D01*
Y417118D01*
D02*
G37*
G36*
X260736Y416035D02*
X258866D01*
Y414165D01*
X260736D01*
Y416035D01*
D02*
G37*
G36*
X257866D02*
X255996D01*
Y414165D01*
X257866D01*
Y416035D01*
D02*
G37*
G36*
X234949Y411327D02*
Y407783D01*
X238295D01*
Y411327D01*
X234949D01*
D02*
G37*
G36*
X238295Y406783D02*
X234949D01*
Y403240D01*
X238295D01*
Y406783D01*
D02*
G37*
G36*
X233949D02*
X230602D01*
Y403240D01*
X233949D01*
Y406783D01*
D02*
G37*
G36*
X286614Y363615D02*
X279134D01*
X278833Y363490D01*
X278708Y363189D01*
Y354331D01*
X278833Y354029D01*
X279134Y353905D01*
X282579D01*
X282579Y353905D01*
X282880Y354029D01*
X286804Y357953D01*
X287008D01*
Y358288D01*
X287040Y358366D01*
Y363189D01*
X286915Y363490D01*
X286614Y363615D01*
D02*
G37*
G36*
X300697Y349063D02*
X296760D01*
Y345913D01*
X300697D01*
Y349063D01*
D02*
G37*
G36*
X221465D02*
X217528D01*
Y345913D01*
X221465D01*
Y349063D01*
D02*
G37*
G36*
X295760D02*
X291823D01*
Y345913D01*
X295760D01*
Y349063D01*
D02*
G37*
G36*
X216528D02*
X212591D01*
Y345913D01*
X216528D01*
Y349063D01*
D02*
G37*
G36*
X245874Y349024D02*
X243512D01*
Y345087D01*
X245874D01*
Y349024D01*
D02*
G37*
G36*
X242512D02*
X240150D01*
Y345087D01*
X242512D01*
Y349024D01*
D02*
G37*
G36*
X300697Y344913D02*
X296760D01*
Y341764D01*
X300697D01*
Y344913D01*
D02*
G37*
G36*
X295760D02*
X291823D01*
Y341764D01*
X295760D01*
Y344913D01*
D02*
G37*
G36*
X221465D02*
X217528D01*
Y341764D01*
X221465D01*
Y344913D01*
D02*
G37*
G36*
X216528D02*
X212591D01*
Y341764D01*
X216528D01*
Y344913D01*
D02*
G37*
G36*
X245874Y344087D02*
X243512D01*
Y340150D01*
X245874D01*
Y344087D01*
D02*
G37*
G36*
X242512D02*
X240150D01*
Y340150D01*
X242512D01*
Y344087D01*
D02*
G37*
G36*
X227567Y336032D02*
X223630D01*
Y332882D01*
X227567D01*
Y336032D01*
D02*
G37*
G36*
X222630D02*
X218693D01*
Y332882D01*
X222630D01*
Y336032D01*
D02*
G37*
G36*
X265650Y336931D02*
X264982Y336844D01*
X264359Y336586D01*
X263825Y336175D01*
X263414Y335641D01*
X263156Y335018D01*
X263069Y334350D01*
X263156Y333682D01*
X263414Y333060D01*
X263825Y332525D01*
X264359Y332115D01*
X264982Y331857D01*
X265650Y331769D01*
X266318Y331857D01*
X266940Y332115D01*
X267475Y332525D01*
X267885Y333060D01*
X268143Y333682D01*
X268231Y334350D01*
X268143Y335018D01*
X267885Y335641D01*
X267475Y336175D01*
X266940Y336586D01*
X266318Y336844D01*
X265650Y336931D01*
D02*
G37*
G36*
X247933D02*
X247265Y336844D01*
X246642Y336586D01*
X246108Y336175D01*
X245698Y335641D01*
X245440Y335018D01*
X245352Y334350D01*
X245440Y333682D01*
X245698Y333060D01*
X246108Y332525D01*
X246642Y332115D01*
X247265Y331857D01*
X247933Y331769D01*
X248601Y331857D01*
X249224Y332115D01*
X249758Y332525D01*
X250168Y333060D01*
X250426Y333682D01*
X250514Y334350D01*
X250426Y335018D01*
X250168Y335641D01*
X249758Y336175D01*
X249224Y336586D01*
X248601Y336844D01*
X247933Y336931D01*
D02*
G37*
G36*
X227567Y331882D02*
X223630D01*
Y328732D01*
X227567D01*
Y331882D01*
D02*
G37*
G36*
X222630D02*
X218693D01*
Y328732D01*
X222630D01*
Y331882D01*
D02*
G37*
G36*
X233760Y341069D02*
X232989Y340967D01*
X232271Y340670D01*
X231654Y340196D01*
X231181Y339580D01*
X230883Y338861D01*
X230782Y338090D01*
Y330610D01*
X230883Y329839D01*
X231181Y329121D01*
X231654Y328504D01*
X232271Y328031D01*
X232989Y327733D01*
X233760Y327632D01*
X234531Y327733D01*
X235249Y328031D01*
X235866Y328504D01*
X236339Y329121D01*
X236637Y329839D01*
X236738Y330610D01*
Y338090D01*
X236637Y338861D01*
X236339Y339580D01*
X235866Y340196D01*
X235249Y340670D01*
X234531Y340967D01*
X233760Y341069D01*
D02*
G37*
G36*
X256791Y332901D02*
X256097Y332809D01*
X255449Y332541D01*
X254893Y332115D01*
X254467Y331559D01*
X254198Y330911D01*
X254107Y330217D01*
X254198Y329522D01*
X254467Y328874D01*
X254893Y328318D01*
X255449Y327892D01*
X256097Y327624D01*
X256791Y327532D01*
X257486Y327624D01*
X258134Y327892D01*
X258689Y328318D01*
X259116Y328874D01*
X259384Y329522D01*
X259476Y330217D01*
X259384Y330911D01*
X259116Y331559D01*
X258689Y332115D01*
X258134Y332541D01*
X257486Y332809D01*
X256791Y332901D01*
D02*
G37*
%LPD*%
G36*
X286614Y358366D02*
X282579Y354331D01*
X279134D01*
Y363189D01*
X286614D01*
Y358366D01*
D02*
G37*
%LPC*%
G36*
X281095Y489461D02*
X279224D01*
Y487591D01*
X281095D01*
Y489461D01*
D02*
G37*
G36*
X282964Y482784D02*
X280209D01*
Y480520D01*
X282964D01*
Y482784D01*
D02*
G37*
G36*
X292626Y481996D02*
X290756D01*
Y480126D01*
X292626D01*
Y481996D01*
D02*
G37*
G36*
X289756D02*
X287886D01*
Y480126D01*
X289756D01*
Y481996D01*
D02*
G37*
G36*
X286720Y479520D02*
X283964D01*
Y477256D01*
X286720D01*
Y479520D01*
D02*
G37*
G36*
X282964D02*
X280209D01*
Y477256D01*
X282964D01*
Y479520D01*
D02*
G37*
G36*
X292626Y479126D02*
X290756D01*
Y477256D01*
X292626D01*
Y479126D01*
D02*
G37*
G36*
X289756D02*
X287886D01*
Y477256D01*
X289756D01*
Y479126D01*
D02*
G37*
G36*
X300795Y466626D02*
X298925D01*
Y464756D01*
X300795D01*
Y466626D01*
D02*
G37*
G36*
X297925D02*
X296055D01*
Y464756D01*
X297925D01*
Y466626D01*
D02*
G37*
G36*
X299697Y458571D02*
X297827D01*
Y456701D01*
X299697D01*
Y458571D01*
D02*
G37*
G36*
Y455701D02*
X297827D01*
Y453831D01*
X299697D01*
Y455701D01*
D02*
G37*
G36*
X274303Y476484D02*
X271547D01*
Y474221D01*
X274303D01*
Y476484D01*
D02*
G37*
G36*
X270087Y475992D02*
X268216D01*
Y474122D01*
X270087D01*
Y475992D01*
D02*
G37*
G36*
X267216D02*
X265347D01*
Y474122D01*
X267216D01*
Y475992D01*
D02*
G37*
G36*
X270087Y473122D02*
X268216D01*
Y471252D01*
X270087D01*
Y473122D01*
D02*
G37*
G36*
X267216D02*
X265347D01*
Y471252D01*
X267216D01*
Y473122D01*
D02*
G37*
G36*
X274303Y473220D02*
X271547D01*
Y470957D01*
X274303D01*
Y473220D01*
D02*
G37*
G36*
X270087Y469299D02*
X268216D01*
Y467429D01*
X270087D01*
Y469299D01*
D02*
G37*
G36*
X267216D02*
X265347D01*
Y467429D01*
X267216D01*
Y469299D01*
D02*
G37*
G36*
X270087Y466429D02*
X268216D01*
Y464559D01*
X270087D01*
Y466429D01*
D02*
G37*
G36*
X250484Y431701D02*
X248614D01*
Y429831D01*
X250484D01*
Y431701D01*
D02*
G37*
G36*
Y428831D02*
X248614D01*
Y426961D01*
X250484D01*
Y428831D01*
D02*
G37*
%LPD*%
D20*
X256791Y362992D02*
D03*
X253051D02*
D03*
X249311D02*
D03*
Y353150D02*
D03*
X253051D02*
D03*
X256791D02*
D03*
D21*
X252953Y508169D02*
D03*
Y521949D02*
D03*
Y519980D02*
D03*
Y518012D02*
D03*
Y516043D02*
D03*
Y514075D02*
D03*
Y512106D02*
D03*
Y510138D02*
D03*
X272047Y508169D02*
D03*
Y510138D02*
D03*
Y512106D02*
D03*
Y514075D02*
D03*
Y516043D02*
D03*
Y518012D02*
D03*
Y519980D02*
D03*
Y521949D02*
D03*
D22*
X255610Y505512D02*
D03*
X257579D02*
D03*
X259547D02*
D03*
X261516D02*
D03*
X263484D02*
D03*
X265453D02*
D03*
X267421D02*
D03*
X269390D02*
D03*
Y524606D02*
D03*
X267421D02*
D03*
X265453D02*
D03*
X263484D02*
D03*
X261516D02*
D03*
X259547D02*
D03*
X257579D02*
D03*
X255610D02*
D03*
D23*
X236221Y353445D02*
D03*
X243307D02*
D03*
X239764Y362894D02*
D03*
X272933Y362795D02*
D03*
X276476Y353346D02*
D03*
X269390D02*
D03*
D24*
X237205Y519980D02*
D03*
D25*
X287008Y539665D02*
D03*
X281299D02*
D03*
X291929Y416535D02*
D03*
X297638D02*
D03*
X286319D02*
D03*
X280610D02*
D03*
X258366D02*
D03*
X264075D02*
D03*
X267717Y466929D02*
D03*
X273425D02*
D03*
X269488Y416535D02*
D03*
X275197D02*
D03*
X298425Y467126D02*
D03*
X292717D02*
D03*
X274803Y370079D02*
D03*
X269094D02*
D03*
X289469Y408957D02*
D03*
X295177D02*
D03*
X272244D02*
D03*
X266535D02*
D03*
X280413Y467126D02*
D03*
X286122D02*
D03*
X286811Y370079D02*
D03*
X281102D02*
D03*
X277953Y408957D02*
D03*
X283661D02*
D03*
D26*
X284646Y359921D02*
D03*
Y346378D02*
D03*
D27*
X267717Y473622D02*
D03*
Y479331D02*
D03*
X290256Y479626D02*
D03*
Y473917D02*
D03*
X300197Y456201D02*
D03*
Y450492D02*
D03*
X250984Y446161D02*
D03*
Y440453D02*
D03*
Y451575D02*
D03*
Y457283D02*
D03*
X300197Y427854D02*
D03*
Y433563D02*
D03*
Y439173D02*
D03*
Y444882D02*
D03*
X245079Y442028D02*
D03*
Y436319D02*
D03*
X250984Y429331D02*
D03*
Y435039D02*
D03*
X245079Y455807D02*
D03*
Y461516D02*
D03*
X253445Y490059D02*
D03*
Y495768D02*
D03*
X292618Y489961D02*
D03*
Y495669D02*
D03*
X287894Y545472D02*
D03*
Y551181D02*
D03*
X250984Y417618D02*
D03*
Y423327D02*
D03*
X259646Y473721D02*
D03*
Y479429D02*
D03*
X279921Y545472D02*
D03*
Y551181D02*
D03*
X276181Y489961D02*
D03*
Y495669D02*
D03*
X251969Y479331D02*
D03*
Y473622D02*
D03*
X281594Y489961D02*
D03*
Y495669D02*
D03*
X295669Y551181D02*
D03*
Y545472D02*
D03*
X245571Y490059D02*
D03*
Y495768D02*
D03*
X262303Y489961D02*
D03*
Y495669D02*
D03*
X287106D02*
D03*
Y489961D02*
D03*
X239862Y490059D02*
D03*
Y495768D02*
D03*
X270571Y489961D02*
D03*
Y495669D02*
D03*
X228937Y359941D02*
D03*
Y354232D02*
D03*
X262992Y353839D02*
D03*
Y359547D02*
D03*
D28*
X246555Y519980D02*
D03*
Y523524D02*
D03*
D29*
X242618Y519980D02*
D03*
X239075D02*
D03*
D30*
X281673Y504232D02*
D03*
X286673D02*
D03*
X291673D02*
D03*
X296673D02*
D03*
X281673Y532185D02*
D03*
X286673D02*
D03*
X291673D02*
D03*
X296673D02*
D03*
D31*
X270571Y344587D02*
D03*
X260728D02*
D03*
X252854D02*
D03*
X243012D02*
D03*
D32*
X213484Y427264D02*
D03*
X213583Y455807D02*
D03*
D33*
X238090Y436319D02*
D03*
Y427264D02*
D03*
Y418209D02*
D03*
X238189Y464862D02*
D03*
Y455807D02*
D03*
Y446752D02*
D03*
D34*
X297146Y562598D02*
D03*
Y556693D02*
D03*
X287894D02*
D03*
Y562598D02*
D03*
X278445Y562697D02*
D03*
Y556791D02*
D03*
D35*
X234449Y407283D02*
D03*
X222441D02*
D03*
X234055Y477264D02*
D03*
X222047D02*
D03*
D36*
X292028Y431299D02*
D03*
Y433268D02*
D03*
Y435236D02*
D03*
Y437205D02*
D03*
Y439173D02*
D03*
Y441142D02*
D03*
Y443110D02*
D03*
Y445079D02*
D03*
Y447047D02*
D03*
Y449016D02*
D03*
Y450984D02*
D03*
Y452953D02*
D03*
X258760D02*
D03*
Y450984D02*
D03*
Y449016D02*
D03*
Y447047D02*
D03*
Y445079D02*
D03*
Y443110D02*
D03*
Y441142D02*
D03*
Y439173D02*
D03*
Y437205D02*
D03*
Y435236D02*
D03*
Y433268D02*
D03*
Y431299D02*
D03*
D37*
X286221Y458760D02*
D03*
X284252D02*
D03*
X282283D02*
D03*
X280315D02*
D03*
X278346D02*
D03*
X276378D02*
D03*
X274410D02*
D03*
X272441D02*
D03*
X270472D02*
D03*
X268504D02*
D03*
X266535D02*
D03*
X264567D02*
D03*
Y425492D02*
D03*
X266535D02*
D03*
X268504D02*
D03*
X270472D02*
D03*
X272441D02*
D03*
X274410D02*
D03*
X276378D02*
D03*
X278346D02*
D03*
X280315D02*
D03*
X282283D02*
D03*
X284252D02*
D03*
X286221D02*
D03*
D38*
X258760Y537598D02*
D03*
Y543898D02*
D03*
X267421Y537598D02*
D03*
Y543898D02*
D03*
X283465Y480020D02*
D03*
Y473721D02*
D03*
X274803Y480020D02*
D03*
Y473721D02*
D03*
D39*
X246949Y537303D02*
D03*
Y541240D02*
D03*
D40*
X256693Y532185D02*
D03*
X252756D02*
D03*
D41*
X245965Y509842D02*
D03*
Y513779D02*
D03*
X273228Y538583D02*
D03*
Y542520D02*
D03*
X252658Y537303D02*
D03*
Y541240D02*
D03*
D42*
X291142Y378937D02*
D03*
X278937D02*
D03*
X263189D02*
D03*
X259646Y404528D02*
D03*
D75*
X233760Y334350D02*
D03*
X279823D02*
D03*
D76*
X259547Y528740D02*
Y529331D01*
X266535Y500787D02*
X270571Y496752D01*
X236122Y360531D02*
Y362008D01*
X231102Y367028D02*
X236122Y362008D01*
X227740Y367028D02*
X231102D01*
X225590Y357776D02*
Y366142D01*
Y354945D02*
Y357776D01*
X217323Y369685D02*
X222047D01*
X214075Y372933D02*
X217323Y369685D01*
X226176Y354359D02*
X228810D01*
X225590Y354945D02*
X226176Y354359D01*
X222047Y369685D02*
X225590Y366142D01*
X228810Y354359D02*
X228937Y354232D01*
X236122Y360531D02*
X237106Y359547D01*
X223311Y371457D02*
Y387055D01*
X237106Y359547D02*
X241142D01*
X223311Y371457D02*
X227740Y367028D01*
X229331Y412022D02*
Y412697D01*
X227953Y410644D02*
X229331Y412022D01*
Y412697D02*
X229906D01*
X229913Y412705D01*
X227953Y402864D02*
Y410644D01*
X226566Y401476D02*
X227953Y402864D01*
X215551Y401476D02*
X226566D01*
X212303Y398228D02*
X215551Y401476D01*
X253396Y467913D02*
X255709Y465600D01*
X252658Y467913D02*
X253396D01*
X278346Y556693D02*
X278937D01*
X275689Y553445D02*
X278937Y556693D01*
X255709Y460728D02*
X257480D01*
X247441Y468996D02*
X255709Y460728D01*
X247441Y468996D02*
Y484744D01*
X258563Y464075D02*
X259744Y465256D01*
Y473622D01*
X248917Y471654D02*
X252658Y467913D01*
X259646Y473721D02*
X259744Y473622D01*
X262598Y477067D02*
X264075Y478543D01*
X262016Y476484D02*
X262598Y477067D01*
Y465950D02*
Y477067D01*
Y465950D02*
X266437Y462111D01*
X282068Y448622D02*
X285611Y445079D01*
X278248Y448622D02*
X282068D01*
X277264Y449606D02*
X278248Y448622D01*
X282579Y450295D02*
X285827Y447047D01*
X279150Y450295D02*
X282579D01*
X277663Y451782D02*
X279150Y450295D01*
X285827Y447047D02*
X292028D01*
X276279Y449606D02*
X277264D01*
X253543Y495866D02*
X254429Y494980D01*
X236024Y392618D02*
X248220Y404815D01*
X243012Y370374D02*
Y373130D01*
X239764Y367126D02*
X243012Y370374D01*
X239764Y362894D02*
Y367126D01*
X241732Y374410D02*
X243012Y373130D01*
X239567Y374410D02*
X241732D01*
X236024Y377953D02*
X239567Y374410D01*
X236024Y377953D02*
Y392618D01*
X227559Y386811D02*
X234055Y393307D01*
X226230Y385482D02*
X227559Y386811D01*
X226230Y385482D02*
X233366Y378346D01*
X217028Y355413D02*
Y367126D01*
X212303Y371850D02*
X217028Y367126D01*
X212303Y371850D02*
Y398228D01*
X240158Y352953D02*
X243307D01*
X229064Y354302D02*
X229696D01*
X214075Y372933D02*
Y382087D01*
X217618Y385630D01*
X233366Y373917D02*
Y378346D01*
X234055Y393307D02*
X245669Y404921D01*
X227264Y395571D02*
X231201Y399508D01*
X227264Y395079D02*
Y395571D01*
X237008Y399508D02*
X243307Y405807D01*
X231201Y399508D02*
X237008D01*
X245669Y404921D02*
Y419488D01*
X219035Y395335D02*
X219293Y395077D01*
Y391074D02*
Y395077D01*
Y391074D02*
X223311Y387055D01*
X224705Y372933D02*
Y392520D01*
Y372933D02*
X228551Y369087D01*
X233366Y373917D02*
X235433Y371850D01*
X228551Y369087D02*
X237591D01*
X224705Y392520D02*
X227264Y395079D01*
X268110Y398622D02*
X274902D01*
X263189Y393701D02*
X268110Y398622D01*
X263189Y378937D02*
Y393701D01*
X280898Y404618D02*
Y411197D01*
X274902Y398622D02*
X280898Y404618D01*
X282283Y419866D02*
Y425492D01*
Y419866D02*
X283374Y418776D01*
Y413673D02*
Y418776D01*
X280898Y411197D02*
X283374Y413673D01*
X283661Y408957D02*
X289469D01*
X294685Y408465D02*
X295177Y408957D01*
X294685Y404134D02*
Y408465D01*
X291142Y400591D02*
X294685Y404134D01*
X291142Y378937D02*
Y400591D01*
X293504Y397638D02*
X299508Y403642D01*
X293504Y386713D02*
Y397638D01*
Y386713D02*
X295374Y384842D01*
X291929Y416535D02*
Y421654D01*
X288583Y425000D02*
X291929Y421654D01*
X288583Y425000D02*
Y427732D01*
X286886Y429429D02*
X288583Y427732D01*
X294685Y409449D02*
X295177Y408957D01*
X294685Y409449D02*
Y414287D01*
X294693Y414295D01*
Y424109D01*
X287010Y431791D02*
X294693Y424109D01*
X278543Y431791D02*
X287010D01*
X279331Y429429D02*
X286886D01*
X277756Y432579D02*
X278543Y431791D01*
X281299Y433465D02*
X287821D01*
X279134Y435630D02*
X281299Y433465D01*
X268504Y425492D02*
X268550Y425539D01*
Y428707D01*
X272422Y432579D01*
X277756D01*
X263189Y378937D02*
X264075Y378051D01*
X266634D01*
X269094Y370079D02*
Y375591D01*
X266634Y378051D02*
X269094Y375591D01*
X274803Y370079D02*
X281102D01*
X237870Y356307D02*
X238976Y355201D01*
Y354134D02*
Y355201D01*
Y354134D02*
X240158Y352953D01*
X231701Y356307D02*
X237870D01*
X243307Y352953D02*
Y353445D01*
X276476Y352687D02*
Y353346D01*
Y352687D02*
X277256Y351908D01*
X278407D01*
X280315Y350000D01*
X257454Y358571D02*
X258669Y357355D01*
Y356193D02*
Y357355D01*
Y356193D02*
X260208Y354654D01*
X237591Y369087D02*
X240453Y371949D01*
X235433Y371850D02*
X236614D01*
X251995Y357768D02*
X254009D01*
X251192Y358571D02*
X251995Y357768D01*
X247941Y358571D02*
X251192D01*
X252854Y359842D02*
X253051D01*
X253100Y359892D01*
X249410Y356398D02*
X249676D01*
X249936Y356137D01*
Y353775D02*
Y356137D01*
X253051Y362992D02*
X253100Y362943D01*
X254812Y358571D02*
X257454D01*
X254009Y357768D02*
X254812Y358571D01*
X244488Y364080D02*
X247338Y366929D01*
X244488Y360236D02*
Y364080D01*
X242028Y357776D02*
X244488Y360236D01*
X231102Y357776D02*
X242028D01*
X228937Y359941D02*
X231102Y357776D01*
X229696Y354302D02*
X231701Y356307D01*
X241142Y359547D02*
X242520Y360925D01*
Y364961D01*
X246752Y369193D01*
X260063Y357472D02*
Y364331D01*
X247338Y366929D02*
X257465D01*
X260063Y364331D01*
X262992Y359547D02*
Y365256D01*
X259055Y369193D02*
X262992Y365256D01*
X246752Y369193D02*
X259055D01*
X245169Y426995D02*
X248220Y423944D01*
Y404815D02*
Y423944D01*
X249311Y353150D02*
X250098Y352362D01*
X252854Y344587D02*
Y346161D01*
X250992Y348024D02*
X252854Y346161D01*
X250684Y348024D02*
X250992D01*
X250098Y348609D02*
X250684Y348024D01*
X250098Y348609D02*
Y352362D01*
X249311Y353150D02*
X249936Y353775D01*
X256102Y353248D02*
Y356496D01*
X246493Y357123D02*
X247941Y358571D01*
X260063Y357472D02*
X260752Y356784D01*
X260208Y354654D02*
X262176D01*
X246493Y351316D02*
Y357123D01*
X265051Y356784D02*
X268255Y353580D01*
X260752Y356784D02*
X265051D01*
X262176Y354654D02*
X262992Y353839D01*
X295374Y370177D02*
Y384842D01*
X290453Y365256D02*
X295374Y370177D01*
X275394Y365256D02*
X290453D01*
X299508Y403642D02*
Y413402D01*
X243307Y420177D02*
X245669Y422539D01*
X243307Y405807D02*
Y420177D01*
X262922Y405343D02*
X266535Y408957D01*
X260461Y405343D02*
X262922D01*
X259646Y404528D02*
X260461Y405343D01*
X266535Y408957D02*
X269890Y412311D01*
X272244Y408957D02*
X276033Y412746D01*
X302071Y387110D02*
Y412890D01*
X298425Y383465D02*
X302071Y387110D01*
X298425Y361181D02*
Y383465D01*
X275689Y536925D02*
Y553445D01*
X281496Y552953D02*
Y559646D01*
X281095Y552551D02*
X281496Y552953D01*
X278445Y562697D02*
X281496Y559646D01*
X272244Y531496D02*
X277083Y536335D01*
Y547638D01*
X277681Y548236D01*
X273520Y534756D02*
X275689Y536925D01*
X272933Y362795D02*
X275394Y365256D01*
X255610Y524606D02*
Y526870D01*
X254224Y528256D02*
X255610Y526870D01*
X247706Y528256D02*
X254224D01*
X254831Y529913D02*
X257579Y527165D01*
X249713Y529913D02*
X254831D01*
X257579Y524606D02*
Y527165D01*
X259547Y525197D02*
Y528740D01*
X261516Y524606D02*
Y526870D01*
X259646Y528740D02*
X261516Y526870D01*
X269807Y500378D02*
X270866D01*
X270472Y501870D02*
X272342D01*
X269390Y502953D02*
X270472Y501870D01*
X272342D02*
X275000Y504528D01*
X269390Y502953D02*
Y505512D01*
X270866Y500378D02*
X273024Y498220D01*
X267421Y502764D02*
X269807Y500378D01*
X265461Y501862D02*
X266535Y500787D01*
X270571Y495669D02*
Y496752D01*
X273024Y498220D02*
X273138D01*
X263484Y500492D02*
X267724Y496252D01*
X263484Y500492D02*
Y505512D01*
X261622Y501287D02*
Y503025D01*
X259055Y498721D02*
X261622Y501287D01*
X267421Y502764D02*
Y505512D01*
X265453Y503165D02*
Y505512D01*
Y503165D02*
X265461Y503158D01*
Y501862D02*
Y503158D01*
X267724Y488394D02*
Y496252D01*
X257472Y503025D02*
X257579Y503131D01*
X257472Y501684D02*
Y503025D01*
X255709Y478642D02*
Y478735D01*
X256882Y479909D01*
Y481669D01*
X259055Y483843D01*
X260449Y484268D02*
X262106Y485925D01*
X260449Y481616D02*
Y484268D01*
X259632Y480799D02*
X260449Y481616D01*
X259449Y480799D02*
X259632D01*
X259449Y479429D02*
Y480799D01*
X261516Y503131D02*
Y505512D01*
Y503131D02*
X261622Y503025D01*
X259055Y483843D02*
Y498721D01*
X254429Y494980D02*
X256791D01*
X263090Y494882D02*
X265650D01*
X262303Y495669D02*
X263090Y494882D01*
X259547Y502854D02*
Y505512D01*
X255289Y499500D02*
X257472Y501684D01*
X257579Y503131D02*
Y505512D01*
X239862Y495768D02*
X243398Y499303D01*
Y500859D01*
X248327Y505789D01*
Y509154D01*
X248811Y509638D02*
X249777D01*
X250277Y510138D02*
X252953D01*
X249777Y509638D02*
X250277Y510138D01*
X248327Y509154D02*
X248811Y509638D01*
X249902Y512106D02*
X252953D01*
X250590Y508169D02*
X252953D01*
X249902Y507480D02*
X250590Y508169D01*
X249902Y506890D02*
Y507480D01*
Y506890D02*
X250886Y505905D01*
X248917Y511713D02*
X249705D01*
X250000Y512008D01*
X249705Y516043D02*
X252953D01*
X247944Y514283D02*
X249705Y516043D01*
X246960Y514283D02*
X247944D01*
X250021Y525467D02*
X250492D01*
X248917Y524364D02*
X250021Y525467D01*
X248917Y522736D02*
Y524364D01*
X249705Y521949D02*
X252953D01*
X248917Y522736D02*
X249705Y521949D01*
X269390Y524606D02*
Y527564D01*
X269976Y528150D02*
X276895D01*
X269390Y527564D02*
X269976Y528150D01*
X274311Y529921D02*
X276181Y531791D01*
X273013Y529921D02*
X274311D01*
X273005Y529913D02*
X273013Y529921D01*
X268791Y529913D02*
X273005D01*
X276181Y531791D02*
Y531890D01*
X267421Y528543D02*
X268791Y529913D01*
X267421Y524606D02*
Y528543D01*
X276056Y522513D02*
Y524008D01*
X275500Y521957D02*
X276056Y522513D01*
X272554Y521957D02*
X275500D01*
X277551Y521744D02*
X282079D01*
X275787Y519980D02*
X277551Y521744D01*
X272047Y519980D02*
X275787D01*
X276304Y514575D02*
X285333D01*
X276200Y512500D02*
X284350D01*
X274894Y511194D02*
X276200Y512500D01*
X273835Y512106D02*
X276304Y514575D01*
X274894Y510622D02*
Y511194D01*
X272047Y512106D02*
X273835D01*
X274409Y510138D02*
X274894Y510622D01*
X272047Y510138D02*
X274409D01*
X276969Y509842D02*
Y510335D01*
X275295Y508169D02*
X276969Y509842D01*
X272047Y508169D02*
X275295D01*
X255610Y435138D02*
X256201D01*
X254724Y434252D02*
X255610Y435138D01*
X254724Y431545D02*
Y434252D01*
X284449Y443110D02*
X292028D01*
X255709Y441142D02*
X258760D01*
X255409Y440842D02*
X255709Y441142D01*
X254425Y440842D02*
X255409D01*
X256238Y439086D02*
X256405D01*
X255012Y437860D02*
X256238Y439086D01*
X285611Y445079D02*
X292028D01*
X289593Y435236D02*
X292028D01*
X287821Y433465D02*
X289593Y435236D01*
X300410Y471835D02*
X303445Y468799D01*
Y423024D02*
Y468799D01*
X302067Y421646D02*
X303445Y423024D01*
X297146Y562598D02*
X300000Y559744D01*
Y554134D02*
Y559744D01*
X298417Y552551D02*
X300000Y554134D01*
X287487Y437205D02*
X292028D01*
X286306Y436024D02*
X287487Y437205D01*
X286221Y436024D02*
X286306D01*
X279134Y435630D02*
Y444193D01*
X289461Y561524D02*
X290650Y560335D01*
Y553937D02*
Y560335D01*
X287894Y551181D02*
X290650Y553937D01*
X279626Y551181D02*
X280996Y552551D01*
X284842Y553740D02*
X287795Y556693D01*
X284842Y550394D02*
Y553740D01*
X282685Y548236D02*
X284842Y550394D01*
X278607Y498657D02*
X281594Y495669D01*
X278607Y498657D02*
Y499050D01*
X278346Y499311D02*
X278607Y499050D01*
X281594Y495669D02*
X287106D01*
X294685Y484350D02*
X295374Y483661D01*
X285531Y484350D02*
X294685D01*
X284768Y492724D02*
X289673D01*
X284760Y492717D02*
X284768Y492724D01*
X283843Y492717D02*
X284760D01*
X283835Y492724D02*
X283843Y492717D01*
X278945Y492724D02*
X283835D01*
X248031Y451279D02*
Y464370D01*
X254331Y440748D02*
X254425Y440842D01*
X255012Y437780D02*
Y437860D01*
X254931Y437780D02*
X255012D01*
X254747Y437595D02*
X254931Y437780D01*
X248031Y433465D02*
Y444087D01*
X245169Y430602D02*
X248031Y433465D01*
X256405Y439086D02*
X256492Y439173D01*
X254528Y443110D02*
X258760D01*
X254429Y443209D02*
X254528Y443110D01*
X247843Y444087D02*
X248031D01*
X247843D02*
Y444268D01*
X247319Y444791D02*
X247843Y444268D01*
X245829Y444791D02*
X247319D01*
X245739Y444882D02*
X245829Y444791D01*
X245472Y444882D02*
X245739D01*
X244094Y446260D02*
X245472Y444882D01*
X244094Y446260D02*
Y448327D01*
X245284Y449516D01*
X285853Y438870D02*
X287572D01*
X284449Y440274D02*
X285853Y438870D01*
X287875Y439173D02*
X292028D01*
X287572Y438870D02*
X287875Y439173D01*
X286910Y441142D02*
X292028D01*
X242224Y507776D02*
Y511417D01*
X243905Y513098D01*
X296260Y359016D02*
X298425Y361181D01*
X302067Y412894D02*
Y421646D01*
Y412894D02*
X302071Y412890D01*
X296555Y422933D02*
X300402Y419087D01*
Y414295D02*
Y419087D01*
X299508Y413402D02*
X300402Y414295D01*
X296555Y422933D02*
Y433661D01*
X270571Y486811D02*
Y489961D01*
Y486319D02*
Y486811D01*
X262106D02*
Y489961D01*
Y485925D02*
Y486811D01*
X239862Y486221D02*
Y490059D01*
X239665Y486024D02*
X239862Y486221D01*
X243905Y513098D02*
X245087D01*
X245768Y513779D02*
X245965D01*
X245087Y513098D02*
X245768Y513779D01*
X257145Y422473D02*
X265445Y430774D01*
X257145Y422368D02*
Y422473D01*
X284449Y443110D02*
Y443307D01*
Y440274D02*
Y443110D01*
X286713Y440945D02*
X286910Y441142D01*
X275197Y430118D02*
Y430413D01*
Y430118D02*
X276378Y428937D01*
Y425492D02*
Y428937D01*
X280315Y422542D02*
Y425492D01*
X279434Y421661D02*
X280315Y422542D01*
X277145Y421661D02*
X279434D01*
X276450Y422356D02*
Y425420D01*
Y422356D02*
X277145Y421661D01*
X276378Y425492D02*
X276450Y425420D01*
X274410Y420752D02*
Y425492D01*
X272433Y418776D02*
X274410Y420752D01*
X272433Y414476D02*
Y418776D01*
X260335Y428346D02*
X271949Y439961D01*
X259252Y428346D02*
X260335D01*
X257776Y426870D02*
X259252Y428346D01*
X271949Y439961D02*
Y442618D01*
X265445Y431470D02*
X274213Y440237D01*
X265445Y430774D02*
Y431470D01*
X274213Y440237D02*
Y441732D01*
X266535Y425492D02*
Y429395D01*
X267520Y430379D01*
Y430610D01*
X295965Y444291D02*
Y449606D01*
X296850Y450492D02*
X300197D01*
X295965Y449606D02*
X296850Y450492D01*
X294856Y443183D02*
X295965Y444291D01*
X292100Y443183D02*
X294856D01*
X273425Y466929D02*
X274795Y468299D01*
X275406D01*
X276497Y469390D01*
X276673D01*
X246829Y529134D02*
X247706Y528256D01*
X246949Y532677D02*
X249713Y529913D01*
X246555Y529134D02*
X246829D01*
X245169Y426995D02*
Y430602D01*
X245284Y449516D02*
X246268D01*
X248031Y451279D01*
X242807Y469594D02*
X248031Y464370D01*
X242807Y469594D02*
Y493004D01*
X254232Y437008D02*
X254747Y437522D01*
X253555Y436330D02*
X254232Y437008D01*
X256492Y439173D02*
X258760D01*
X254747Y437522D02*
Y437595D01*
X250984Y435039D02*
X252275Y436330D01*
X253555D01*
X245571Y471949D02*
Y490059D01*
X244882Y471260D02*
X245571Y471949D01*
X248917Y484154D02*
X250681Y485917D01*
X248917Y471654D02*
Y484154D01*
X250681Y485917D02*
Y498008D01*
X247441Y484744D02*
X248622Y485925D01*
Y498425D01*
X296260Y355374D02*
Y359016D01*
X251969Y473622D02*
X252178Y473832D01*
X254753D01*
X257405Y476484D01*
X262016D01*
X264075Y478543D02*
Y484744D01*
X254518Y502549D02*
X254528Y502559D01*
X252746Y502549D02*
X254518D01*
X248622Y498425D02*
X252746Y502549D01*
X255610Y503826D02*
Y505512D01*
X254528Y502743D02*
X255610Y503826D01*
X254528Y502559D02*
Y502743D01*
X264075Y484744D02*
X267724Y488394D01*
X253445Y495768D02*
X253543Y495866D01*
X252173Y499500D02*
X255289D01*
X250681Y498008D02*
X252173Y499500D01*
X245571Y495768D02*
Y499902D01*
X245472Y500000D02*
X245571Y499902D01*
X242807Y493004D02*
X245571Y495768D01*
X266437Y461291D02*
Y462111D01*
X266463Y458832D02*
X266535Y458760D01*
X266463Y458832D02*
Y461265D01*
X266437Y461291D02*
X266463Y461265D01*
X275295Y480020D02*
X279035Y476280D01*
Y468504D02*
Y476280D01*
Y468504D02*
X280413Y467126D01*
X267618Y479429D02*
X272441D01*
X280716Y499992D02*
X293807D01*
X279232Y501476D02*
X280716Y499992D01*
X277272Y524205D02*
Y524516D01*
X277165Y524098D02*
X277272Y524205D01*
X268602Y532237D02*
Y532283D01*
X271075Y534756D01*
X272146Y531595D02*
Y531988D01*
Y531595D02*
X272244Y531496D01*
X276147Y524098D02*
X277165D01*
X297218Y496661D02*
X300410Y493470D01*
Y471835D02*
Y493470D01*
X292717Y467126D02*
X298630Y473039D01*
X292618Y495669D02*
X298630Y489657D01*
Y473039D02*
Y489657D01*
X289673Y492724D02*
X292618Y495669D01*
X277953Y504232D02*
X281673D01*
X274016Y500295D02*
X277953Y504232D01*
X273917Y500295D02*
X274016D01*
X277676Y501476D02*
X279232D01*
X291929Y496358D02*
X292618Y495669D01*
X276181Y489961D02*
X278945Y492724D01*
X293807Y499992D02*
X297138Y496661D01*
X297218D01*
X249902Y512106D02*
X250000Y512008D01*
X279331Y516043D02*
X291673Y528386D01*
X272047Y516043D02*
X279331D01*
X285333Y514575D02*
X291644Y508264D01*
X273917Y500295D02*
X274178Y500556D01*
X273138Y498220D02*
X273417Y497941D01*
X281004Y524225D02*
X286673Y529894D01*
X281004Y524114D02*
Y524225D01*
X271949Y442618D02*
X274803Y445472D01*
X284646Y359921D02*
X285039D01*
X268255Y353580D02*
X269157D01*
X254429Y443209D02*
Y443996D01*
X269890Y412311D02*
X270268D01*
X262106Y437205D02*
X265067Y440165D01*
X258760Y437205D02*
X262106D01*
X295053Y435164D02*
X296555Y433661D01*
X292100Y435164D02*
X295053D01*
X297369Y443512D02*
X298827D01*
X294999Y441142D02*
X297369Y443512D01*
X294587Y439173D02*
X300197Y433563D01*
X292028Y439173D02*
X294587D01*
X292028Y441142D02*
X294999D01*
X277652Y501453D02*
X277676Y501476D01*
X277535Y501453D02*
X277652D01*
X276181Y500098D02*
X277535Y501453D01*
X276181Y495669D02*
Y500098D01*
X278346Y499311D02*
X278937D01*
X280992Y505508D02*
X281044Y505560D01*
X273417Y492724D02*
Y497941D01*
X279455Y451961D02*
X281291D01*
X284252Y454921D01*
X276069Y451782D02*
X277663D01*
X274899Y452953D02*
X276069Y451782D01*
X276647Y453176D02*
X278240D01*
X274410Y455413D02*
X276647Y453176D01*
X262106Y452953D02*
X274899D01*
X278240Y453176D02*
X279455Y451961D01*
X277681Y548236D02*
X282685D01*
X287795Y556693D02*
X287894D01*
X277461Y556693D02*
X278346D01*
X269657Y496584D02*
X270571Y495669D01*
X276056Y524008D02*
X276147Y524098D01*
X282079Y521744D02*
X289075Y528740D01*
X265453Y535433D02*
X267618Y537598D01*
X265453Y524606D02*
Y535433D01*
X271075Y534756D02*
X273520D01*
X278346Y556693D02*
X278445Y556791D01*
X286221Y458760D02*
X286293Y458832D01*
Y461265D01*
X286319Y461291D01*
Y463091D01*
X292717Y462795D02*
Y467126D01*
Y462795D02*
X292815Y462697D01*
X292028Y435236D02*
X292100Y435164D01*
X246949Y532677D02*
Y537303D01*
X254528Y450984D02*
X258760D01*
X254429Y450886D02*
X254528Y450984D01*
X286673Y529894D02*
Y532185D01*
X285728Y508391D02*
X286673Y507446D01*
Y504232D02*
Y507446D01*
X291644Y504262D02*
X291673Y504232D01*
X291644Y504262D02*
Y508264D01*
X289075Y528740D02*
Y535335D01*
X290650Y536909D01*
X293341D01*
X296673Y533578D01*
Y532185D02*
Y533578D01*
X291673Y528386D02*
Y532185D01*
X281673Y504232D02*
Y504931D01*
X281044Y505560D02*
X281673Y504931D01*
X272047Y521949D02*
X272546D01*
X272554Y521957D01*
X277867Y518996D02*
X278150D01*
X276883Y518012D02*
X277867Y518996D01*
X254429Y447047D02*
X258760D01*
X262106Y452953D02*
X265067Y449874D01*
X262106Y452953D02*
X262106Y452953D01*
X258760D02*
X262106D01*
X265067Y440165D02*
Y449874D01*
X258760Y445079D02*
X262992D01*
X262992Y445079D01*
X272047Y518012D02*
X276883D01*
X273759Y353489D02*
X276334D01*
X267701Y359547D02*
X273759Y353489D01*
X262992Y359547D02*
X267701D01*
X260208Y344910D02*
Y349438D01*
X257965Y351681D02*
X260208Y349438D01*
X257669Y351681D02*
X257965D01*
X256102Y353248D02*
X257669Y351681D01*
X245669Y350492D02*
X246493Y351316D01*
X238583Y350492D02*
X245669D01*
X254424Y542134D02*
X257193D01*
X254212Y541921D02*
X254424Y542134D01*
X273417Y492724D02*
X276181Y489961D01*
X246555Y519980D02*
X252953D01*
X269157Y353580D02*
X269390Y353346D01*
X236221Y352756D02*
Y353445D01*
Y352756D02*
X237000Y351976D01*
X237098D01*
X238583Y350492D01*
X236221Y353445D02*
X237000Y352665D01*
X276334Y353489D02*
X276476Y353346D01*
X260208Y344910D02*
X260531Y344587D01*
X297039Y552551D02*
X298417D01*
X295669Y551181D02*
X297039Y552551D01*
X287894Y562598D02*
X288968Y561524D01*
X289461D01*
X280996Y552551D02*
X281095D01*
X258760Y435236D02*
Y437205D01*
X286673Y532185D02*
Y534213D01*
X263484Y524606D02*
Y540748D01*
X258957Y543898D02*
X260720Y542134D01*
X262098D01*
X263484Y540748D01*
X257571Y531307D02*
X259547Y529331D01*
X257374Y531307D02*
X257571D01*
X257193Y542134D02*
X258957Y543898D01*
X252854Y541240D02*
X253535Y541921D01*
X254212D01*
X268701Y538681D02*
X273622D01*
X267618Y537598D02*
X268701Y538681D01*
X252953Y516043D02*
Y518012D01*
X246457Y513779D02*
X246960Y514283D01*
X256693Y531988D02*
Y532185D01*
Y531988D02*
X257374Y531307D01*
X292028Y450984D02*
Y452953D01*
Y449016D02*
Y450984D01*
Y447047D02*
Y449016D01*
X254724Y427067D02*
Y431545D01*
X254971Y431299D02*
X258760D01*
X254724Y431545D02*
X254971Y431299D01*
X250984Y423327D02*
X254724Y427067D01*
X264891Y419320D02*
X266535Y420965D01*
Y425492D01*
X264075Y416535D02*
X264891Y417351D01*
Y419320D01*
X258760Y439173D02*
X258760Y439173D01*
X298827Y443512D02*
X300197Y444882D01*
X292028Y443110D02*
X292100Y443183D01*
X274410Y458760D02*
Y465945D01*
X273425Y466929D02*
X274410Y465945D01*
Y455413D02*
Y458760D01*
X284252Y454921D02*
Y458760D01*
X284180Y458687D02*
X284252Y458760D01*
X278346D02*
X278419Y458832D01*
Y462179D01*
X279908Y463668D01*
X276378Y463091D02*
X280413Y467126D01*
X276378Y458760D02*
Y463091D01*
X273031Y480020D02*
X273524D01*
X272441Y479429D02*
X273031Y480020D01*
X282185Y473721D02*
X288287D01*
X281693D02*
X282185D01*
X288287D02*
X288484Y473917D01*
X284752Y468496D02*
X286122Y467126D01*
X284752Y468496D02*
Y471154D01*
X282185Y473721D02*
X284752Y471154D01*
X278346Y458760D02*
Y461027D01*
X279908Y463668D02*
X282664D01*
X286122Y467126D01*
X278346Y425492D02*
X278419Y425564D01*
Y428517D01*
X279331Y429429D01*
X276033Y412746D02*
X276821D01*
X280610Y416535D01*
X270268Y412311D02*
X272433Y414476D01*
D77*
X277264Y390748D02*
X280020D01*
X241738Y424705D02*
X242717D01*
X286811Y370079D02*
Y383957D01*
X280020Y390748D02*
X286811Y383957D01*
X277264Y408268D02*
X277953Y408957D01*
X277264Y406791D02*
Y408268D01*
X275295Y404823D02*
X277264Y406791D01*
X252854Y362795D02*
X253051Y362992D01*
X252854Y359842D02*
Y362795D01*
X242421Y504429D02*
Y504626D01*
X236417Y498425D02*
X242421Y504429D01*
X245571Y507176D02*
Y509842D01*
X245965D01*
X300197Y423524D02*
Y427854D01*
X238090Y427264D02*
X239764D01*
X240354Y426673D01*
Y426088D02*
Y426673D01*
Y426088D02*
X241738Y424705D01*
X253051Y353150D02*
X253150Y353051D01*
Y350197D02*
Y353051D01*
X261811Y457283D02*
X263681Y459154D01*
X250984Y457283D02*
X261811D01*
X250984D02*
Y461221D01*
Y440453D02*
X251279Y440748D01*
X254331D01*
X240453Y452067D02*
Y455217D01*
X238189Y455807D02*
X239862D01*
X240453Y455217D01*
X250295Y446850D02*
X250984Y446161D01*
X248194Y446850D02*
X250295D01*
X248178Y446866D02*
X248194Y446850D01*
X246688Y446866D02*
X248178D01*
X246334Y447220D02*
X246688Y446866D01*
X299508Y439862D02*
X300197Y439173D01*
X297047Y439862D02*
X299508D01*
X296850Y440059D02*
X297047Y439862D01*
X242224Y504921D02*
Y507776D01*
X241929Y504626D02*
X242224Y504921D01*
X237303Y483661D02*
X239665Y486024D01*
X224508Y483661D02*
X237303D01*
X233465Y485433D02*
X236417Y488386D01*
X226772Y485433D02*
X233465D01*
X225984Y486221D02*
X226772Y485433D01*
X236417Y488386D02*
Y498425D01*
X224508Y483661D02*
Y484744D01*
X225984Y486221D01*
X220126Y473472D02*
X221555Y474902D01*
X220126Y464567D02*
Y473472D01*
X223917Y407283D02*
Y407480D01*
X221752Y409646D02*
X223917Y407480D01*
X221555Y409646D02*
X221752D01*
X219976Y411224D02*
X221555Y409646D01*
X219976Y411224D02*
Y418504D01*
X283858Y345970D02*
Y345984D01*
X284252Y346378D01*
X284646D01*
D78*
X245788Y519980D02*
X246555D01*
X242618D02*
X246555D01*
X237205D02*
X239075D01*
D79*
X262500Y515059D02*
D03*
D80*
X226673Y561516D02*
D03*
X256791Y330217D02*
D03*
D81*
X290354Y332382D02*
D03*
X223130D02*
D03*
X217028Y345413D02*
D03*
X296260D02*
D03*
D82*
X265402Y515059D02*
D03*
X262500Y509252D02*
D03*
Y517890D02*
D03*
X268307Y515059D02*
D03*
X262500D02*
D03*
X256693D02*
D03*
X262500Y512130D02*
D03*
Y520768D02*
D03*
X259594Y515059D02*
D03*
D83*
X233214Y547184D02*
D03*
X219882Y435874D02*
D03*
X210114Y487888D02*
D03*
X213114D02*
D03*
X216114D02*
D03*
X236085Y504859D02*
D03*
X227600Y496374D02*
D03*
X229721Y498495D02*
D03*
X231842Y500616D02*
D03*
X233963Y502738D02*
D03*
X219114Y487888D02*
D03*
X221235Y490010D02*
D03*
X223357Y492131D02*
D03*
X225478Y494252D02*
D03*
X238206Y562980D02*
D03*
Y553980D02*
D03*
Y556980D02*
D03*
Y559980D02*
D03*
Y506980D02*
D03*
Y509980D02*
D03*
Y550980D02*
D03*
Y547980D02*
D03*
Y544980D02*
D03*
Y541980D02*
D03*
Y538980D02*
D03*
Y535980D02*
D03*
Y532980D02*
D03*
Y529980D02*
D03*
Y526980D02*
D03*
Y523980D02*
D03*
X241206D02*
D03*
X238206Y512980D02*
D03*
Y515980D02*
D03*
X241206D02*
D03*
X211126Y464567D02*
D03*
X214126D02*
D03*
X217126D02*
D03*
X220126D02*
D03*
X211075Y447047D02*
D03*
X214075D02*
D03*
X217075D02*
D03*
X220075D02*
D03*
X220276Y450091D02*
D03*
Y453091D02*
D03*
X220177Y461614D02*
D03*
Y458614D02*
D03*
X220276Y455902D02*
D03*
X220177Y427358D02*
D03*
X220079Y430071D02*
D03*
X219980Y432972D02*
D03*
X220177Y424547D02*
D03*
Y421547D02*
D03*
X219976Y418504D02*
D03*
X216976D02*
D03*
X213976D02*
D03*
X210976D02*
D03*
X217028Y436024D02*
D03*
X214028D02*
D03*
X211028D02*
D03*
D84*
X217028Y355413D02*
D03*
X296260D02*
D03*
D85*
X219035Y395335D02*
D03*
D86*
Y385335D02*
D03*
Y375335D02*
D03*
X229035Y395335D02*
D03*
Y385335D02*
D03*
Y375335D02*
D03*
D87*
X229331Y412697D02*
D03*
X255709Y465600D02*
D03*
X239567Y477264D02*
D03*
X242717Y424705D02*
D03*
X275295Y404823D02*
D03*
X240158Y352953D02*
D03*
X280315Y350000D02*
D03*
X252854Y359842D02*
D03*
X249410Y356398D02*
D03*
X240453Y371949D02*
D03*
X236614Y371850D02*
D03*
X256102Y356496D02*
D03*
X277264Y390748D02*
D03*
X266437Y500689D02*
D03*
X259547Y502165D02*
D03*
X256791Y494980D02*
D03*
X265650Y494882D02*
D03*
X248917Y511713D02*
D03*
X245768Y506890D02*
D03*
X276969Y510335D02*
D03*
X286221Y436024D02*
D03*
X283563Y486417D02*
D03*
X302854Y345335D02*
D03*
X296260Y339823D02*
D03*
X289862Y345433D02*
D03*
X210630Y345472D02*
D03*
X217028Y339862D02*
D03*
X223524Y345374D02*
D03*
X283858Y543996D02*
D03*
X224508Y483661D02*
D03*
X225984Y486221D02*
D03*
X241929Y504626D02*
D03*
X242224Y507776D02*
D03*
X270571Y486811D02*
D03*
X262106D02*
D03*
X239862Y486221D02*
D03*
X245669Y419488D02*
D03*
X257145Y422368D02*
D03*
X270374Y462992D02*
D03*
X247244Y427854D02*
D03*
X232677Y443602D02*
D03*
Y447146D02*
D03*
Y418209D02*
D03*
X246334Y447220D02*
D03*
X244291Y451870D02*
D03*
X234449Y413091D02*
D03*
X234055Y471260D02*
D03*
X240059Y407283D02*
D03*
X270571Y470571D02*
D03*
X281594Y483858D02*
D03*
X245472Y338090D02*
D03*
X240158D02*
D03*
X242815D02*
D03*
X266240Y412992D02*
D03*
X263386Y435236D02*
D03*
X300197Y423524D02*
D03*
X296850Y440059D02*
D03*
X297835Y462992D02*
D03*
X295866Y456988D02*
D03*
X253445Y483957D02*
D03*
X266535Y483858D02*
D03*
X252953Y413189D02*
D03*
X280315Y454035D02*
D03*
X300000Y504331D02*
D03*
X249311Y533760D02*
D03*
X260433D02*
D03*
X272835Y545965D02*
D03*
X291437Y540846D02*
D03*
X294193Y556693D02*
D03*
X286713Y440945D02*
D03*
X284449Y443307D02*
D03*
X277362Y419587D02*
D03*
X275197Y430413D02*
D03*
X267520Y430610D02*
D03*
X276673Y469390D02*
D03*
X250689Y526181D02*
D03*
X246555Y529134D02*
D03*
X259646Y528740D02*
D03*
X240453Y452067D02*
D03*
X240945Y461221D02*
D03*
X238189D02*
D03*
X240256Y432874D02*
D03*
X254232Y437008D02*
D03*
X254331Y440748D02*
D03*
X250984Y461221D02*
D03*
X258563Y464075D02*
D03*
X257480Y460728D02*
D03*
X244882Y471260D02*
D03*
X280512Y358711D02*
D03*
Y361811D02*
D03*
X245669Y422539D02*
D03*
X271358Y420866D02*
D03*
X263287Y420965D02*
D03*
X255709Y478642D02*
D03*
X254528Y502559D02*
D03*
X245472Y500000D02*
D03*
X285728Y509449D02*
D03*
X277272Y524516D02*
D03*
X277928Y528814D02*
D03*
X268602Y532237D02*
D03*
X276181Y531890D02*
D03*
X272146Y531988D02*
D03*
X295374Y483661D02*
D03*
X285531Y484350D02*
D03*
X275000Y504528D02*
D03*
X273917Y500295D02*
D03*
X284350Y512500D02*
D03*
X281004Y524114D02*
D03*
X257776Y426870D02*
D03*
X274213Y441732D02*
D03*
X274803Y445472D02*
D03*
X280512Y355610D02*
D03*
X253150Y350197D02*
D03*
X254429Y443996D02*
D03*
X236910Y432874D02*
D03*
X296555Y486417D02*
D03*
X278346Y499311D02*
D03*
X280020Y390748D02*
D03*
X296949Y412992D02*
D03*
X284842Y420866D02*
D03*
X279134Y444193D02*
D03*
X286319Y463091D02*
D03*
X292815Y462697D02*
D03*
X250886Y505905D02*
D03*
X254429Y450886D02*
D03*
X276279Y449606D02*
D03*
X278150Y518996D02*
D03*
X254429Y447047D02*
D03*
X262992Y445079D02*
D03*
M02*
