G04*
G04 #@! TF.GenerationSoftware,Altium Limited,Altium Designer,20.0.2 (26)*
G04*
G04 Layer_Color=8388736*
%FSLAX25Y25*%
%MOIN*%
G70*
G01*
G75*
%ADD43R,0.02917X0.04331*%
%ADD44R,0.02976X0.04331*%
%ADD45R,0.05906X0.05906*%
%ADD46R,0.05906X0.05906*%
%ADD47R,0.03150X0.15158*%
%ADD48R,0.15158X0.03150*%
%ADD49R,0.15158X0.03150*%
%ADD50O,0.03543X0.01378*%
%ADD51O,0.01378X0.03543*%
%ADD52R,0.03347X0.04724*%
%ADD53R,0.04528X0.04528*%
%ADD54R,0.04724X0.03937*%
%ADD55R,0.04528X0.04528*%
%ADD56R,0.02441X0.02441*%
%ADD57R,0.02441X0.02441*%
%ADD58O,0.03150X0.07480*%
%ADD59R,0.05512X0.08661*%
%ADD60R,0.07677X0.13386*%
%ADD61R,0.07677X0.04331*%
%ADD62R,0.03937X0.03937*%
%ADD63R,0.07480X0.07874*%
%ADD64O,0.06496X0.02165*%
%ADD65O,0.02165X0.06496*%
%ADD66R,0.06299X0.05315*%
%ADD67R,0.03150X0.03150*%
%ADD68R,0.03150X0.03543*%
%ADD69R,0.03543X0.03150*%
%ADD70R,0.05512X0.10630*%
%ADD71R,0.08661X0.07087*%
%ADD72O,0.08661X0.07087*%
%ADD73R,0.07480X0.07480*%
%ADD74C,0.07480*%
%ADD75O,0.05118X0.12598*%
D43*
X249293Y353150D02*
D03*
X249293Y362992D02*
D03*
X256810Y353150D02*
D03*
X256809Y362992D02*
D03*
D44*
X253063Y353150D02*
D03*
X253063Y362992D02*
D03*
D45*
X258760Y518799D02*
D03*
X266240D02*
D03*
Y511319D02*
D03*
D46*
X258760Y511319D02*
D03*
D47*
X252559Y515059D02*
D03*
X272441D02*
D03*
D48*
X262500Y505118D02*
D03*
D49*
X262500Y525000D02*
D03*
D50*
X252953Y508169D02*
D03*
Y521949D02*
D03*
Y519980D02*
D03*
Y518012D02*
D03*
Y516043D02*
D03*
Y514075D02*
D03*
Y512106D02*
D03*
Y510138D02*
D03*
X272047Y508169D02*
D03*
Y510138D02*
D03*
Y512106D02*
D03*
Y514075D02*
D03*
Y516043D02*
D03*
Y518012D02*
D03*
Y519980D02*
D03*
Y521949D02*
D03*
D51*
X255610Y505512D02*
D03*
X257579D02*
D03*
X259547D02*
D03*
X261516D02*
D03*
X263484D02*
D03*
X265453D02*
D03*
X267421D02*
D03*
X269390D02*
D03*
Y524606D02*
D03*
X267421D02*
D03*
X265453D02*
D03*
X263484D02*
D03*
X261516D02*
D03*
X259547D02*
D03*
X257579D02*
D03*
X255610D02*
D03*
D52*
X236221Y353445D02*
D03*
X243307D02*
D03*
X239764Y362894D02*
D03*
X272933Y362795D02*
D03*
X276476Y353346D02*
D03*
X269390D02*
D03*
D53*
X287008Y539665D02*
D03*
X281299D02*
D03*
X291929Y416535D02*
D03*
X297638D02*
D03*
X286319D02*
D03*
X280610D02*
D03*
X258366D02*
D03*
X264075D02*
D03*
X267717Y466929D02*
D03*
X273425D02*
D03*
X269488Y416535D02*
D03*
X275197D02*
D03*
X298425Y467126D02*
D03*
X292717D02*
D03*
X274803Y370079D02*
D03*
X269094D02*
D03*
X289469Y408957D02*
D03*
X295177D02*
D03*
X272244D02*
D03*
X266535D02*
D03*
X280413Y467126D02*
D03*
X286122D02*
D03*
X286811Y370079D02*
D03*
X281102D02*
D03*
X277953Y408957D02*
D03*
X283661D02*
D03*
D54*
X284646Y359921D02*
D03*
Y346378D02*
D03*
D55*
X267717Y473622D02*
D03*
Y479331D02*
D03*
X290256Y479626D02*
D03*
Y473917D02*
D03*
X300197Y456201D02*
D03*
Y450492D02*
D03*
X250984Y446161D02*
D03*
Y440453D02*
D03*
Y451575D02*
D03*
Y457283D02*
D03*
X300197Y427854D02*
D03*
Y433563D02*
D03*
Y439173D02*
D03*
Y444882D02*
D03*
X245079Y442028D02*
D03*
Y436319D02*
D03*
X250984Y429331D02*
D03*
Y435039D02*
D03*
X245079Y455807D02*
D03*
Y461516D02*
D03*
X253445Y490059D02*
D03*
Y495768D02*
D03*
X292618Y489961D02*
D03*
Y495669D02*
D03*
X287894Y545472D02*
D03*
Y551181D02*
D03*
X250984Y417618D02*
D03*
Y423327D02*
D03*
X259646Y473721D02*
D03*
Y479429D02*
D03*
X279921Y545472D02*
D03*
Y551181D02*
D03*
X276181Y489961D02*
D03*
Y495669D02*
D03*
X251969Y479331D02*
D03*
Y473622D02*
D03*
X281594Y489961D02*
D03*
Y495669D02*
D03*
X295669Y551181D02*
D03*
Y545472D02*
D03*
X245571Y490059D02*
D03*
Y495768D02*
D03*
X262303Y489961D02*
D03*
Y495669D02*
D03*
X287106D02*
D03*
Y489961D02*
D03*
X239862Y490059D02*
D03*
Y495768D02*
D03*
X270571Y489961D02*
D03*
Y495669D02*
D03*
X228937Y359941D02*
D03*
Y354232D02*
D03*
X262992Y353839D02*
D03*
Y359547D02*
D03*
D56*
X246555Y519980D02*
D03*
Y523524D02*
D03*
D57*
X242618Y519980D02*
D03*
X239075D02*
D03*
D58*
X281673Y504232D02*
D03*
X286673D02*
D03*
X291673D02*
D03*
X296673D02*
D03*
X281673Y532185D02*
D03*
X286673D02*
D03*
X291673D02*
D03*
X296673D02*
D03*
D59*
X270571Y344587D02*
D03*
X260728D02*
D03*
X252854D02*
D03*
X243012D02*
D03*
D60*
X213484Y427264D02*
D03*
X213583Y455807D02*
D03*
D61*
X238090Y436319D02*
D03*
Y427264D02*
D03*
Y418209D02*
D03*
X238189Y464862D02*
D03*
Y455807D02*
D03*
Y446752D02*
D03*
D62*
X297146Y562598D02*
D03*
Y556693D02*
D03*
X287894D02*
D03*
Y562598D02*
D03*
X278445Y562697D02*
D03*
Y556791D02*
D03*
D63*
X234449Y407283D02*
D03*
X222441D02*
D03*
X234055Y477264D02*
D03*
X222047D02*
D03*
D64*
X292028Y431299D02*
D03*
Y433268D02*
D03*
Y435236D02*
D03*
Y437205D02*
D03*
Y439173D02*
D03*
Y441142D02*
D03*
Y443110D02*
D03*
Y445079D02*
D03*
Y447047D02*
D03*
Y449016D02*
D03*
Y450984D02*
D03*
Y452953D02*
D03*
X258760D02*
D03*
Y450984D02*
D03*
Y449016D02*
D03*
Y447047D02*
D03*
Y445079D02*
D03*
Y443110D02*
D03*
Y441142D02*
D03*
Y439173D02*
D03*
Y437205D02*
D03*
Y435236D02*
D03*
Y433268D02*
D03*
Y431299D02*
D03*
D65*
X286221Y458760D02*
D03*
X284252D02*
D03*
X282283D02*
D03*
X280315D02*
D03*
X278346D02*
D03*
X276378D02*
D03*
X274410D02*
D03*
X272441D02*
D03*
X270472D02*
D03*
X268504D02*
D03*
X266535D02*
D03*
X264567D02*
D03*
Y425492D02*
D03*
X266535D02*
D03*
X268504D02*
D03*
X270472D02*
D03*
X272441D02*
D03*
X274410D02*
D03*
X276378D02*
D03*
X278346D02*
D03*
X280315D02*
D03*
X282283D02*
D03*
X284252D02*
D03*
X286221D02*
D03*
D66*
X258760Y537598D02*
D03*
Y543898D02*
D03*
X267421Y537598D02*
D03*
Y543898D02*
D03*
X283465Y480020D02*
D03*
Y473721D02*
D03*
X274803Y480020D02*
D03*
Y473721D02*
D03*
D67*
X246949Y537303D02*
D03*
Y541240D02*
D03*
D68*
X256693Y532185D02*
D03*
X252756D02*
D03*
D69*
X245965Y509842D02*
D03*
Y513779D02*
D03*
X273228Y538583D02*
D03*
Y542520D02*
D03*
X252658Y537303D02*
D03*
Y541240D02*
D03*
D70*
X291142Y378937D02*
D03*
X278937D02*
D03*
X263189D02*
D03*
X259646Y404528D02*
D03*
D71*
X290354Y332382D02*
D03*
X223130D02*
D03*
X217028Y345413D02*
D03*
X296260D02*
D03*
D72*
X217028Y355413D02*
D03*
X296260D02*
D03*
D73*
X219035Y395335D02*
D03*
D74*
Y385335D02*
D03*
Y375335D02*
D03*
X229035Y395335D02*
D03*
Y385335D02*
D03*
Y375335D02*
D03*
D75*
X233760Y334350D02*
D03*
X279823D02*
D03*
M02*
