G04*
G04 #@! TF.GenerationSoftware,Altium Limited,Altium Designer,20.0.2 (26)*
G04*
G04 Layer_Color=32896*
%FSLAX25Y25*%
%MOIN*%
G70*
G01*
G75*
%ADD10C,0.00984*%
%ADD12C,0.00787*%
%ADD13C,0.01575*%
%ADD14C,0.00600*%
%ADD15C,0.00394*%
%ADD46R,0.05906X0.05906*%
%ADD91C,0.02586*%
%ADD92C,0.01968*%
%ADD93R,0.05906X0.05906*%
D10*
X233780Y366634D02*
X233041Y367060D01*
Y366208D01*
X233780Y366634D01*
D12*
X241634Y379134D02*
X253937D01*
X247835Y374410D02*
Y379134D01*
Y374410D02*
Y383858D01*
X234449Y349508D02*
Y362106D01*
X273819Y349508D02*
Y362106D01*
D13*
X243742Y371949D02*
D03*
D14*
X229232Y347835D02*
X230610D01*
X226673D02*
X228051D01*
X229232Y362795D02*
X230610D01*
X226673D02*
X228051D01*
X239961Y388681D02*
Y390059D01*
Y386122D02*
Y387500D01*
X237697Y379429D02*
X239075D01*
X235138D02*
X236516D01*
X261614Y374016D02*
Y377953D01*
X266330Y410738D02*
Y412706D01*
Y411722D01*
X272234D01*
X271250Y410738D01*
X272234Y419593D02*
X271250Y417625D01*
X269282Y415658D01*
X267314D01*
X266330Y416641D01*
Y418609D01*
X267314Y419593D01*
X268298D01*
X269282Y418609D01*
Y415658D01*
X266330Y421561D02*
X272234D01*
X270266Y423529D01*
X272234Y425497D01*
X266330D01*
Y434352D02*
X271250D01*
X269282D01*
Y433368D01*
Y435336D01*
Y434352D01*
X271250D01*
X272234Y435336D01*
X266330Y438288D02*
Y440256D01*
Y439272D01*
X272234D01*
Y438288D01*
X270266Y444192D02*
Y446159D01*
X269282Y447143D01*
X266330D01*
Y444192D01*
X267314Y443208D01*
X268298Y444192D01*
Y447143D01*
X266330Y449111D02*
Y452063D01*
X267314Y453047D01*
X268298Y452063D01*
Y450095D01*
X269282Y449111D01*
X270266Y450095D01*
Y453047D01*
X272234Y455015D02*
X266330D01*
X269282D01*
X270266Y455999D01*
Y457967D01*
X269282Y458951D01*
X266330D01*
X262726Y410738D02*
X263710Y411722D01*
Y413690D01*
X262726Y414674D01*
X261742D01*
X260758Y413690D01*
Y412706D01*
Y413690D01*
X259774Y414674D01*
X258790D01*
X257806Y413690D01*
Y411722D01*
X258790Y410738D01*
X257806Y420577D02*
Y416641D01*
X261742Y420577D01*
X262726D01*
X263710Y419593D01*
Y417625D01*
X262726Y416641D01*
X257806Y422545D02*
X263710D01*
X261742Y424513D01*
X263710Y426481D01*
X257806D01*
Y435336D02*
X262726D01*
X260758D01*
Y434352D01*
Y436320D01*
Y435336D01*
X262726D01*
X263710Y436320D01*
X257806Y439272D02*
Y441240D01*
Y440256D01*
X263710D01*
Y439272D01*
X261742Y445176D02*
Y447143D01*
X260758Y448127D01*
X257806D01*
Y445176D01*
X258790Y444192D01*
X259774Y445176D01*
Y448127D01*
X257806Y450095D02*
Y453047D01*
X258790Y454031D01*
X259774Y453047D01*
Y451079D01*
X260758Y450095D01*
X261742Y451079D01*
Y454031D01*
X263710Y455999D02*
X257806D01*
X260758D01*
X261742Y456983D01*
Y458951D01*
X260758Y459935D01*
X257806D01*
X249282Y410738D02*
Y412706D01*
Y411722D01*
X255185D01*
X254202Y410738D01*
X249282Y419593D02*
Y415658D01*
X253218Y419593D01*
X254202D01*
X255185Y418609D01*
Y416641D01*
X254202Y415658D01*
Y421561D02*
X255185Y422545D01*
Y424513D01*
X254202Y425497D01*
X253218D01*
X252234Y424513D01*
X251250Y425497D01*
X250266D01*
X249282Y424513D01*
Y422545D01*
X250266Y421561D01*
X251250D01*
X252234Y422545D01*
X253218Y421561D01*
X254202D01*
X252234Y422545D02*
Y424513D01*
X249282Y427465D02*
X255185D01*
X253218Y429432D01*
X255185Y431400D01*
X249282D01*
Y440256D02*
X254202D01*
X252234D01*
Y439272D01*
Y441240D01*
Y440256D01*
X254202D01*
X255185Y441240D01*
X249282Y444192D02*
Y446159D01*
Y445176D01*
X255185D01*
Y444192D01*
X253218Y450095D02*
Y452063D01*
X252234Y453047D01*
X249282D01*
Y450095D01*
X250266Y449111D01*
X251250Y450095D01*
Y453047D01*
X249282Y455015D02*
Y457967D01*
X250266Y458951D01*
X251250Y457967D01*
Y455999D01*
X252234Y455015D01*
X253218Y455999D01*
Y458951D01*
X255185Y460918D02*
X249282D01*
X252234D01*
X253218Y461902D01*
Y463870D01*
X252234Y464854D01*
X249282D01*
X245677Y414674D02*
X246661Y413690D01*
Y411722D01*
X245677Y410738D01*
X241741D01*
X240757Y411722D01*
Y413690D01*
X241741Y414674D01*
X246661Y416641D02*
X240757D01*
X243709D01*
Y420577D01*
X246661D01*
X240757D01*
X245677Y422545D02*
X246661Y423529D01*
Y425497D01*
X245677Y426481D01*
X244693D01*
X243709Y425497D01*
Y424513D01*
Y425497D01*
X242725Y426481D01*
X241741D01*
X240757Y425497D01*
Y423529D01*
X241741Y422545D01*
X240757Y431400D02*
X246661D01*
X243709Y428449D01*
Y432384D01*
X245677Y434352D02*
X246661Y435336D01*
Y437304D01*
X245677Y438288D01*
X241741D01*
X240757Y437304D01*
Y435336D01*
X241741Y434352D01*
X245677D01*
X291208Y402962D02*
X287609D01*
X288809Y404162D01*
X287609Y405361D01*
X291208D01*
X287609Y406561D02*
Y407761D01*
Y407161D01*
X290009D01*
Y406561D01*
X291208Y411959D02*
Y409560D01*
X289409D01*
Y410760D01*
Y409560D01*
X287609D01*
Y413159D02*
Y414359D01*
Y413759D01*
X290009D01*
Y413159D01*
X289409Y419757D02*
Y422156D01*
X291208Y429354D02*
Y426955D01*
X287609D01*
Y429354D01*
X289409Y426955D02*
Y428154D01*
X290608Y432952D02*
X291208Y432353D01*
Y431153D01*
X290608Y430553D01*
X290009D01*
X289409Y431153D01*
Y432353D01*
X288809Y432952D01*
X288209D01*
X287609Y432353D01*
Y431153D01*
X288209Y430553D01*
X287609Y434152D02*
X291208D01*
Y435952D01*
X290608Y436551D01*
X289409D01*
X288809Y435952D01*
Y434152D01*
X290608Y437751D02*
X291208Y438351D01*
Y439550D01*
X290608Y440150D01*
X290009D01*
X289409Y439550D01*
X288809Y440150D01*
X288209D01*
X287609Y439550D01*
Y438351D01*
X288209Y437751D01*
X288809D01*
X289409Y438351D01*
X290009Y437751D01*
X290608D01*
X289409Y438351D02*
Y439550D01*
X287609Y443749D02*
Y441350D01*
X290009Y443749D01*
X290608D01*
X291208Y443149D01*
Y441950D01*
X290608Y441350D01*
X291208Y447348D02*
X290608Y446148D01*
X289409Y444949D01*
X288209D01*
X287609Y445548D01*
Y446748D01*
X288209Y447348D01*
X288809D01*
X289409Y446748D01*
Y444949D01*
X291208Y450947D02*
X290608Y449747D01*
X289409Y448548D01*
X288209D01*
X287609Y449147D01*
Y450347D01*
X288209Y450947D01*
X288809D01*
X289409Y450347D01*
Y448548D01*
X285450Y402962D02*
X281851D01*
Y404762D01*
X282451Y405361D01*
X284850D01*
X285450Y404762D01*
Y402962D01*
Y408960D02*
Y406561D01*
X281851D01*
Y408960D01*
X283650Y406561D02*
Y407761D01*
X284850Y412559D02*
X285450Y411959D01*
Y410760D01*
X284850Y410160D01*
X282451D01*
X281851Y410760D01*
Y411959D01*
X282451Y412559D01*
X283650Y417358D02*
Y419757D01*
X285450Y424555D02*
X283050D01*
X281851Y425755D01*
X283050Y426955D01*
X285450D01*
X284850Y430553D02*
X285450Y429953D01*
Y428754D01*
X284850Y428154D01*
X284250D01*
X283650Y428754D01*
Y429953D01*
X283050Y430553D01*
X282451D01*
X281851Y429953D01*
Y428754D01*
X282451Y428154D01*
X281851Y431753D02*
Y432952D01*
Y432353D01*
X285450D01*
X284850Y431753D01*
Y434752D02*
X285450Y435352D01*
Y436551D01*
X284850Y437151D01*
X282451D01*
X281851Y436551D01*
Y435352D01*
X282451Y434752D01*
X284850D01*
X285450Y440750D02*
Y438351D01*
X283650D01*
X284250Y439550D01*
Y440150D01*
X283650Y440750D01*
X282451D01*
X281851Y440150D01*
Y438951D01*
X282451Y438351D01*
X284850Y441950D02*
X285450Y442549D01*
Y443749D01*
X284850Y444349D01*
X284250D01*
X283650Y443749D01*
Y443149D01*
Y443749D01*
X283050Y444349D01*
X282451D01*
X281851Y443749D01*
Y442549D01*
X282451Y441950D01*
X279691Y402962D02*
X277292D01*
X276092Y404162D01*
X277292Y405361D01*
X279691D01*
X276092Y406561D02*
Y407761D01*
Y407161D01*
X278491D01*
Y406561D01*
X276092Y409560D02*
X278491D01*
Y411360D01*
X277892Y411959D01*
X276092D01*
X277892Y416758D02*
Y419157D01*
X279691Y426355D02*
Y423955D01*
X277892D01*
X278491Y425155D01*
Y425755D01*
X277892Y426355D01*
X276692D01*
X276092Y425755D01*
Y424555D01*
X276692Y423955D01*
X279691Y427554D02*
X277292D01*
X276092Y428754D01*
X277292Y429953D01*
X279691D01*
X251674Y326476D02*
X253248Y328051D01*
X251674Y329625D01*
X250099Y328051D02*
X248000D01*
X246951Y329625D02*
X244852D01*
X245901D01*
Y326476D01*
X243278D02*
X242228D01*
X241703Y327001D01*
Y328051D01*
X242228Y328575D01*
X243278D01*
X243802Y328051D01*
Y327001D01*
X243278Y326476D01*
X240129D02*
X239079D01*
X238555Y327001D01*
Y328051D01*
X239079Y328575D01*
X240129D01*
X240654Y328051D01*
Y327001D01*
X240129Y326476D01*
X237505D02*
X236455D01*
X236980D01*
Y329625D01*
X237505D01*
X223395Y556269D02*
Y558495D01*
X221168Y558495D01*
Y556269D02*
X219684Y554784D01*
X217829Y555156D02*
X216344Y553671D01*
X217087Y554413D01*
X219313Y552187D01*
X217458Y550332D02*
X216716Y549589D01*
X215973Y549589D01*
X215231Y550332D01*
Y551074D01*
X215973Y551816D01*
X216716Y551816D01*
X217458Y551074D01*
Y550332D01*
X215231Y548105D02*
X214489Y547363D01*
X213747Y547363D01*
X213005Y548105D01*
Y548847D01*
X213747Y549589D01*
X214489Y549589D01*
X215231Y548847D01*
Y548105D01*
X213376Y546250D02*
X212634Y545508D01*
X213005Y545879D01*
X210778Y548105D01*
X211150Y548476D01*
X267815Y535236D02*
Y538835D01*
X266615Y537635D01*
X265416Y538835D01*
Y535236D01*
X264216D02*
Y537635D01*
X263017Y538835D01*
X261817Y537635D01*
Y535236D01*
Y537036D01*
X264216D01*
X260617Y538835D02*
Y535236D01*
X258818D01*
X258218Y535836D01*
Y538235D01*
X258818Y538835D01*
X260617D01*
X254619D02*
X257018D01*
Y535236D01*
X254619D01*
X257018Y537036D02*
X255819D01*
X249821Y538835D02*
Y535236D01*
X248021D01*
X247422Y535836D01*
Y536436D01*
X248021Y537036D01*
X249821D01*
X248021D01*
X247422Y537635D01*
Y538235D01*
X248021Y538835D01*
X249821D01*
X246222D02*
Y538235D01*
X245022Y537036D01*
X243823Y538235D01*
Y538835D01*
X245022Y537036D02*
Y535236D01*
X213540Y376809D02*
Y375609D01*
Y376209D01*
X210541D01*
X209941Y375609D01*
Y375009D01*
X210541Y374410D01*
X213540Y378008D02*
X209941D01*
Y380408D01*
X212940Y384006D02*
X213540Y383407D01*
Y382207D01*
X212940Y381607D01*
X210541D01*
X209941Y382207D01*
Y383407D01*
X210541Y384006D01*
X213540Y387605D02*
Y386406D01*
Y387005D01*
X210541D01*
X209941Y386406D01*
Y385806D01*
X210541Y385206D01*
X213540Y388805D02*
X209941D01*
Y391204D01*
X212940Y394803D02*
X213540Y394203D01*
Y393004D01*
X212940Y392404D01*
X210541D01*
X209941Y393004D01*
Y394203D01*
X210541Y394803D01*
X213540Y398402D02*
Y397202D01*
Y397802D01*
X210541D01*
X209941Y397202D01*
Y396602D01*
X210541Y396003D01*
X213540Y399601D02*
X209941D01*
Y402001D01*
X212940Y405599D02*
X213540Y405000D01*
Y403800D01*
X212940Y403200D01*
X210541D01*
X209941Y403800D01*
Y405000D01*
X210541Y405599D01*
X213540Y409198D02*
Y407999D01*
Y408598D01*
X210541D01*
X209941Y407999D01*
Y407399D01*
X210541Y406799D01*
X213540Y410398D02*
X209941D01*
Y412797D01*
X212940Y416396D02*
X213540Y415796D01*
Y414597D01*
X212940Y413997D01*
X210541D01*
X209941Y414597D01*
Y415796D01*
X210541Y416396D01*
D15*
X240256Y475197D02*
X274213Y475197D01*
X240256Y469291D02*
X274213D01*
X237303Y484154D02*
X276870Y484252D01*
X259055Y487992D02*
X276870D01*
X237402D02*
X255217D01*
X288779Y340158D02*
Y351575D01*
X208268Y352756D02*
X210925D01*
X208268Y372933D02*
X210925D01*
X208268Y490158D02*
X210925D01*
X208268Y510335D02*
X210925D01*
X224410Y340158D02*
X230315D01*
X221555Y337106D02*
X230315D01*
X215453Y351575D02*
X224410D01*
X215453Y349213D02*
X221555D01*
X255217Y495374D02*
X259055D01*
X283071Y337106D02*
X291634D01*
X283071Y340158D02*
X288779D01*
X302264Y352756D02*
X304921D01*
X291634Y349311D02*
X297736D01*
X288779Y351575D02*
X297736D01*
X302264Y372933D02*
X304921D01*
X302264Y490158D02*
X304921D01*
X302264Y510335D02*
X304921D01*
X210925Y352756D02*
Y372933D01*
Y490158D02*
Y510335D01*
X224410Y340158D02*
Y351575D01*
X221555Y337106D02*
Y349213D01*
X237303Y484252D02*
Y487992D01*
X255217D02*
Y495374D01*
X259055Y487992D02*
Y495374D01*
X276870Y484252D02*
Y487992D01*
X291634Y337106D02*
Y349311D01*
X302264Y352756D02*
Y372933D01*
Y490158D02*
Y510335D01*
X215453Y349213D02*
Y351575D01*
X230315Y337106D02*
Y340158D01*
X240256Y469291D02*
Y475197D01*
X274213Y469291D02*
X274213Y475197D01*
X283071Y337106D02*
Y340158D01*
X297736Y349311D02*
Y351575D01*
D46*
X243898Y405413D02*
D03*
X260925D02*
D03*
D91*
X267878Y511772D02*
X268225Y510764D01*
X268789Y509859D01*
X269540Y509102D01*
X270442Y508533D01*
X271447Y508179D01*
X272507Y508059D01*
X273440Y508207D01*
X274281Y508635D01*
X274948Y509303D01*
X275377Y510144D01*
X275524Y511077D01*
X275377Y512009D01*
X274948Y512850D01*
X274281Y513518D01*
X273440Y513946D01*
X272507Y514094D01*
X264395Y525560D02*
X263997Y526513D01*
X263263Y527240D01*
X262307Y527629D01*
X261275Y527623D01*
X260324Y527220D01*
X259601Y526483D01*
X259216Y525526D01*
X259227Y524493D01*
X244702Y529901D02*
X243777Y529612D01*
X242909Y529181D01*
X242119Y528619D01*
X241428Y527939D01*
X240853Y527159D01*
X240408Y526299D01*
X240103Y525379D01*
X239947Y524422D01*
X239944Y523453D01*
X240094Y522496D01*
X240392Y521573D01*
X240832Y520710D01*
X241402Y519926D01*
X242088Y519242D01*
X242874Y518675D01*
X243739Y518238D01*
X258395Y510048D02*
X258395D01*
X245463D02*
X245463D01*
X243739Y518238D02*
X252791Y516083D01*
X260550Y521255D02*
X269172Y519100D01*
X260550Y521255D02*
X263137Y510479D01*
X264430Y525566D02*
X267878Y511772D01*
X247187Y527290D02*
X251067Y510048D01*
D92*
X239173Y359941D02*
X238681Y360793D01*
X237697D01*
X237205Y359941D01*
X237697Y359088D01*
X238681D01*
X239173Y359941D01*
D93*
X252362Y405413D02*
D03*
X269094D02*
D03*
M02*
