G04*
G04 #@! TF.GenerationSoftware,Altium Limited,Altium Designer,20.0.2 (26)*
G04*
G04 Layer_Color=16711935*
%FSLAX25Y25*%
%MOIN*%
G70*
G01*
G75*
%ADD53R,0.04528X0.04528*%
%ADD55R,0.04528X0.04528*%
%ADD66R,0.06299X0.05315*%
%ADD71R,0.08661X0.07087*%
%ADD72O,0.08661X0.07087*%
%ADD73R,0.07480X0.07480*%
%ADD74C,0.07480*%
%ADD75O,0.05118X0.12598*%
%ADD89O,0.03150X0.06693*%
%ADD90O,0.05701X0.05595*%
D53*
X242815Y388091D02*
D03*
X237106D02*
D03*
X258760Y375984D02*
D03*
X264469D02*
D03*
D55*
X228642Y344980D02*
D03*
Y350689D02*
D03*
Y359941D02*
D03*
Y365650D02*
D03*
X237106Y376575D02*
D03*
Y382283D02*
D03*
D66*
X252165Y375984D02*
D03*
Y382283D02*
D03*
X243504Y375984D02*
D03*
Y382283D02*
D03*
D71*
X290354Y332382D02*
D03*
X223130D02*
D03*
X217028Y345413D02*
D03*
X296260D02*
D03*
D72*
X217028Y355413D02*
D03*
X296260D02*
D03*
D73*
X219035Y395335D02*
D03*
D74*
Y385335D02*
D03*
Y375335D02*
D03*
X229035Y395335D02*
D03*
Y385335D02*
D03*
Y375335D02*
D03*
D75*
X233760Y334350D02*
D03*
X279823D02*
D03*
D89*
X236634Y366634D02*
D03*
X241634D02*
D03*
X246634D02*
D03*
X251634D02*
D03*
X256634D02*
D03*
X261634D02*
D03*
X266634D02*
D03*
X271634D02*
D03*
X236634Y344980D02*
D03*
X241634D02*
D03*
X246634D02*
D03*
X251634D02*
D03*
X256634D02*
D03*
X261634D02*
D03*
X266634D02*
D03*
X271634D02*
D03*
D90*
X226673Y561516D02*
D03*
X256791Y330217D02*
D03*
M02*
