G04*
G04 #@! TF.GenerationSoftware,Altium Limited,Altium Designer,20.0.2 (26)*
G04*
G04 Layer_Physical_Order=2*
G04 Layer_Color=16711680*
%FSLAX25Y25*%
%MOIN*%
G70*
G01*
G75*
%ADD25R,0.03740X0.03740*%
%ADD27R,0.03740X0.03740*%
%ADD38R,0.05512X0.04528*%
%ADD75O,0.05118X0.12598*%
%ADD76C,0.01000*%
%ADD77C,0.02362*%
%ADD80O,0.04535X0.04429*%
%ADD81R,0.07874X0.06299*%
%ADD82C,0.01772*%
%ADD83C,0.01968*%
%ADD84O,0.07874X0.06299*%
%ADD85R,0.06693X0.06693*%
%ADD86C,0.06693*%
%ADD87C,0.02362*%
%ADD88O,0.02362X0.05906*%
G36*
X300770Y565688D02*
X301417Y565603D01*
X302462Y565170D01*
X303359Y564481D01*
X304048Y563584D01*
X304481Y562539D01*
X304611Y561551D01*
Y410859D01*
X304149Y410668D01*
X290233Y424583D01*
X289973Y424757D01*
X289665Y424819D01*
X261319D01*
X261012Y424757D01*
X260751Y424583D01*
X260577Y424323D01*
X260516Y424016D01*
Y419095D01*
X260577Y418787D01*
X260751Y418527D01*
X261012Y418353D01*
X261319Y418292D01*
X271441D01*
X271441Y408677D01*
X254035Y408677D01*
X253728Y408616D01*
X253468Y408442D01*
X253210Y408416D01*
X241469Y420157D01*
Y423043D01*
X241969Y423310D01*
X242102Y423221D01*
X242717Y423099D01*
X243331Y423221D01*
X243852Y423569D01*
X244200Y424090D01*
X244322Y424705D01*
Y426559D01*
X253165Y435402D01*
X253567D01*
X259494Y429475D01*
X259494Y429475D01*
X260016Y429127D01*
X260630Y429005D01*
X260630Y429005D01*
X274471D01*
X274582Y428930D01*
X275197Y428808D01*
X275197Y428808D01*
X275452D01*
X275453Y428808D01*
X276067Y428930D01*
X276588Y429278D01*
X285468Y438158D01*
X285531D01*
X285531Y438158D01*
X286146Y438280D01*
X286667Y438628D01*
X287848Y439810D01*
X287848Y439810D01*
X288196Y440330D01*
X288318Y440945D01*
X288196Y441559D01*
X287848Y442080D01*
X287327Y442428D01*
X286713Y442551D01*
X286361Y442481D01*
X286319Y442502D01*
X286037Y442773D01*
X285974Y442901D01*
X286054Y443307D01*
X285932Y443922D01*
X285584Y444443D01*
X285063Y444791D01*
X284449Y444913D01*
X282146D01*
X282008Y444885D01*
X281762Y445346D01*
X290160Y453745D01*
X290358Y454040D01*
X290427Y454389D01*
Y459020D01*
X292550Y461144D01*
X292815Y461091D01*
X293429Y461213D01*
X293950Y461561D01*
X294298Y462082D01*
X294421Y462697D01*
X294298Y463311D01*
X293950Y463832D01*
X293429Y464180D01*
X292815Y464302D01*
X292200Y464180D01*
X291722Y463861D01*
X291515Y463910D01*
X291222Y464048D01*
Y478902D01*
X293770Y481451D01*
X293968Y481746D01*
X294037Y482095D01*
X294537Y482327D01*
X294760Y482178D01*
X295374Y482056D01*
X295988Y482178D01*
X296509Y482526D01*
X296858Y483047D01*
X296980Y483661D01*
X296858Y484276D01*
X296807Y484352D01*
X297037Y484907D01*
X297170Y484934D01*
X297691Y485282D01*
X298039Y485803D01*
X298161Y486417D01*
Y494134D01*
X298039Y494748D01*
X297691Y495269D01*
X297691Y495269D01*
X296192Y496768D01*
Y525098D01*
X296192Y525098D01*
X296070Y525713D01*
X295722Y526234D01*
X295722Y526234D01*
X284677Y537279D01*
Y542544D01*
X284994Y542861D01*
X284994Y542861D01*
X285342Y543382D01*
X285464Y543996D01*
X285342Y544611D01*
X284994Y545131D01*
X284473Y545479D01*
X283858Y545602D01*
X283244Y545479D01*
X282723Y545131D01*
X282723Y545131D01*
X281936Y544344D01*
X281587Y543823D01*
X281465Y543209D01*
X281465Y543209D01*
Y536614D01*
X281465Y536614D01*
X281587Y536000D01*
X281320Y535607D01*
X281277Y535565D01*
X268038D01*
X267689Y535495D01*
X267394Y535298D01*
X264602Y532506D01*
X257677D01*
X257329Y532436D01*
X257033Y532239D01*
X254839Y530045D01*
X247840D01*
X247691Y530269D01*
X247170Y530617D01*
X246555Y530739D01*
X245941Y530617D01*
X245420Y530269D01*
X245072Y529748D01*
X244950Y529134D01*
X245072Y528519D01*
X245420Y527998D01*
X245941Y527650D01*
X246555Y527528D01*
X247170Y527650D01*
X247691Y527998D01*
X247840Y528223D01*
X249776D01*
X249916Y528057D01*
X249834Y527504D01*
X249554Y527317D01*
X249205Y526796D01*
X249083Y526181D01*
X249205Y525567D01*
X249554Y525046D01*
X250075Y524698D01*
X250689Y524576D01*
X250787D01*
X250787Y524575D01*
X251282Y524674D01*
X256890D01*
X256890Y524674D01*
X257504Y524796D01*
X258025Y525144D01*
X260107Y527226D01*
X260260Y527257D01*
X260666Y527528D01*
X268134D01*
X269950Y525713D01*
Y516929D01*
X269950Y516929D01*
X270072Y516315D01*
X270420Y515794D01*
X273811Y512402D01*
X273620Y511940D01*
X272050D01*
X271555Y512039D01*
X270941Y511916D01*
X270420Y511568D01*
X270420Y511568D01*
X267248Y508397D01*
X264862D01*
X264248Y508275D01*
X263727Y507927D01*
X263727Y507927D01*
X259646Y503846D01*
X256641Y506850D01*
Y510673D01*
X256641Y510673D01*
X256519Y511287D01*
X256171Y511808D01*
X256171Y511808D01*
X252277Y515702D01*
X251756Y516050D01*
X251142Y516173D01*
X251142Y516173D01*
X246850D01*
X246850Y516173D01*
X246236Y516050D01*
X245715Y515702D01*
X245715Y515702D01*
X241581Y511568D01*
X241233Y511048D01*
X241111Y510433D01*
X241111Y510433D01*
Y508944D01*
X240938Y508685D01*
X240938Y508684D01*
X240741Y508390D01*
X240619Y507776D01*
X240741Y507161D01*
X240816Y507049D01*
Y505776D01*
X240794Y505761D01*
X240446Y505240D01*
X240323Y504626D01*
X240446Y504011D01*
X240794Y503491D01*
X241315Y503143D01*
X241929Y503020D01*
X242175Y503069D01*
X242421Y503020D01*
X243036Y503143D01*
X243557Y503491D01*
X243905Y504011D01*
X244027Y504626D01*
Y506902D01*
X244200Y507161D01*
X244322Y507776D01*
X244322Y507776D01*
Y509768D01*
X246935Y512381D01*
X247395Y512134D01*
X247312Y511713D01*
X247434Y511098D01*
X247782Y510577D01*
X248303Y510229D01*
X248917Y510107D01*
X249532Y510229D01*
X249996Y510539D01*
X252049Y508486D01*
Y507623D01*
X251549Y507356D01*
X251500Y507389D01*
X250886Y507511D01*
X250271Y507389D01*
X249750Y507041D01*
X249402Y506520D01*
X249280Y505905D01*
X249402Y505291D01*
X249750Y504770D01*
X249975Y504620D01*
Y500249D01*
X249475Y500042D01*
X248873Y500644D01*
X248577Y500842D01*
X248228Y500911D01*
X246758D01*
X246608Y501135D01*
X246087Y501483D01*
X245472Y501606D01*
X244858Y501483D01*
X244337Y501135D01*
X243989Y500615D01*
X243867Y500000D01*
X243989Y499385D01*
X244337Y498865D01*
X244858Y498517D01*
X245472Y498394D01*
X246087Y498517D01*
X246608Y498865D01*
X246758Y499089D01*
X247851D01*
X252604Y494336D01*
X252899Y494138D01*
X253248Y494069D01*
X255506D01*
X255656Y493845D01*
X256177Y493497D01*
X256791Y493375D01*
X257406Y493497D01*
X257927Y493845D01*
X258077Y494069D01*
X264299D01*
X264514Y493747D01*
X265035Y493399D01*
X265650Y493276D01*
X266264Y493399D01*
X266785Y493747D01*
X266869Y493872D01*
X279347D01*
X285320Y487899D01*
X285279Y487584D01*
X284759Y487462D01*
X284698Y487553D01*
X284177Y487901D01*
X283896Y487957D01*
X283685Y488098D01*
X283071Y488220D01*
X279602D01*
X278990Y488832D01*
X278469Y489180D01*
X277854Y489302D01*
X277854Y489302D01*
X241339D01*
X241339Y489302D01*
X240724Y489180D01*
X240203Y488832D01*
X240203Y488832D01*
X238727Y487356D01*
X238379Y486835D01*
X238257Y486221D01*
X238379Y485606D01*
X238727Y485085D01*
X239248Y484737D01*
X239862Y484615D01*
X240477Y484737D01*
X240998Y485085D01*
X242004Y486091D01*
X260693D01*
X260971Y485676D01*
X261492Y485328D01*
X262106Y485205D01*
X262721Y485328D01*
X263242Y485676D01*
X263519Y486091D01*
X269158D01*
X269436Y485676D01*
X269660Y485526D01*
Y475983D01*
X269631Y475939D01*
X269561Y475591D01*
X269631Y475242D01*
X269828Y474946D01*
X275120Y469654D01*
X275068Y469390D01*
X275190Y468775D01*
X275538Y468254D01*
X276059Y467906D01*
X276673Y467784D01*
X277288Y467906D01*
X277809Y468254D01*
X278157Y468775D01*
X278279Y469390D01*
X278157Y470004D01*
X277809Y470525D01*
X277288Y470873D01*
X276673Y470995D01*
X276409Y470943D01*
X271482Y475870D01*
Y485526D01*
X271706Y485676D01*
X271984Y486091D01*
X277189D01*
X277802Y485479D01*
X278323Y485131D01*
X278937Y485008D01*
X278937Y485008D01*
X282837D01*
X282948Y484934D01*
X283510Y484822D01*
X283667Y484746D01*
X283948Y484465D01*
X283926Y484350D01*
X284048Y483736D01*
X284396Y483215D01*
X284917Y482867D01*
X285531Y482745D01*
X285950Y482828D01*
X286197Y482367D01*
X283600Y479770D01*
X283402Y479475D01*
X283333Y479126D01*
Y462231D01*
X283402Y461882D01*
X283600Y461587D01*
X284423Y460763D01*
Y456498D01*
X280797Y452872D01*
X279455D01*
X279107Y452803D01*
X278811Y452605D01*
X277135Y450929D01*
X276894Y451090D01*
X276279Y451212D01*
X275665Y451090D01*
X275144Y450742D01*
X274796Y450221D01*
X274674Y449606D01*
X274796Y448992D01*
X275144Y448471D01*
X275665Y448123D01*
X275723Y448111D01*
X275888Y447569D01*
X275298Y446980D01*
X274803Y447078D01*
X274189Y446956D01*
X273668Y446608D01*
X273320Y446087D01*
X273198Y445472D01*
X273320Y444858D01*
X273668Y444337D01*
X274126Y444031D01*
X274214Y443688D01*
X274232Y443471D01*
X274094Y443314D01*
X273598Y443216D01*
X273077Y442868D01*
X272729Y442347D01*
X272607Y441732D01*
X272729Y441118D01*
X273077Y440597D01*
X273598Y440249D01*
X274213Y440127D01*
X274511Y440186D01*
X274758Y439725D01*
X273154Y438121D01*
X267299D01*
X263537Y441883D01*
X263016Y442232D01*
X262402Y442354D01*
X262402Y442354D01*
X255706D01*
X255554Y442854D01*
X255564Y442861D01*
X255913Y443382D01*
X256035Y443996D01*
X255913Y444611D01*
X255564Y445131D01*
X255431Y445221D01*
Y445822D01*
X255564Y445912D01*
X255913Y446433D01*
X256035Y447047D01*
X255913Y447662D01*
X255564Y448183D01*
X255044Y448531D01*
X254588Y448621D01*
X254468Y448802D01*
X254658Y449282D01*
X254724Y449339D01*
X255044Y449402D01*
X255564Y449751D01*
X255913Y450271D01*
X256035Y450886D01*
X255949Y451314D01*
X260388Y455753D01*
X260586Y456049D01*
X260655Y456398D01*
Y462894D01*
X260586Y463242D01*
X260388Y463538D01*
X260116Y463810D01*
X260169Y464075D01*
X260046Y464689D01*
X259698Y465210D01*
X259177Y465558D01*
X258563Y465681D01*
X257948Y465558D01*
X257795Y465456D01*
X257623Y465508D01*
X257291Y465720D01*
X257192Y466215D01*
X256844Y466736D01*
X256323Y467084D01*
X255709Y467206D01*
X255094Y467084D01*
X254573Y466736D01*
X254225Y466215D01*
X254103Y465600D01*
X254225Y464986D01*
X254573Y464465D01*
X254797Y464315D01*
Y463468D01*
X254572Y463243D01*
X254375Y462947D01*
X254305Y462598D01*
Y457567D01*
X250953Y454215D01*
X250491Y454407D01*
Y458457D01*
X252120Y460085D01*
X252120Y460085D01*
X252468Y460606D01*
X252590Y461221D01*
X252468Y461835D01*
X252120Y462356D01*
X251599Y462704D01*
X250984Y462826D01*
X250370Y462704D01*
X249849Y462356D01*
X249849Y462356D01*
X247750Y460257D01*
X245398Y457905D01*
X243832D01*
X243832Y457905D01*
Y464272D01*
X243707Y464573D01*
X243406Y464698D01*
X237703D01*
X237511Y465160D01*
X241519Y469168D01*
X243504D01*
X243853Y469237D01*
X244148Y469434D01*
X244453Y469739D01*
X244882Y469654D01*
X245496Y469776D01*
X246017Y470124D01*
X246365Y470645D01*
X246487Y471260D01*
X246365Y471874D01*
X246017Y472395D01*
X245496Y472743D01*
X244882Y472865D01*
X244267Y472743D01*
X243746Y472395D01*
X243398Y471874D01*
X243276Y471260D01*
X242854Y470990D01*
X241142D01*
X240793Y470921D01*
X240497Y470723D01*
X233017Y463243D01*
X232820Y462947D01*
X232750Y462598D01*
Y452243D01*
X232441Y451933D01*
X232427Y451924D01*
X228785Y448282D01*
X228587Y447987D01*
X228518Y447638D01*
Y414048D01*
X228195Y413832D01*
X227847Y413311D01*
X227725Y412697D01*
X227847Y412082D01*
X228195Y411561D01*
X228716Y411213D01*
X229331Y411091D01*
X229945Y411213D01*
X230466Y411561D01*
X230814Y412082D01*
X230936Y412697D01*
X230873Y413015D01*
X230875Y413023D01*
X230805Y413372D01*
X230608Y413667D01*
X230512Y413763D01*
X230466Y413832D01*
X230397Y413878D01*
X230340Y413935D01*
Y447260D01*
X233706Y450626D01*
X233720Y450635D01*
X234113Y451028D01*
X234613Y450821D01*
X234613Y415846D01*
X234613Y415846D01*
X234738Y415545D01*
X234738Y415545D01*
X244062Y406221D01*
X244062Y398622D01*
X244062Y398622D01*
X244187Y398321D01*
X244187Y398321D01*
X263281Y379226D01*
X263583Y379101D01*
X276838Y379101D01*
Y354207D01*
X274433Y351802D01*
X249287D01*
X243754Y357336D01*
X243233Y357684D01*
X242618Y357806D01*
X242618Y357806D01*
X236417D01*
X236417Y357806D01*
X235803Y357684D01*
X235282Y357336D01*
X235282Y357336D01*
X231985Y354039D01*
X231637Y353518D01*
X231514Y352904D01*
X231514Y352904D01*
Y350017D01*
X231512Y350015D01*
X231187Y350189D01*
X229142D01*
Y348319D01*
X229647D01*
X229838Y347857D01*
X229225Y347244D01*
X226378D01*
Y342717D01*
X227552D01*
X229081Y341188D01*
X229081Y341188D01*
X229602Y340839D01*
X230217Y340717D01*
X230217Y340717D01*
X231511D01*
X231681Y340217D01*
X231654Y340196D01*
X231181Y339580D01*
X230883Y338861D01*
X230782Y338090D01*
Y330610D01*
X230883Y329839D01*
X231181Y329121D01*
X231654Y328504D01*
X232271Y328031D01*
X232989Y327733D01*
X233760Y327632D01*
X234531Y327733D01*
X235249Y328031D01*
X235866Y328504D01*
X236339Y329121D01*
X236637Y329839D01*
X236738Y330610D01*
Y338090D01*
X236637Y338861D01*
X236339Y339580D01*
X235866Y340196D01*
X235372Y340576D01*
X235321Y341003D01*
X235356Y341167D01*
X235387Y341188D01*
X235803Y341603D01*
X236634D01*
X237248Y341725D01*
X237769Y342073D01*
X238117Y342594D01*
X238240Y343209D01*
Y346752D01*
X238117Y347366D01*
X237769Y347887D01*
X237248Y348235D01*
X236634Y348358D01*
X236019Y348235D01*
X235498Y347887D01*
X235150Y347366D01*
X235028Y346752D01*
Y344793D01*
X234523Y344692D01*
X234002Y344344D01*
X233587Y343929D01*
X231016D01*
X230951Y344428D01*
X234255Y347733D01*
X234256Y347733D01*
X234604Y348254D01*
X234726Y348868D01*
Y352238D01*
X237082Y354595D01*
X238881D01*
X239033Y354095D01*
X239022Y354088D01*
X238674Y353567D01*
X238552Y352953D01*
X238674Y352338D01*
X239022Y351817D01*
X239543Y351469D01*
X240158Y351347D01*
X240772Y351469D01*
X241245Y351785D01*
X241316D01*
X245385Y347717D01*
X245150Y347366D01*
X245028Y346752D01*
Y343209D01*
X245150Y342594D01*
X245498Y342073D01*
X246019Y341725D01*
X246634Y341603D01*
X247248Y341725D01*
X247769Y342073D01*
X248117Y342594D01*
X248239Y343209D01*
Y346752D01*
X248117Y347366D01*
X247769Y347887D01*
X247248Y348235D01*
X247241Y348237D01*
X247215Y348365D01*
X247018Y348661D01*
X242337Y353341D01*
X242042Y353538D01*
X241693Y353608D01*
X241614D01*
X241293Y354088D01*
X241282Y354095D01*
X241434Y354595D01*
X241953D01*
X247487Y349061D01*
X247487Y349061D01*
X248008Y348713D01*
X248622Y348591D01*
X250652D01*
X250804Y348091D01*
X250499Y347887D01*
X250150Y347366D01*
X250028Y346752D01*
Y343209D01*
X250150Y342594D01*
X250499Y342073D01*
X250723Y341923D01*
Y341772D01*
X250792Y341423D01*
X250990Y341127D01*
X252702Y339415D01*
X252998Y339217D01*
X253346Y339148D01*
X274016D01*
X274364Y339217D01*
X274660Y339415D01*
X280959Y345714D01*
X281157Y346010D01*
X281226Y346358D01*
Y348715D01*
X281450Y348865D01*
X281798Y349385D01*
X281921Y350000D01*
X281798Y350615D01*
X281450Y351135D01*
X280929Y351483D01*
X280315Y351606D01*
X279700Y351483D01*
X279180Y351135D01*
X278832Y350615D01*
X278709Y350000D01*
X278832Y349385D01*
X279180Y348865D01*
X279404Y348715D01*
Y346736D01*
X273638Y340970D01*
X253724D01*
X252756Y341938D01*
X252769Y342073D01*
X253117Y342594D01*
X253239Y343209D01*
Y346752D01*
X253117Y347366D01*
X252769Y347887D01*
X252464Y348091D01*
X252616Y348591D01*
X255652D01*
X255804Y348091D01*
X255499Y347887D01*
X255150Y347366D01*
X255028Y346752D01*
Y343209D01*
X255150Y342594D01*
X255499Y342073D01*
X256019Y341725D01*
X256634Y341603D01*
X257248Y341725D01*
X257769Y342073D01*
X258117Y342594D01*
X258240Y343209D01*
Y346752D01*
X258117Y347366D01*
X257769Y347887D01*
X257464Y348091D01*
X257616Y348591D01*
X260652D01*
X260804Y348091D01*
X260498Y347887D01*
X260150Y347366D01*
X260028Y346752D01*
Y343209D01*
X260150Y342594D01*
X260498Y342073D01*
X261019Y341725D01*
X261634Y341603D01*
X262248Y341725D01*
X262769Y342073D01*
X263117Y342594D01*
X263240Y343209D01*
Y346752D01*
X263117Y347366D01*
X262769Y347887D01*
X262464Y348091D01*
X262616Y348591D01*
X265652D01*
X265804Y348091D01*
X265498Y347887D01*
X265150Y347366D01*
X265028Y346752D01*
Y343209D01*
X265150Y342594D01*
X265498Y342073D01*
X266019Y341725D01*
X266634Y341603D01*
X267248Y341725D01*
X267769Y342073D01*
X268117Y342594D01*
X268239Y343209D01*
Y346752D01*
X268117Y347366D01*
X267769Y347887D01*
X267464Y348091D01*
X267616Y348591D01*
X270652D01*
X270804Y348091D01*
X270498Y347887D01*
X270150Y347366D01*
X270028Y346752D01*
Y343209D01*
X270150Y342594D01*
X270498Y342073D01*
X271019Y341725D01*
X271634Y341603D01*
X272248Y341725D01*
X272769Y342073D01*
X273117Y342594D01*
X273239Y343209D01*
Y346752D01*
X273117Y347366D01*
X272769Y347887D01*
X272464Y348091D01*
X272616Y348591D01*
X275098D01*
X275098Y348591D01*
X275713Y348713D01*
X276234Y349061D01*
X280782Y353609D01*
X285827Y353609D01*
X286128Y353734D01*
X286253Y354035D01*
X286253Y386197D01*
X286753Y386697D01*
X304209Y386697D01*
X304611Y386267D01*
Y332201D01*
X299114D01*
X298807Y332139D01*
X298547Y331965D01*
X298373Y331705D01*
X298311Y331398D01*
Y323933D01*
X215271D01*
Y331398D01*
X215210Y331705D01*
X215036Y331965D01*
X214776Y332139D01*
X214469Y332201D01*
X208578D01*
Y368373D01*
X222342D01*
X222644Y368498D01*
X222769Y368799D01*
Y375037D01*
X222808Y375335D01*
X222769Y375632D01*
Y379134D01*
X222644Y379435D01*
X222342Y379560D01*
X215879D01*
Y382527D01*
X216193Y382633D01*
X216379Y382659D01*
X217149Y382068D01*
X218059Y381691D01*
X219035Y381562D01*
X220012Y381691D01*
X220922Y382068D01*
X221703Y382667D01*
X222302Y383448D01*
X222679Y384358D01*
X222808Y385335D01*
X222679Y386311D01*
X222302Y387221D01*
X221703Y388002D01*
X220922Y388602D01*
X220012Y388979D01*
X219035Y389107D01*
X218059Y388979D01*
X217149Y388602D01*
X216379Y388011D01*
X216193Y388036D01*
X215879Y388143D01*
Y391595D01*
X222776D01*
Y399075D01*
X215879D01*
Y409416D01*
X219459Y409416D01*
X219609Y409478D01*
X219758Y409539D01*
X223330Y413050D01*
X223331Y413052D01*
X223333Y413053D01*
X223395Y413202D01*
X223458Y413350D01*
X223457Y413352D01*
X223458Y413354D01*
X223458Y438386D01*
X223333Y438687D01*
X223333Y438687D01*
X222647Y439373D01*
X225643Y442369D01*
X225643Y442369D01*
X225991Y442889D01*
X226114Y443504D01*
X226114Y443504D01*
Y482996D01*
X227120Y484002D01*
X227120Y484002D01*
X227468Y484523D01*
X227590Y485138D01*
X227590Y485138D01*
Y486221D01*
X227468Y486835D01*
X227120Y487356D01*
X226599Y487704D01*
X225984Y487826D01*
X225370Y487704D01*
X224849Y487356D01*
X224501Y486835D01*
X224379Y486221D01*
Y485803D01*
X223373Y484797D01*
X223024Y484276D01*
X222902Y483661D01*
X222902Y483661D01*
Y471858D01*
X222440Y471666D01*
X220479Y473628D01*
X220177Y473753D01*
X208932Y473753D01*
X208932Y473753D01*
X208578Y474148D01*
Y489075D01*
X218701D01*
X237226Y507600D01*
Y522917D01*
X231102Y522942D01*
Y565733D01*
X240241D01*
Y552165D01*
X240302Y551858D01*
X240476Y551598D01*
X240736Y551424D01*
X241043Y551363D01*
X241351Y551424D01*
X241406Y551461D01*
X271783D01*
X271838Y551424D01*
X272146Y551363D01*
X272453Y551424D01*
X272713Y551598D01*
X272887Y551858D01*
X272949Y552165D01*
Y565733D01*
X299801Y565733D01*
X299902Y565733D01*
X300295Y565748D01*
X300770Y565688D01*
D02*
G37*
G36*
X247280Y454617D02*
Y448566D01*
X247280Y448566D01*
X247402Y447952D01*
X247485Y447829D01*
Y443814D01*
X247485Y443814D01*
X247607Y443199D01*
X247955Y442678D01*
X251021Y439613D01*
X251021Y439613D01*
X251541Y439265D01*
X252156Y439142D01*
X252156Y439142D01*
X261736D01*
X265498Y435380D01*
X265498Y435380D01*
X266019Y435032D01*
X266634Y434910D01*
X266634Y434910D01*
X273819D01*
X273819Y434910D01*
X274433Y435032D01*
X274954Y435380D01*
X279405Y439831D01*
X280275D01*
X280275Y439831D01*
X280890Y439954D01*
X281411Y440302D01*
X282811Y441701D01*
X284037D01*
X284111Y441478D01*
X284120Y441201D01*
X283668Y440899D01*
X283667Y440899D01*
X274984Y432216D01*
X261295D01*
X255368Y438143D01*
X254847Y438491D01*
X254232Y438614D01*
X254232Y438614D01*
X252500D01*
X251886Y438491D01*
X251365Y438143D01*
X251365Y438143D01*
X241969Y428748D01*
X241469Y428955D01*
Y431856D01*
X241739Y432260D01*
X241862Y432874D01*
X241739Y433489D01*
X241469Y433892D01*
X241470Y450185D01*
X241461Y450205D01*
X241467Y450226D01*
X241400Y450353D01*
X241345Y450486D01*
X241567Y450917D01*
X241588Y450932D01*
X241936Y451452D01*
X242058Y452067D01*
Y452681D01*
X244071Y454694D01*
X246063D01*
X246063Y454694D01*
X246677Y454816D01*
X246780Y454884D01*
X247280Y454617D01*
D02*
G37*
G36*
X220177Y473327D02*
X222835Y470669D01*
Y444553D01*
X220165Y441929D01*
X208578D01*
Y472973D01*
X208932Y473327D01*
X220177Y473327D01*
D02*
G37*
G36*
X223031Y438386D02*
X223031Y413354D01*
X219459Y409842D01*
X215453Y409842D01*
Y399075D01*
X215295D01*
Y391595D01*
X215453D01*
Y386459D01*
X215392Y386311D01*
X215263Y385335D01*
X215392Y384358D01*
X215453Y384210D01*
Y379134D01*
X222342D01*
Y368799D01*
X208578D01*
Y409842D01*
Y441240D01*
X220177D01*
X223031Y438386D01*
D02*
G37*
G36*
X304209Y409472D02*
Y387500D01*
X268504Y387500D01*
X254035Y401968D01*
X254035Y407874D01*
X272244Y407874D01*
X272244Y419095D01*
X261319D01*
Y424016D01*
X289665D01*
X304209Y409472D01*
D02*
G37*
G36*
X243406Y457905D02*
X243406Y457905D01*
X242791Y457783D01*
X242270Y457435D01*
X239317Y454482D01*
X238969Y453961D01*
X238847Y453346D01*
X238847Y453346D01*
Y452067D01*
X238969Y451452D01*
X239317Y450932D01*
X239838Y450584D01*
X240453Y450461D01*
X240657Y450502D01*
X241043Y450185D01*
X241043Y419980D01*
X253233Y407791D01*
X253233Y401968D01*
X253294Y401661D01*
X253468Y401401D01*
X267936Y386932D01*
X268197Y386758D01*
X268504Y386697D01*
X285827Y386697D01*
X285827Y354035D01*
X277264Y354035D01*
Y379528D01*
X263583Y379528D01*
X244488Y398622D01*
X244488Y406398D01*
X235039Y415846D01*
X235039Y462500D01*
X236811Y464272D01*
X243406D01*
Y457905D01*
D02*
G37*
%LPC*%
G36*
X255709Y480247D02*
X255094Y480125D01*
X254573Y479777D01*
X254225Y479256D01*
X254103Y478642D01*
X254225Y478027D01*
X254573Y477506D01*
X255094Y477158D01*
X255644Y477049D01*
X262081Y470612D01*
Y446364D01*
X261857Y446214D01*
X261509Y445693D01*
X261386Y445079D01*
X261509Y444464D01*
X261857Y443943D01*
X262378Y443595D01*
X262992Y443473D01*
X263607Y443595D01*
X264127Y443943D01*
X264476Y444464D01*
X264598Y445079D01*
X264476Y445693D01*
X264127Y446214D01*
X263903Y446364D01*
Y470990D01*
X263834Y471338D01*
X263636Y471634D01*
X257201Y478070D01*
X257314Y478642D01*
X257192Y479256D01*
X256844Y479777D01*
X256323Y480125D01*
X255709Y480247D01*
D02*
G37*
G36*
X257776Y428476D02*
X257161Y428354D01*
X256640Y428006D01*
X256292Y427485D01*
X256170Y426870D01*
X256223Y426606D01*
X254248Y424632D01*
X248917D01*
X248569Y424562D01*
X248273Y424365D01*
X247414Y423506D01*
X246895Y423539D01*
X246805Y423675D01*
X246284Y424023D01*
X245669Y424145D01*
X245055Y424023D01*
X244534Y423675D01*
X244186Y423154D01*
X244064Y422539D01*
X244186Y421925D01*
X244534Y421404D01*
X244668Y421314D01*
Y420713D01*
X244534Y420624D01*
X244186Y420103D01*
X244064Y419488D01*
X244186Y418874D01*
X244534Y418353D01*
X245055Y418005D01*
X245669Y417882D01*
X246284Y418005D01*
X246805Y418353D01*
X246986Y418623D01*
X247101Y418646D01*
X247396Y418844D01*
X249968Y421416D01*
X255887D01*
X256009Y421233D01*
X256530Y420885D01*
X257145Y420762D01*
X257759Y420885D01*
X258280Y421233D01*
X258628Y421754D01*
X258750Y422368D01*
X258628Y422983D01*
X258280Y423503D01*
X257759Y423852D01*
X257145Y423974D01*
X256808Y423907D01*
X256562Y424368D01*
X257511Y425317D01*
X257776Y425264D01*
X258390Y425387D01*
X258911Y425735D01*
X259259Y426256D01*
X259381Y426870D01*
X259259Y427485D01*
X258911Y428006D01*
X258390Y428354D01*
X257776Y428476D01*
D02*
G37*
G36*
X229035Y399107D02*
X228059Y398978D01*
X227149Y398602D01*
X226368Y398002D01*
X225768Y397221D01*
X225392Y396311D01*
X225263Y395335D01*
X225392Y394358D01*
X225768Y393448D01*
X226368Y392667D01*
X227149Y392068D01*
X228059Y391691D01*
X229035Y391562D01*
X230012Y391691D01*
X230922Y392068D01*
X231703Y392667D01*
X232302Y393448D01*
X232679Y394358D01*
X232808Y395335D01*
X232679Y396311D01*
X232302Y397221D01*
X231703Y398002D01*
X230922Y398602D01*
X230012Y398978D01*
X229035Y399107D01*
D02*
G37*
G36*
X239476Y390461D02*
X237606D01*
Y388591D01*
X239476D01*
Y390461D01*
D02*
G37*
G36*
X236606D02*
X234736D01*
Y388591D01*
X236606D01*
Y390461D01*
D02*
G37*
G36*
X239476Y387591D02*
X237606D01*
Y385720D01*
X239476D01*
Y387591D01*
D02*
G37*
G36*
X236606D02*
X234736D01*
Y385720D01*
X236606D01*
Y387591D01*
D02*
G37*
G36*
X239476Y384654D02*
X237606D01*
Y382784D01*
X239476D01*
Y384654D01*
D02*
G37*
G36*
X246760Y385047D02*
X244004D01*
Y382784D01*
X246760D01*
Y385047D01*
D02*
G37*
G36*
X243004D02*
X240248D01*
Y382784D01*
X243004D01*
Y385047D01*
D02*
G37*
G36*
X236606Y384654D02*
X234736D01*
Y382784D01*
X236606D01*
Y384654D01*
D02*
G37*
G36*
X229035Y389107D02*
X228059Y388979D01*
X227149Y388602D01*
X226368Y388002D01*
X225768Y387221D01*
X225392Y386311D01*
X225263Y385335D01*
X225392Y384358D01*
X225768Y383448D01*
X226368Y382667D01*
X227149Y382068D01*
X228059Y381691D01*
X229035Y381562D01*
X230012Y381691D01*
X230922Y382068D01*
X231703Y382667D01*
X232302Y383448D01*
X232679Y384358D01*
X232808Y385335D01*
X232679Y386311D01*
X232302Y387221D01*
X231703Y388002D01*
X230922Y388602D01*
X230012Y388979D01*
X229035Y389107D01*
D02*
G37*
G36*
X239476Y381784D02*
X237606D01*
Y379913D01*
X239476D01*
Y381784D01*
D02*
G37*
G36*
X236606D02*
X234736D01*
Y379913D01*
X236606D01*
Y381784D01*
D02*
G37*
G36*
X246760D02*
X244004D01*
Y379520D01*
X246760D01*
Y381784D01*
D02*
G37*
G36*
X243004D02*
X240248D01*
Y379520D01*
X243004D01*
Y381784D01*
D02*
G37*
G36*
X255421Y378748D02*
X252665D01*
Y376484D01*
X255421D01*
Y378748D01*
D02*
G37*
G36*
X251665D02*
X248909D01*
Y376484D01*
X251665D01*
Y378748D01*
D02*
G37*
G36*
X229535Y379149D02*
Y375835D01*
X232849D01*
X232783Y376339D01*
X232395Y377274D01*
X231779Y378078D01*
X230975Y378695D01*
X230040Y379082D01*
X229535Y379149D01*
D02*
G37*
G36*
X228535D02*
X228031Y379082D01*
X227096Y378695D01*
X226292Y378078D01*
X225676Y377274D01*
X225288Y376339D01*
X225222Y375835D01*
X228535D01*
Y379149D01*
D02*
G37*
G36*
X245079Y390354D02*
X240551D01*
Y385827D01*
X245079D01*
Y387179D01*
X245981D01*
X248998Y384162D01*
Y384047D01*
X249016Y383959D01*
Y379626D01*
X254026D01*
X254080Y379572D01*
X254376Y379375D01*
X254724Y379305D01*
X259367D01*
X259962Y378710D01*
X259771Y378248D01*
X256496D01*
Y375009D01*
X255883Y374396D01*
X255421Y374588D01*
Y375484D01*
X252165D01*
X248909D01*
Y374784D01*
X248447Y374593D01*
X247818Y375222D01*
X247523Y375420D01*
X247174Y375489D01*
X246654D01*
Y378642D01*
X240354D01*
Y377486D01*
X239370D01*
Y378839D01*
X234842D01*
Y374311D01*
X239370D01*
Y375664D01*
X240354D01*
Y373535D01*
X239838Y373432D01*
X239317Y373084D01*
X238969Y372563D01*
X238847Y371949D01*
X238906Y371654D01*
X238451Y371416D01*
X238182Y371662D01*
X238220Y371850D01*
X238098Y372465D01*
X237750Y372986D01*
X237229Y373334D01*
X236614Y373456D01*
X236000Y373334D01*
X235479Y372986D01*
X235131Y372465D01*
X235009Y371850D01*
X235131Y371236D01*
X235479Y370715D01*
X235856Y370463D01*
X235885Y370349D01*
X235877Y369974D01*
X235856Y369907D01*
X235422Y369618D01*
X235050Y369061D01*
X234920Y368406D01*
Y367134D01*
X236634D01*
Y366634D01*
D01*
Y367134D01*
X238348D01*
Y368121D01*
X238848Y368328D01*
X239405Y367771D01*
X239700Y367574D01*
X240028Y367508D01*
Y364862D01*
X240150Y364248D01*
X240498Y363727D01*
X241019Y363379D01*
X241634Y363257D01*
X242248Y363379D01*
X242769Y363727D01*
X243117Y364248D01*
X243239Y364862D01*
Y368406D01*
X243117Y369020D01*
X242769Y369541D01*
X242248Y369889D01*
X241634Y370011D01*
X241019Y369889D01*
X240498Y369541D01*
X240238Y369515D01*
X239788Y369966D01*
X240034Y370427D01*
X240453Y370343D01*
X241067Y370465D01*
X241533Y370777D01*
X241537D01*
X241711Y370742D01*
X244898D01*
X245519Y370121D01*
X245498Y369541D01*
X245150Y369020D01*
X245028Y368406D01*
Y364862D01*
X245150Y364248D01*
X245498Y363727D01*
X246019Y363379D01*
X246634Y363257D01*
X247248Y363379D01*
X247769Y363727D01*
X248117Y364248D01*
X248239Y364862D01*
Y368406D01*
X248117Y369020D01*
X247769Y369541D01*
X247545Y369691D01*
Y370295D01*
X247476Y370644D01*
X247278Y370940D01*
X245920Y372298D01*
X245624Y372495D01*
X245276Y372565D01*
X242169D01*
X241999Y372839D01*
X242266Y373327D01*
X246654D01*
Y373327D01*
X247149Y373315D01*
X248962Y371501D01*
X249258Y371304D01*
X249606Y371234D01*
X254921D01*
X255270Y371304D01*
X255566Y371501D01*
X257785Y373721D01*
X259735D01*
X262052Y371403D01*
X262348Y371205D01*
X262697Y371136D01*
X264780D01*
X265723Y370193D01*
Y369691D01*
X265498Y369541D01*
X265150Y369020D01*
X265028Y368406D01*
Y364862D01*
X265150Y364248D01*
X265498Y363727D01*
X266019Y363379D01*
X266634Y363257D01*
X267248Y363379D01*
X267769Y363727D01*
X268117Y364248D01*
X268239Y364862D01*
Y368406D01*
X268117Y369020D01*
X267769Y369541D01*
X267545Y369691D01*
Y370571D01*
X267476Y370920D01*
X267278Y371215D01*
X265802Y372692D01*
X265506Y372889D01*
X265158Y372958D01*
X263127D01*
X262892Y373251D01*
X263097Y373721D01*
X266732D01*
Y373721D01*
X267232Y373900D01*
X270723Y370410D01*
Y369691D01*
X270498Y369541D01*
X270150Y369020D01*
X270028Y368406D01*
Y364862D01*
X270150Y364248D01*
X270498Y363727D01*
X271019Y363379D01*
X271634Y363257D01*
X272248Y363379D01*
X272769Y363727D01*
X273117Y364248D01*
X273239Y364862D01*
Y368406D01*
X273117Y369020D01*
X272769Y369541D01*
X272545Y369691D01*
Y370787D01*
X272476Y371136D01*
X272278Y371432D01*
X267897Y375813D01*
X267601Y376010D01*
X267253Y376080D01*
X266732D01*
Y378248D01*
X263001D01*
X260388Y380861D01*
X260093Y381058D01*
X259744Y381128D01*
X255315D01*
Y384941D01*
X250716D01*
X250554Y385184D01*
X247003Y388735D01*
X246707Y388932D01*
X246358Y389002D01*
X245079D01*
Y390354D01*
D02*
G37*
G36*
X232849Y374835D02*
X229535D01*
Y371521D01*
X230040Y371587D01*
X230975Y371975D01*
X231779Y372591D01*
X232395Y373395D01*
X232783Y374330D01*
X232849Y374835D01*
D02*
G37*
G36*
X228535D02*
X225222D01*
X225288Y374330D01*
X225676Y373395D01*
X226292Y372591D01*
X227096Y371975D01*
X228031Y371587D01*
X228535Y371521D01*
Y374835D01*
D02*
G37*
G36*
X231012Y368020D02*
X229142D01*
Y366150D01*
X231012D01*
Y368020D01*
D02*
G37*
G36*
X228142D02*
X226272D01*
Y366150D01*
X228142D01*
Y368020D01*
D02*
G37*
G36*
X231012Y365150D02*
X229142D01*
Y363280D01*
X231012D01*
Y365150D01*
D02*
G37*
G36*
X228142D02*
X226272D01*
Y363280D01*
X228142D01*
Y365150D01*
D02*
G37*
G36*
X238348Y366134D02*
X237134D01*
Y363248D01*
X237290Y363279D01*
X237846Y363650D01*
X238217Y364206D01*
X238348Y364862D01*
Y366134D01*
D02*
G37*
G36*
X236134D02*
X234920D01*
Y364862D01*
X235050Y364206D01*
X235422Y363650D01*
X235978Y363279D01*
X236134Y363248D01*
Y366134D01*
D02*
G37*
G36*
X251634Y370011D02*
X251019Y369889D01*
X250499Y369541D01*
X250150Y369020D01*
X250028Y368406D01*
Y364862D01*
X250150Y364248D01*
X250195Y364181D01*
X247851Y361836D01*
X230906D01*
Y362205D01*
X226378D01*
Y357677D01*
X230906D01*
Y360014D01*
X248228D01*
X248577Y360083D01*
X248873Y360281D01*
X251902Y363310D01*
X252248Y363379D01*
X252769Y363727D01*
X253117Y364248D01*
X253239Y364862D01*
Y368406D01*
X253117Y369020D01*
X252769Y369541D01*
X252248Y369889D01*
X251634Y370011D01*
D02*
G37*
G36*
X261634D02*
X261019Y369889D01*
X260498Y369541D01*
X260150Y369020D01*
X260028Y368406D01*
Y364862D01*
X260150Y364248D01*
X260498Y363727D01*
X260723Y363577D01*
Y362405D01*
X256485Y358168D01*
X256155Y358213D01*
X255956Y358721D01*
X257278Y360044D01*
X257476Y360339D01*
X257545Y360688D01*
Y363577D01*
X257769Y363727D01*
X258117Y364248D01*
X258240Y364862D01*
Y368406D01*
X258117Y369020D01*
X257769Y369541D01*
X257248Y369889D01*
X256634Y370011D01*
X256019Y369889D01*
X255499Y369541D01*
X255150Y369020D01*
X255028Y368406D01*
Y364862D01*
X255150Y364248D01*
X255499Y363727D01*
X255723Y363577D01*
Y361065D01*
X253336Y358679D01*
X250780D01*
X250431Y358610D01*
X250135Y358412D01*
X249674Y357951D01*
X249410Y358003D01*
X248795Y357881D01*
X248274Y357533D01*
X247926Y357012D01*
X247804Y356398D01*
X247926Y355783D01*
X248274Y355262D01*
X248795Y354914D01*
X249410Y354792D01*
X250024Y354914D01*
X250545Y355262D01*
X250893Y355783D01*
X251015Y356398D01*
X251011Y356417D01*
X251388Y356856D01*
X253714D01*
X254062Y356926D01*
X254074Y356933D01*
X254524Y356633D01*
X254497Y356496D01*
X254619Y355882D01*
X254967Y355361D01*
X255488Y355013D01*
X256102Y354890D01*
X256717Y355013D01*
X257238Y355361D01*
X257586Y355882D01*
X257708Y356496D01*
X257655Y356761D01*
X262278Y361383D01*
X262476Y361679D01*
X262545Y362028D01*
Y363577D01*
X262769Y363727D01*
X263117Y364248D01*
X263240Y364862D01*
Y368406D01*
X263117Y369020D01*
X262769Y369541D01*
X262248Y369889D01*
X261634Y370011D01*
D02*
G37*
G36*
X297047Y358987D02*
X295472D01*
X294547Y358865D01*
X293686Y358508D01*
X292945Y357941D01*
X292377Y357200D01*
X292020Y356338D01*
X291899Y355413D01*
X292020Y354488D01*
X292377Y353626D01*
X292945Y352886D01*
X293686Y352318D01*
X294547Y351961D01*
X295472Y351839D01*
X297047D01*
X297972Y351961D01*
X298834Y352318D01*
X299574Y352886D01*
X300142Y353626D01*
X300499Y354488D01*
X300621Y355413D01*
X300499Y356338D01*
X300142Y357200D01*
X299574Y357941D01*
X298834Y358508D01*
X297972Y358865D01*
X297047Y358987D01*
D02*
G37*
G36*
X217815D02*
X216240D01*
X215315Y358865D01*
X214453Y358508D01*
X213713Y357941D01*
X213145Y357200D01*
X212788Y356338D01*
X212666Y355413D01*
X212788Y354488D01*
X213145Y353626D01*
X213713Y352886D01*
X214453Y352318D01*
X215315Y351961D01*
X216240Y351839D01*
X217815D01*
X218740Y351961D01*
X219602Y352318D01*
X220342Y352886D01*
X220910Y353626D01*
X221267Y354488D01*
X221389Y355413D01*
X221267Y356338D01*
X220910Y357200D01*
X220342Y357941D01*
X219602Y358508D01*
X218740Y358865D01*
X217815Y358987D01*
D02*
G37*
G36*
X231012Y353059D02*
X229142D01*
Y351189D01*
X231012D01*
Y353059D01*
D02*
G37*
G36*
X228142D02*
X226272D01*
Y351189D01*
X228142D01*
Y353059D01*
D02*
G37*
G36*
Y350189D02*
X226272D01*
Y348319D01*
X228142D01*
Y350189D01*
D02*
G37*
G36*
X300697Y349063D02*
X296760D01*
Y345913D01*
X300697D01*
Y349063D01*
D02*
G37*
G36*
X221465D02*
X217528D01*
Y345913D01*
X221465D01*
Y349063D01*
D02*
G37*
G36*
X295760D02*
X291823D01*
Y345913D01*
X295760D01*
Y349063D01*
D02*
G37*
G36*
X216528D02*
X212591D01*
Y345913D01*
X216528D01*
Y349063D01*
D02*
G37*
G36*
X300697Y344913D02*
X296760D01*
Y341764D01*
X300697D01*
Y344913D01*
D02*
G37*
G36*
X295760D02*
X291823D01*
Y341764D01*
X295760D01*
Y344913D01*
D02*
G37*
G36*
X221465D02*
X217528D01*
Y341764D01*
X221465D01*
Y344913D01*
D02*
G37*
G36*
X216528D02*
X212591D01*
Y341764D01*
X216528D01*
Y344913D01*
D02*
G37*
G36*
X241634Y348358D02*
X241019Y348235D01*
X240498Y347887D01*
X240150Y347366D01*
X240028Y346752D01*
Y343209D01*
X240150Y342594D01*
X240498Y342073D01*
X241019Y341725D01*
X241634Y341603D01*
X242248Y341725D01*
X242769Y342073D01*
X243117Y342594D01*
X243239Y343209D01*
Y346752D01*
X243117Y347366D01*
X242769Y347887D01*
X242248Y348235D01*
X241634Y348358D01*
D02*
G37*
G36*
X227567Y336032D02*
X223630D01*
Y332882D01*
X227567D01*
Y336032D01*
D02*
G37*
G36*
X222630D02*
X218693D01*
Y332882D01*
X222630D01*
Y336032D01*
D02*
G37*
G36*
X265650Y336931D02*
X264982Y336844D01*
X264359Y336586D01*
X263825Y336175D01*
X263414Y335641D01*
X263156Y335018D01*
X263069Y334350D01*
X263156Y333682D01*
X263414Y333060D01*
X263825Y332525D01*
X264359Y332115D01*
X264982Y331857D01*
X265650Y331769D01*
X266318Y331857D01*
X266940Y332115D01*
X267475Y332525D01*
X267885Y333060D01*
X268143Y333682D01*
X268231Y334350D01*
X268143Y335018D01*
X267885Y335641D01*
X267475Y336175D01*
X266940Y336586D01*
X266318Y336844D01*
X265650Y336931D01*
D02*
G37*
G36*
X247933D02*
X247265Y336844D01*
X246642Y336586D01*
X246108Y336175D01*
X245698Y335641D01*
X245440Y335018D01*
X245352Y334350D01*
X245440Y333682D01*
X245698Y333060D01*
X246108Y332525D01*
X246642Y332115D01*
X247265Y331857D01*
X247933Y331769D01*
X248601Y331857D01*
X249224Y332115D01*
X249758Y332525D01*
X250168Y333060D01*
X250426Y333682D01*
X250514Y334350D01*
X250426Y335018D01*
X250168Y335641D01*
X249758Y336175D01*
X249224Y336586D01*
X248601Y336844D01*
X247933Y336931D01*
D02*
G37*
G36*
X294685Y335925D02*
X286024D01*
Y328839D01*
X294685D01*
Y335925D01*
D02*
G37*
G36*
X227567Y331882D02*
X223630D01*
Y328732D01*
X227567D01*
Y331882D01*
D02*
G37*
G36*
X222630D02*
X218693D01*
Y328732D01*
X222630D01*
Y331882D01*
D02*
G37*
G36*
X279823Y341069D02*
X279052Y340967D01*
X278334Y340670D01*
X277717Y340196D01*
X277244Y339580D01*
X276946Y338861D01*
X276845Y338090D01*
Y330610D01*
X276946Y329839D01*
X277244Y329121D01*
X277717Y328504D01*
X278334Y328031D01*
X279052Y327733D01*
X279823Y327632D01*
X280594Y327733D01*
X281312Y328031D01*
X281929Y328504D01*
X282402Y329121D01*
X282700Y329839D01*
X282801Y330610D01*
Y338090D01*
X282700Y338861D01*
X282402Y339580D01*
X281929Y340196D01*
X281312Y340670D01*
X280594Y340967D01*
X279823Y341069D01*
D02*
G37*
G36*
X256791Y332901D02*
X256097Y332809D01*
X255449Y332541D01*
X254893Y332115D01*
X254467Y331559D01*
X254198Y330911D01*
X254107Y330217D01*
X254198Y329522D01*
X254467Y328874D01*
X254893Y328318D01*
X255449Y327892D01*
X256097Y327624D01*
X256791Y327532D01*
X257486Y327624D01*
X258134Y327892D01*
X258689Y328318D01*
X259116Y328874D01*
X259384Y329522D01*
X259476Y330217D01*
X259384Y330911D01*
X259116Y331559D01*
X258689Y332115D01*
X258134Y332541D01*
X257486Y332809D01*
X256791Y332901D01*
D02*
G37*
G36*
X297835Y395108D02*
X296961Y394993D01*
X296147Y394655D01*
X295448Y394119D01*
X294912Y393420D01*
X294574Y392606D01*
X294459Y391732D01*
X294574Y390859D01*
X294912Y390045D01*
X295448Y389346D01*
X296147Y388809D01*
X296961Y388472D01*
X297835Y388357D01*
X298708Y388472D01*
X299522Y388809D01*
X300221Y389346D01*
X300758Y390045D01*
X301095Y390859D01*
X301210Y391732D01*
X301095Y392606D01*
X300758Y393420D01*
X300221Y394119D01*
X299522Y394655D01*
X298708Y394993D01*
X297835Y395108D01*
D02*
G37*
G36*
X270276D02*
X269402Y394993D01*
X268588Y394655D01*
X267889Y394119D01*
X267353Y393420D01*
X267015Y392606D01*
X266900Y391732D01*
X267015Y390859D01*
X267353Y390045D01*
X267889Y389346D01*
X268588Y388809D01*
X269402Y388472D01*
X270276Y388357D01*
X271149Y388472D01*
X271963Y388809D01*
X272662Y389346D01*
X273199Y390045D01*
X273536Y390859D01*
X273651Y391732D01*
X273536Y392606D01*
X273199Y393420D01*
X272662Y394119D01*
X271963Y394655D01*
X271149Y394993D01*
X270276Y395108D01*
D02*
G37*
%LPD*%
D25*
X242815Y388091D02*
D03*
X237106D02*
D03*
X258760Y375984D02*
D03*
X264469D02*
D03*
D27*
X228642Y344980D02*
D03*
Y350689D02*
D03*
Y359941D02*
D03*
Y365650D02*
D03*
X237106Y376575D02*
D03*
Y382283D02*
D03*
D38*
X252165Y375984D02*
D03*
Y382283D02*
D03*
X243504Y375984D02*
D03*
Y382283D02*
D03*
D75*
X233760Y334350D02*
D03*
X279823D02*
D03*
D76*
X229331Y412697D02*
X229637D01*
X229964Y413023D01*
X253748Y444258D02*
X254429Y443577D01*
X255709Y463091D02*
Y465600D01*
X255217Y462598D02*
X255709Y463091D01*
X258563Y464075D02*
X259744Y462894D01*
X255217Y457190D02*
Y462598D01*
X259744Y456398D02*
Y462894D01*
X257480Y456871D02*
Y460728D01*
X276181Y449508D02*
X277003D01*
X266043Y495276D02*
X266043Y495276D01*
X266339Y494980D01*
X265650D02*
X265748D01*
X256791D02*
X265650D01*
X276181Y531791D02*
X281789D01*
X248228Y360925D02*
X251496Y364193D01*
X229626Y360925D02*
X248228D01*
X228642Y359941D02*
X229626Y360925D01*
X240158Y352953D02*
X240413Y352697D01*
X241693D01*
X246373Y345241D02*
X246634Y344980D01*
X246373Y345241D02*
Y348017D01*
X241693Y352697D02*
X246373Y348017D01*
X253346Y340059D02*
X274016D01*
X251634Y341772D02*
X253346Y340059D01*
X251634Y341772D02*
Y344980D01*
X280315Y346358D02*
Y350000D01*
X274016Y340059D02*
X280315Y346358D01*
X251496Y364193D02*
Y366496D01*
X251634Y366634D01*
X240049Y368415D02*
X241005D01*
X236614Y371850D02*
X240049Y368415D01*
X240453Y371949D02*
X240713Y371688D01*
X241677D01*
X241711Y371654D01*
X245276D01*
X246634Y366634D02*
Y370295D01*
X245276Y371654D02*
X246634Y370295D01*
X241634Y366634D02*
Y367786D01*
X241005Y368415D02*
X241634Y367786D01*
X261634Y362028D02*
Y366634D01*
X256102Y356496D02*
X261634Y362028D01*
X256634Y360688D02*
Y366634D01*
X253714Y357768D02*
X256634Y360688D01*
X250780Y357768D02*
X253714D01*
X249410Y356398D02*
X250780Y357768D01*
X263976Y375984D02*
X264469D01*
X259744Y380217D02*
X263976Y375984D01*
X254724Y380217D02*
X259744D01*
X266634Y366634D02*
Y370571D01*
X265158Y372047D02*
X266634Y370571D01*
X262697Y372047D02*
X265158D01*
X258760Y375984D02*
X262697Y372047D01*
X271634Y366634D02*
Y370787D01*
X264469Y375984D02*
X265284Y375168D01*
X267253D01*
X271634Y370787D01*
X254921Y372146D02*
X258760Y375984D01*
X249606Y372146D02*
X254921D01*
X243504Y375984D02*
X244910Y374578D01*
X247174D01*
X249606Y372146D01*
X252658Y382283D02*
X254724Y380217D01*
X237106Y376575D02*
X242913D01*
X243504Y375984D01*
X252165Y382283D02*
X252658D01*
X242815Y388091D02*
X246358D01*
X249909Y384539D01*
Y384047D02*
Y384539D01*
Y384047D02*
X251673Y382283D01*
X252165D01*
X229035Y395335D02*
X229293Y395077D01*
X267323Y500591D02*
X267618D01*
X254562Y498508D02*
X269866D01*
X253772Y497114D02*
X270736D01*
X267618Y500591D02*
X273630Y506602D01*
X269866Y498508D02*
X271843Y500484D01*
X270736Y497114D02*
X273917Y500295D01*
X264067Y501961D02*
Y502926D01*
X262008Y499902D02*
X264067Y501961D01*
Y502926D02*
X265282Y504142D01*
X273058Y502370D02*
X275705D01*
X271843Y501155D02*
X273058Y502370D01*
X271843Y500484D02*
Y501155D01*
X256471Y499902D02*
X262008D01*
X250886Y500000D02*
X253772Y497114D01*
X252354Y500715D02*
X254562Y498508D01*
X254528Y501845D02*
X256471Y499902D01*
X248228Y500000D02*
X253248Y494980D01*
X256791D01*
X266043Y495276D02*
X266535Y494783D01*
X279724D02*
X286294Y488214D01*
X266535Y494783D02*
X279724D01*
X277559Y504528D02*
X281004Y501083D01*
Y495965D02*
Y501083D01*
Y495965D02*
X288090Y488878D01*
X265748Y494980D02*
X266043Y495276D01*
X286294Y485112D02*
Y488214D01*
X266043Y495276D02*
X266043D01*
X265748Y494980D02*
X266339D01*
X265650Y494882D02*
X265748Y494980D01*
X265650Y494882D02*
Y494980D01*
X248917Y511713D02*
X249889D01*
X250000Y511824D01*
X280512Y508973D02*
Y513700D01*
X273630Y506602D02*
X278141D01*
X274410Y517224D02*
X279043Y512591D01*
X272441Y508169D02*
X277737D01*
X279043Y509475D02*
Y512591D01*
X277737Y508169D02*
X279043Y509475D01*
X278141Y506602D02*
X280512Y508973D01*
X268413Y504142D02*
X272441Y508169D01*
X282087Y511830D02*
Y515059D01*
Y511830D02*
X284467Y509449D01*
X250964Y452938D02*
X255217Y457190D01*
X250964Y452326D02*
Y452938D01*
X250961Y452322D02*
X250964Y452326D01*
X250961Y449449D02*
Y452322D01*
Y449449D02*
X250964Y449445D01*
Y449422D02*
Y449445D01*
Y449422D02*
X251165Y449221D01*
X252354Y451745D02*
X257480Y456871D01*
X252354Y450026D02*
Y451745D01*
Y450026D02*
X252358Y450023D01*
Y449999D02*
Y450023D01*
Y449999D02*
X252559Y449798D01*
X251165Y446297D02*
X251736Y445726D01*
X252287D01*
X251165Y446297D02*
Y449221D01*
X252287Y445726D02*
X253748Y444265D01*
Y444258D02*
Y444265D01*
X252559Y449115D02*
Y449798D01*
Y449115D02*
X254429Y447244D01*
X295113Y483922D02*
Y484925D01*
X294480Y485558D02*
X295113Y484925D01*
X294480Y485558D02*
Y492134D01*
X275000Y504528D02*
X277559D01*
X282112Y528814D02*
X289370Y521555D01*
Y512205D02*
Y521555D01*
X281789Y531791D02*
X290945Y522635D01*
Y493405D02*
Y522635D01*
X281291Y534654D02*
X292512Y523433D01*
Y495243D02*
Y523433D01*
Y495243D02*
X292520Y495235D01*
Y494095D02*
Y495235D01*
Y494095D02*
X294480Y492134D01*
X293087Y484981D02*
Y491264D01*
X290945Y493405D02*
X293087Y491264D01*
X291634Y482574D02*
Y490354D01*
X289272Y492717D02*
X291634Y490354D01*
X289272Y492717D02*
Y512106D01*
X290173Y483084D02*
Y489453D01*
X287878Y491748D02*
X290173Y489453D01*
X287878Y491748D02*
Y498209D01*
X288090Y482972D02*
Y488878D01*
X284244Y479126D02*
X288090Y482972D01*
X278346Y499311D02*
Y499680D01*
X277665Y500361D02*
X278346Y499680D01*
X277665Y500361D02*
Y500409D01*
X275705Y502370D02*
X277665Y500409D01*
X285531Y484350D02*
X286294Y485112D01*
X250000Y511824D02*
X252961Y508863D01*
X287844Y498243D02*
X287878Y498209D01*
X287844Y498243D02*
Y511073D01*
X288402Y479342D02*
X291634Y482574D01*
X293087Y484981D02*
X293126Y484941D01*
X286394Y479305D02*
X290173Y483084D01*
X293126Y482095D02*
Y484941D01*
X290311Y479280D02*
X293126Y482095D01*
X286713Y512205D02*
X287844Y511073D01*
X277928Y528814D02*
X282112D01*
X290311Y462178D02*
Y479280D01*
X288402Y462239D02*
Y479342D01*
X286394Y463165D02*
Y479305D01*
X284244Y462231D02*
Y479126D01*
X273819Y525968D02*
Y527289D01*
X273803Y521276D02*
X274410Y520669D01*
X272146Y531398D02*
X275213Y528331D01*
Y525391D02*
Y528331D01*
X275197Y521853D02*
Y525375D01*
Y521853D02*
X276075Y520975D01*
X273803Y521276D02*
Y525952D01*
X273819Y525968D01*
X275197Y525375D02*
X275213Y525391D01*
X254429Y451083D02*
X259744Y456398D01*
X254429Y450886D02*
Y451083D01*
X229429Y413558D02*
X229964Y413023D01*
X229429Y413558D02*
Y447638D01*
X233661Y451865D02*
Y462598D01*
X233076Y451279D02*
X233661Y451865D01*
X233071Y451279D02*
X233076D01*
X229429Y447638D02*
X233071Y451279D01*
X233661Y462598D02*
X241142Y470079D01*
X243504D01*
X244685Y471260D02*
X244882D01*
X243504Y470079D02*
X244685Y471260D01*
X270571Y475689D02*
Y486811D01*
X270472Y475591D02*
X270571Y475689D01*
X245669Y419488D02*
X246752D01*
X249590Y422327D01*
X257103D01*
X257145Y422368D01*
X254626Y423721D02*
X257776Y426870D01*
X248917Y423721D02*
X254626D01*
X247736Y422539D02*
X248917Y423721D01*
X245669Y422539D02*
X247736D01*
X270472Y475591D02*
X276673Y469390D01*
X255217Y529134D02*
X257677Y531595D01*
X246555Y529134D02*
X255217D01*
X274410Y517224D02*
Y520669D01*
X276075Y518137D02*
X280512Y513700D01*
X276075Y518137D02*
Y520975D01*
X264979Y531595D02*
X268038Y534654D01*
X257677Y531595D02*
X264979D01*
X255709Y478273D02*
X262992Y470990D01*
Y445079D02*
Y470990D01*
X255709Y478273D02*
Y478642D01*
X254528Y501845D02*
Y502559D01*
X252354Y500715D02*
Y504440D01*
X250886Y500000D02*
Y505905D01*
X252354Y504440D02*
X252961Y505046D01*
X245472Y500000D02*
X248228D01*
X254429Y447047D02*
Y447244D01*
X268038Y534654D02*
X281291D01*
X286713Y512205D02*
Y521340D01*
X281674Y526378D02*
X286713Y521340D01*
X277272Y524516D02*
Y525106D01*
Y523925D02*
Y524516D01*
X278543Y526378D02*
X281674D01*
X284467Y509449D02*
X285728D01*
X284350Y512500D02*
Y518504D01*
X281004Y521850D02*
X284350Y518504D01*
X281004Y521850D02*
Y524114D01*
X268602Y532237D02*
Y532560D01*
X268621Y532579D01*
X268602Y532237D02*
X268870D01*
X273819Y527289D01*
X272146Y531398D02*
Y531988D01*
X295113Y483922D02*
X295374Y483661D01*
X288122Y459988D02*
X290311Y462178D01*
X286319Y463091D02*
X286394Y463165D01*
X279320Y444193D02*
X289516Y454389D01*
X282329Y449173D02*
X288122Y454966D01*
X281752Y450567D02*
X286728Y455544D01*
X284244Y462231D02*
X285335Y461141D01*
Y456121D02*
Y461141D01*
X289516Y459398D02*
X292815Y462697D01*
X289516Y454389D02*
Y459398D01*
X288122Y454966D02*
Y459988D01*
X286728Y460566D02*
X288402Y462239D01*
X286728Y455544D02*
Y460566D01*
X281174Y451961D02*
X285335Y456121D01*
X278150Y518996D02*
X282087Y515059D01*
X265282Y504142D02*
X268413D01*
X277272Y525106D02*
X278543Y526378D01*
X274213Y441732D02*
X277059Y444579D01*
Y445052D01*
X280752Y448745D01*
Y449173D01*
X274803Y445472D02*
X275080D01*
X280174Y450567D01*
X277003Y449508D02*
X279455Y451961D01*
X254429Y443577D02*
Y443996D01*
X279134Y444193D02*
X279320D01*
X280752Y449173D02*
X282329D01*
X280174Y450567D02*
X281752D01*
X279455Y451961D02*
X281174D01*
X252961Y505046D02*
Y508863D01*
D77*
X242717Y424705D02*
Y427224D01*
X252500Y437008D01*
X228642Y344390D02*
X233120Y348868D01*
X235138Y343209D02*
X236634D01*
X242618Y356201D02*
X248622Y350197D01*
X236417Y356201D02*
X242618D01*
X233120Y352904D02*
X236417Y356201D01*
X233120Y348868D02*
Y352904D01*
X228642Y343898D02*
Y344390D01*
X248622Y350197D02*
X253150D01*
X230217Y342323D02*
X234252D01*
X228642Y343898D02*
X230217Y342323D01*
X236634Y343209D02*
Y344980D01*
X234252Y342323D02*
X235138Y343209D01*
X253150Y350197D02*
X275098D01*
X280512Y355610D01*
X260236Y502165D02*
X264862Y506791D01*
X259547Y502165D02*
X260236D01*
X259055D02*
X259547D01*
X241339Y487697D02*
X277854D01*
X242717Y507776D02*
Y510433D01*
X242421Y507480D02*
X242717Y507776D01*
X242421Y507480D02*
Y508071D01*
Y504626D02*
Y507480D01*
X255035Y506185D02*
X259055Y502165D01*
X264862Y506791D02*
X267913D01*
X255035Y506185D02*
Y510673D01*
X246850Y514567D02*
X251142D01*
X242717Y510433D02*
X246850Y514567D01*
X271555Y516929D02*
X276961Y511524D01*
Y510343D02*
Y511524D01*
Y510343D02*
X276969Y510335D01*
X271654D02*
X276969D01*
X271555Y510433D02*
X271654Y510335D01*
X246063Y456299D02*
X248886Y459122D01*
X243406Y456299D02*
X246063D01*
X240453Y453346D02*
X243406Y456299D01*
X240453Y452067D02*
Y453346D01*
X285531Y439764D02*
X286713Y440945D01*
X284803Y439764D02*
X285531D01*
X275453Y430413D02*
X284803Y439764D01*
X275197Y430413D02*
X275453D01*
X273819Y436516D02*
X278740Y441437D01*
X266634Y436516D02*
X273819D01*
X267520Y430610D02*
X275000D01*
X275197Y430413D01*
X254232Y437008D02*
X260630Y430610D01*
X267520D01*
X252500Y437008D02*
X254232D01*
X282146Y443307D02*
X284449D01*
X280275Y441437D02*
X282146Y443307D01*
X278740Y441437D02*
X280275D01*
X262402Y440748D02*
X266634Y436516D01*
X254331Y440748D02*
X262402D01*
X248886Y459122D02*
X250984Y461221D01*
X248886Y448566D02*
Y459122D01*
Y448566D02*
X249090Y448362D01*
Y443814D02*
Y448362D01*
Y443814D02*
X252156Y440748D01*
X254331D01*
X283071Y543209D02*
X283858Y543996D01*
X283071Y536614D02*
Y543209D01*
X294587Y496103D02*
X296555Y494134D01*
Y486417D02*
Y494134D01*
X283071Y536614D02*
X294587Y525098D01*
Y496103D02*
Y525098D01*
X278937Y486614D02*
X283071D01*
X277854Y487697D02*
X278937Y486614D01*
X271555Y516929D02*
Y526378D01*
X268799Y529134D02*
X271555Y526378D01*
X260039Y529134D02*
X268799D01*
X225984Y485138D02*
Y486221D01*
X224508Y483661D02*
X225984Y485138D01*
X224508Y443504D02*
Y483661D01*
X239862Y486221D02*
X241339Y487697D01*
X217028Y436024D02*
X224508Y443504D01*
X250787Y526181D02*
X250886Y526279D01*
X250689Y526181D02*
X250787D01*
X250886Y526279D02*
X256890D01*
X259350Y528740D02*
X259646D01*
X256890Y526279D02*
X259350Y528740D01*
X251142Y514567D02*
X255035Y510673D01*
X267913Y506791D02*
X271555Y510433D01*
X259646Y528740D02*
X260039Y529134D01*
D80*
X226673Y561516D02*
D03*
X256791Y330217D02*
D03*
D81*
X290354Y332382D02*
D03*
X223130D02*
D03*
X217028Y345413D02*
D03*
X296260D02*
D03*
D82*
X265402Y515059D02*
D03*
X262500Y509252D02*
D03*
Y517890D02*
D03*
X268307Y515059D02*
D03*
X262500D02*
D03*
X256693D02*
D03*
X262500Y512130D02*
D03*
Y520768D02*
D03*
X259594Y515059D02*
D03*
D83*
X233214Y547184D02*
D03*
X219882Y435874D02*
D03*
X210114Y487888D02*
D03*
X213114D02*
D03*
X216114D02*
D03*
X236085Y504859D02*
D03*
X227600Y496374D02*
D03*
X229721Y498495D02*
D03*
X231842Y500616D02*
D03*
X233963Y502738D02*
D03*
X219114Y487888D02*
D03*
X221235Y490010D02*
D03*
X223357Y492131D02*
D03*
X225478Y494252D02*
D03*
X238206Y562980D02*
D03*
Y553980D02*
D03*
Y556980D02*
D03*
Y559980D02*
D03*
Y506980D02*
D03*
Y509980D02*
D03*
Y550980D02*
D03*
Y547980D02*
D03*
Y544980D02*
D03*
Y541980D02*
D03*
Y538980D02*
D03*
Y535980D02*
D03*
Y532980D02*
D03*
Y529980D02*
D03*
Y526980D02*
D03*
Y523980D02*
D03*
X241206D02*
D03*
X238206Y512980D02*
D03*
Y515980D02*
D03*
X241206D02*
D03*
X211126Y464567D02*
D03*
X214126D02*
D03*
X217126D02*
D03*
X220126D02*
D03*
X211075Y447047D02*
D03*
X214075D02*
D03*
X217075D02*
D03*
X220075D02*
D03*
X220276Y450091D02*
D03*
Y453091D02*
D03*
X220177Y461614D02*
D03*
Y458614D02*
D03*
X220276Y455902D02*
D03*
X220177Y427358D02*
D03*
X220079Y430071D02*
D03*
X219980Y432972D02*
D03*
X220177Y424547D02*
D03*
Y421547D02*
D03*
X219976Y418504D02*
D03*
X216976D02*
D03*
X213976D02*
D03*
X210976D02*
D03*
X217028Y436024D02*
D03*
X214028D02*
D03*
X211028D02*
D03*
D84*
X217028Y355413D02*
D03*
X296260D02*
D03*
D85*
X219035Y395335D02*
D03*
D86*
Y385335D02*
D03*
Y375335D02*
D03*
X229035Y395335D02*
D03*
Y385335D02*
D03*
Y375335D02*
D03*
D87*
X229331Y412697D02*
D03*
X255709Y465600D02*
D03*
X239567Y477264D02*
D03*
X242717Y424705D02*
D03*
X275295Y404823D02*
D03*
X240158Y352953D02*
D03*
X280315Y350000D02*
D03*
X252854Y359842D02*
D03*
X249410Y356398D02*
D03*
X240453Y371949D02*
D03*
X236614Y371850D02*
D03*
X256102Y356496D02*
D03*
X277264Y390748D02*
D03*
X266437Y500689D02*
D03*
X259547Y502165D02*
D03*
X256791Y494980D02*
D03*
X265650Y494882D02*
D03*
X248917Y511713D02*
D03*
X245768Y506890D02*
D03*
X276969Y510335D02*
D03*
X286221Y436024D02*
D03*
X283563Y486417D02*
D03*
X302854Y345335D02*
D03*
X296260Y339823D02*
D03*
X289862Y345433D02*
D03*
X210630Y345472D02*
D03*
X217028Y339862D02*
D03*
X223524Y345374D02*
D03*
X283858Y543996D02*
D03*
X224508Y483661D02*
D03*
X225984Y486221D02*
D03*
X241929Y504626D02*
D03*
X242224Y507776D02*
D03*
X270571Y486811D02*
D03*
X262106D02*
D03*
X239862Y486221D02*
D03*
X245669Y419488D02*
D03*
X257145Y422368D02*
D03*
X270374Y462992D02*
D03*
X247244Y427854D02*
D03*
X232677Y443602D02*
D03*
Y447146D02*
D03*
Y418209D02*
D03*
X246334Y447220D02*
D03*
X244291Y451870D02*
D03*
X234449Y413091D02*
D03*
X234055Y471260D02*
D03*
X240059Y407283D02*
D03*
X270571Y470571D02*
D03*
X281594Y483858D02*
D03*
X245472Y338090D02*
D03*
X240158D02*
D03*
X242815D02*
D03*
X266240Y412992D02*
D03*
X263386Y435236D02*
D03*
X300197Y423524D02*
D03*
X296850Y440059D02*
D03*
X297835Y462992D02*
D03*
X295866Y456988D02*
D03*
X253445Y483957D02*
D03*
X266535Y483858D02*
D03*
X252953Y413189D02*
D03*
X280315Y454035D02*
D03*
X300000Y504331D02*
D03*
X249311Y533760D02*
D03*
X260433D02*
D03*
X272835Y545965D02*
D03*
X291437Y540846D02*
D03*
X294193Y556693D02*
D03*
X286713Y440945D02*
D03*
X284449Y443307D02*
D03*
X277362Y419587D02*
D03*
X275197Y430413D02*
D03*
X267520Y430610D02*
D03*
X276673Y469390D02*
D03*
X250689Y526181D02*
D03*
X246555Y529134D02*
D03*
X259646Y528740D02*
D03*
X240453Y452067D02*
D03*
X240945Y461221D02*
D03*
X238189D02*
D03*
X240256Y432874D02*
D03*
X254232Y437008D02*
D03*
X254331Y440748D02*
D03*
X250984Y461221D02*
D03*
X258563Y464075D02*
D03*
X257480Y460728D02*
D03*
X244882Y471260D02*
D03*
X280512Y358711D02*
D03*
Y361811D02*
D03*
X245669Y422539D02*
D03*
X271358Y420866D02*
D03*
X263287Y420965D02*
D03*
X255709Y478642D02*
D03*
X254528Y502559D02*
D03*
X245472Y500000D02*
D03*
X285728Y509449D02*
D03*
X277272Y524516D02*
D03*
X277928Y528814D02*
D03*
X268602Y532237D02*
D03*
X276181Y531890D02*
D03*
X272146Y531988D02*
D03*
X295374Y483661D02*
D03*
X285531Y484350D02*
D03*
X275000Y504528D02*
D03*
X273917Y500295D02*
D03*
X284350Y512500D02*
D03*
X281004Y524114D02*
D03*
X257776Y426870D02*
D03*
X274213Y441732D02*
D03*
X274803Y445472D02*
D03*
X280512Y355610D02*
D03*
X253150Y350197D02*
D03*
X254429Y443996D02*
D03*
X236910Y432874D02*
D03*
X296555Y486417D02*
D03*
X278346Y499311D02*
D03*
X280020Y390748D02*
D03*
X296949Y412992D02*
D03*
X284842Y420866D02*
D03*
X279134Y444193D02*
D03*
X286319Y463091D02*
D03*
X292815Y462697D02*
D03*
X250886Y505905D02*
D03*
X254429Y450886D02*
D03*
X276279Y449606D02*
D03*
X278150Y518996D02*
D03*
X254429Y447047D02*
D03*
X262992Y445079D02*
D03*
D88*
X236634Y366634D02*
D03*
X241634D02*
D03*
X246634D02*
D03*
X251634D02*
D03*
X256634D02*
D03*
X261634D02*
D03*
X266634D02*
D03*
X271634D02*
D03*
X236634Y344980D02*
D03*
X241634D02*
D03*
X246634D02*
D03*
X251634D02*
D03*
X256634D02*
D03*
X261634D02*
D03*
X266634D02*
D03*
X271634D02*
D03*
M02*
