M48
;Layer_Color=9474304
;FILE_FORMAT=2:5
INCH,TZ
;TYPE=PLATED
T1F00S00C0.01181
T3F00S00C0.04331
;TYPE=NON_PLATED
T4F00S00C0.04331
T5F00S00C0.04535
T6F00S00C0.05118
%
T01
X210630Y345472
X217028Y339862
X223524Y345374
X240158Y338090
X242815
X245472
X253150Y350197
X256102Y356496
X252854Y359842
X249410Y356398
X240158Y352953
X240453Y371949
X236614Y371850
X240059Y407283
X234449Y413091
X229331Y412697
X232677Y418209
X219976Y418504
X216976
X213976
X210976
X220177Y421547
Y424547
Y427358
X220079Y430071
X219980Y432972
X219882Y435874
X217028Y436024
X214028
X211028
X211075Y447047
X214075
X217075
X220075
X220276Y450091
Y453091
Y455902
X220177Y458614
Y461614
X220126Y464567
X217126
X214126
X211126
X238189Y461221
X240945
X240453Y452067
X244291Y451870
X246334Y447220
X254429Y447047
Y443996
X254331Y440748
X254232Y437008
X263386Y435236
X267520Y430610
X275197Y430413
X274213Y441732
X274803Y445472
X279134Y444193
X284449Y443307
X286713Y440945
X286221Y436024
X296850Y440059
X295866Y456988
X297835Y462992
X292815Y462697
X286319Y463091
X280315Y454035
X276279Y449606
X262992Y445079
X254429Y450886
X257480Y460728
X258563Y464075
X255709Y465600
X250984Y461221
X270374Y462992
X271358Y420866
X277362Y419587
X284842Y420866
X300197Y423524
X296949Y412992
X275295Y404823
X277264Y390748
X280020
X280512Y361811
Y358711
Y355610
X280315Y350000
X289862Y345433
X296260Y339823
X302854Y345335
X266240Y412992
X263287Y420965
X257145Y422368
X257776Y426870
X247244Y427854
X245669Y422539
Y419488
X242717Y424705
X240256Y432874
X236910
X232677Y443602
Y447146
X252953Y413189
X244882Y471260
X234055
X239567Y477264
X239862Y486221
X225984
X224508Y483661
X219114Y487888
X216114
X213114
X210114
X221235Y490010
X223357Y492131
X225478Y494252
X227600Y496374
X229721Y498495
X231842Y500616
X233963Y502738
X236085Y504859
X238206Y506980
Y509980
Y512980
Y515980
X241206
Y523980
X238206
Y526980
Y529980
Y532980
Y535980
Y538980
Y541980
Y544980
Y547980
Y550980
Y553980
Y556980
Y559980
Y562980
X233214Y547184
X249311Y533760
X246555Y529134
X250689Y526181
X259646Y528740
X260433Y533760
X268602Y532237
X272146Y531988
X276181Y531890
X277928Y528814
X277272Y524516
X281004Y524114
X278150Y518996
X276969Y510335
X275000Y504528
X273917Y500295
X278346Y499311
X266437Y500689
X265650Y494882
X256791Y494980
X254528Y502559
X259547Y502165
X262500Y509252
Y512130
Y515059
Y517890
Y520768
X265402Y515059
X268307
X259594
X256693
X248917Y511713
X250886Y505905
X245768Y506890
X242224Y507776
X241929Y504626
X245472Y500000
X253445Y483957
X255709Y478642
X262106Y486811
X266535Y483858
X270571Y486811
X283563Y486417
X285531Y484350
X281594Y483858
X295374Y483661
X296555Y486417
X300000Y504331
X285728Y509449
X284350Y512500
X283858Y543996
X291437Y540846
X294193Y556693
X272835Y545965
X270571Y470571
X276673Y469390
T03
X223130Y332382
X217028Y345413
Y355413
X219035Y375335
Y385335
Y395335
X229035
Y385335
Y375335
X296260Y355413
Y345413
X290354Y332382
T04
X247933Y334350
X265650
T05
X256791Y330217
X226673Y561516
T06
X270276Y391732
X297835
M30
